G75*
%MOIN*%
%OFA0B0*%
%FSLAX25Y25*%
%IPPOS*%
%LPD*%
%AMOC8*
5,1,8,0,0,1.08239X$1,22.5*
%
%ADD10C,0.00000*%
%ADD11C,0.00400*%
%ADD12C,0.00300*%
%ADD13C,0.00700*%
%ADD14C,0.00600*%
%ADD15C,0.00185*%
%ADD16C,0.00655*%
%ADD17R,0.19239X0.01392*%
%ADD18R,0.06631X0.02292*%
%ADD19R,0.02293X0.02210*%
%ADD20C,0.00800*%
%ADD21C,0.00200*%
%ADD22C,0.00500*%
D10*
X0019865Y0014585D02*
X0388843Y0014585D01*
X0388843Y0014584D02*
X0389099Y0014587D01*
X0389355Y0014596D01*
X0389611Y0014612D01*
X0389866Y0014633D01*
X0390121Y0014661D01*
X0390375Y0014695D01*
X0390628Y0014735D01*
X0390880Y0014781D01*
X0391131Y0014834D01*
X0391380Y0014892D01*
X0391628Y0014956D01*
X0391874Y0015027D01*
X0392119Y0015103D01*
X0392362Y0015185D01*
X0392602Y0015273D01*
X0392841Y0015367D01*
X0393077Y0015466D01*
X0393310Y0015571D01*
X0393541Y0015682D01*
X0393770Y0015798D01*
X0393995Y0015920D01*
X0394217Y0016047D01*
X0394437Y0016180D01*
X0394652Y0016318D01*
X0394865Y0016461D01*
X0395074Y0016609D01*
X0395280Y0016762D01*
X0395481Y0016920D01*
X0395679Y0017082D01*
X0395873Y0017250D01*
X0396062Y0017422D01*
X0396248Y0017599D01*
X0396429Y0017780D01*
X0396606Y0017966D01*
X0396778Y0018155D01*
X0396946Y0018349D01*
X0397108Y0018547D01*
X0397266Y0018748D01*
X0397419Y0018954D01*
X0397567Y0019163D01*
X0397710Y0019376D01*
X0397848Y0019591D01*
X0397981Y0019811D01*
X0398108Y0020033D01*
X0398230Y0020258D01*
X0398346Y0020487D01*
X0398457Y0020718D01*
X0398562Y0020951D01*
X0398661Y0021187D01*
X0398755Y0021426D01*
X0398843Y0021666D01*
X0398925Y0021909D01*
X0399001Y0022154D01*
X0399072Y0022400D01*
X0399136Y0022648D01*
X0399194Y0022897D01*
X0399247Y0023148D01*
X0399293Y0023400D01*
X0399333Y0023653D01*
X0399367Y0023907D01*
X0399395Y0024162D01*
X0399416Y0024417D01*
X0399432Y0024673D01*
X0399441Y0024929D01*
X0399444Y0025185D01*
X0399444Y0204511D01*
X0399469Y0204802D01*
X0399487Y0205094D01*
X0399498Y0205386D01*
X0399502Y0205679D01*
X0399499Y0205971D01*
X0399489Y0206263D01*
X0399471Y0206555D01*
X0399447Y0206846D01*
X0399415Y0207137D01*
X0399377Y0207427D01*
X0399332Y0207716D01*
X0399279Y0208004D01*
X0399220Y0208290D01*
X0399154Y0208575D01*
X0399081Y0208858D01*
X0399001Y0209139D01*
X0398914Y0209418D01*
X0398821Y0209695D01*
X0398720Y0209970D01*
X0398614Y0210242D01*
X0398501Y0210512D01*
X0398381Y0210779D01*
X0398255Y0211043D01*
X0398122Y0211303D01*
X0397984Y0211561D01*
X0397839Y0211815D01*
X0397688Y0212065D01*
X0397531Y0212312D01*
X0397368Y0212555D01*
X0397199Y0212793D01*
X0397025Y0213028D01*
X0396844Y0213258D01*
X0396659Y0213484D01*
X0396468Y0213706D01*
X0396272Y0213922D01*
X0396070Y0214134D01*
X0395864Y0214341D01*
X0395652Y0214543D01*
X0395436Y0214740D01*
X0395215Y0214932D01*
X0394989Y0215118D01*
X0394759Y0215298D01*
X0394525Y0215473D01*
X0394287Y0215642D01*
X0394044Y0215806D01*
X0393798Y0215963D01*
X0393548Y0216115D01*
X0393294Y0216261D01*
X0393037Y0216400D01*
X0392777Y0216533D01*
X0392513Y0216660D01*
X0392247Y0216780D01*
X0391977Y0216894D01*
X0391705Y0217001D01*
X0391431Y0217102D01*
X0391154Y0217196D01*
X0390875Y0217283D01*
X0390594Y0217363D01*
X0390311Y0217437D01*
X0390026Y0217504D01*
X0389740Y0217564D01*
X0389452Y0217617D01*
X0389164Y0217663D01*
X0388874Y0217702D01*
X0388583Y0217734D01*
X0024601Y0217734D01*
X0024600Y0217734D02*
X0024207Y0217696D01*
X0023814Y0217648D01*
X0023423Y0217591D01*
X0023034Y0217525D01*
X0022646Y0217449D01*
X0022260Y0217364D01*
X0021876Y0217269D01*
X0021494Y0217165D01*
X0021116Y0217053D01*
X0020740Y0216931D01*
X0020367Y0216799D01*
X0019997Y0216659D01*
X0019631Y0216510D01*
X0019269Y0216353D01*
X0018910Y0216186D01*
X0018556Y0216011D01*
X0018206Y0215827D01*
X0017860Y0215635D01*
X0017520Y0215435D01*
X0017184Y0215227D01*
X0016853Y0215010D01*
X0016528Y0214786D01*
X0016208Y0214553D01*
X0015894Y0214314D01*
X0015586Y0214066D01*
X0015284Y0213811D01*
X0014988Y0213549D01*
X0014698Y0213280D01*
X0014415Y0213004D01*
X0014139Y0212721D01*
X0013870Y0212432D01*
X0013608Y0212136D01*
X0013353Y0211834D01*
X0013105Y0211526D01*
X0012865Y0211212D01*
X0012633Y0210892D01*
X0012408Y0210567D01*
X0012191Y0210237D01*
X0011983Y0209901D01*
X0011782Y0209560D01*
X0011590Y0209215D01*
X0011406Y0208865D01*
X0011231Y0208511D01*
X0011065Y0208152D01*
X0010907Y0207790D01*
X0010757Y0207424D01*
X0010617Y0207054D01*
X0010486Y0206682D01*
X0010364Y0206306D01*
X0010251Y0205927D01*
X0010147Y0205546D01*
X0010052Y0205162D01*
X0009967Y0204776D01*
X0009891Y0204388D01*
X0009824Y0203998D01*
X0009767Y0203607D01*
X0009719Y0203215D01*
X0009681Y0202822D01*
X0009652Y0202427D01*
X0009633Y0202033D01*
X0009623Y0201637D01*
X0009623Y0201242D01*
X0009633Y0200847D01*
X0009652Y0200452D01*
X0009680Y0200058D01*
X0009680Y0024770D01*
X0009683Y0024524D01*
X0009692Y0024278D01*
X0009707Y0024032D01*
X0009728Y0023787D01*
X0009754Y0023542D01*
X0009787Y0023298D01*
X0009825Y0023055D01*
X0009870Y0022813D01*
X0009920Y0022572D01*
X0009976Y0022333D01*
X0010038Y0022094D01*
X0010105Y0021858D01*
X0010178Y0021623D01*
X0010257Y0021390D01*
X0010342Y0021158D01*
X0010432Y0020929D01*
X0010527Y0020702D01*
X0010628Y0020478D01*
X0010735Y0020256D01*
X0010847Y0020037D01*
X0010964Y0019820D01*
X0011086Y0019607D01*
X0011213Y0019396D01*
X0011346Y0019188D01*
X0011483Y0018984D01*
X0011625Y0018783D01*
X0011772Y0018586D01*
X0011924Y0018392D01*
X0012080Y0018202D01*
X0012241Y0018016D01*
X0012407Y0017834D01*
X0012577Y0017656D01*
X0012751Y0017482D01*
X0012929Y0017312D01*
X0013111Y0017146D01*
X0013297Y0016985D01*
X0013487Y0016829D01*
X0013681Y0016677D01*
X0013878Y0016530D01*
X0014079Y0016388D01*
X0014283Y0016251D01*
X0014491Y0016118D01*
X0014702Y0015991D01*
X0014915Y0015869D01*
X0015132Y0015752D01*
X0015351Y0015640D01*
X0015573Y0015533D01*
X0015797Y0015432D01*
X0016024Y0015337D01*
X0016253Y0015247D01*
X0016485Y0015162D01*
X0016718Y0015083D01*
X0016953Y0015010D01*
X0017189Y0014943D01*
X0017428Y0014881D01*
X0017667Y0014825D01*
X0017908Y0014775D01*
X0018150Y0014730D01*
X0018393Y0014692D01*
X0018637Y0014659D01*
X0018882Y0014633D01*
X0019127Y0014612D01*
X0019373Y0014597D01*
X0019619Y0014588D01*
X0019865Y0014585D01*
X0028381Y0094112D02*
X0028383Y0094196D01*
X0028389Y0094279D01*
X0028399Y0094362D01*
X0028413Y0094445D01*
X0028430Y0094527D01*
X0028452Y0094608D01*
X0028477Y0094687D01*
X0028506Y0094766D01*
X0028539Y0094843D01*
X0028575Y0094918D01*
X0028615Y0094992D01*
X0028658Y0095064D01*
X0028705Y0095133D01*
X0028755Y0095200D01*
X0028808Y0095265D01*
X0028864Y0095327D01*
X0028922Y0095387D01*
X0028984Y0095444D01*
X0029048Y0095497D01*
X0029115Y0095548D01*
X0029184Y0095595D01*
X0029255Y0095640D01*
X0029328Y0095680D01*
X0029403Y0095717D01*
X0029480Y0095751D01*
X0029558Y0095781D01*
X0029637Y0095807D01*
X0029718Y0095830D01*
X0029800Y0095848D01*
X0029882Y0095863D01*
X0029965Y0095874D01*
X0030048Y0095881D01*
X0030132Y0095884D01*
X0030216Y0095883D01*
X0030299Y0095878D01*
X0030383Y0095869D01*
X0030465Y0095856D01*
X0030547Y0095840D01*
X0030628Y0095819D01*
X0030709Y0095795D01*
X0030787Y0095767D01*
X0030865Y0095735D01*
X0030941Y0095699D01*
X0031015Y0095660D01*
X0031087Y0095618D01*
X0031157Y0095572D01*
X0031225Y0095523D01*
X0031290Y0095471D01*
X0031353Y0095416D01*
X0031413Y0095358D01*
X0031471Y0095297D01*
X0031525Y0095233D01*
X0031577Y0095167D01*
X0031625Y0095099D01*
X0031670Y0095028D01*
X0031711Y0094955D01*
X0031750Y0094881D01*
X0031784Y0094805D01*
X0031815Y0094727D01*
X0031842Y0094648D01*
X0031866Y0094567D01*
X0031885Y0094486D01*
X0031901Y0094404D01*
X0031913Y0094321D01*
X0031921Y0094237D01*
X0031925Y0094154D01*
X0031925Y0094070D01*
X0031921Y0093987D01*
X0031913Y0093903D01*
X0031901Y0093820D01*
X0031885Y0093738D01*
X0031866Y0093657D01*
X0031842Y0093576D01*
X0031815Y0093497D01*
X0031784Y0093419D01*
X0031750Y0093343D01*
X0031711Y0093269D01*
X0031670Y0093196D01*
X0031625Y0093125D01*
X0031577Y0093057D01*
X0031525Y0092991D01*
X0031471Y0092927D01*
X0031413Y0092866D01*
X0031353Y0092808D01*
X0031290Y0092753D01*
X0031225Y0092701D01*
X0031157Y0092652D01*
X0031087Y0092606D01*
X0031015Y0092564D01*
X0030941Y0092525D01*
X0030865Y0092489D01*
X0030787Y0092457D01*
X0030709Y0092429D01*
X0030628Y0092405D01*
X0030547Y0092384D01*
X0030465Y0092368D01*
X0030383Y0092355D01*
X0030299Y0092346D01*
X0030216Y0092341D01*
X0030132Y0092340D01*
X0030048Y0092343D01*
X0029965Y0092350D01*
X0029882Y0092361D01*
X0029800Y0092376D01*
X0029718Y0092394D01*
X0029637Y0092417D01*
X0029558Y0092443D01*
X0029480Y0092473D01*
X0029403Y0092507D01*
X0029328Y0092544D01*
X0029255Y0092584D01*
X0029184Y0092629D01*
X0029115Y0092676D01*
X0029048Y0092727D01*
X0028984Y0092780D01*
X0028922Y0092837D01*
X0028864Y0092897D01*
X0028808Y0092959D01*
X0028755Y0093024D01*
X0028705Y0093091D01*
X0028658Y0093160D01*
X0028615Y0093232D01*
X0028575Y0093306D01*
X0028539Y0093381D01*
X0028506Y0093458D01*
X0028477Y0093537D01*
X0028452Y0093616D01*
X0028430Y0093697D01*
X0028413Y0093779D01*
X0028399Y0093862D01*
X0028389Y0093945D01*
X0028383Y0094028D01*
X0028381Y0094112D01*
X0028381Y0111435D02*
X0028383Y0111519D01*
X0028389Y0111602D01*
X0028399Y0111685D01*
X0028413Y0111768D01*
X0028430Y0111850D01*
X0028452Y0111931D01*
X0028477Y0112010D01*
X0028506Y0112089D01*
X0028539Y0112166D01*
X0028575Y0112241D01*
X0028615Y0112315D01*
X0028658Y0112387D01*
X0028705Y0112456D01*
X0028755Y0112523D01*
X0028808Y0112588D01*
X0028864Y0112650D01*
X0028922Y0112710D01*
X0028984Y0112767D01*
X0029048Y0112820D01*
X0029115Y0112871D01*
X0029184Y0112918D01*
X0029255Y0112963D01*
X0029328Y0113003D01*
X0029403Y0113040D01*
X0029480Y0113074D01*
X0029558Y0113104D01*
X0029637Y0113130D01*
X0029718Y0113153D01*
X0029800Y0113171D01*
X0029882Y0113186D01*
X0029965Y0113197D01*
X0030048Y0113204D01*
X0030132Y0113207D01*
X0030216Y0113206D01*
X0030299Y0113201D01*
X0030383Y0113192D01*
X0030465Y0113179D01*
X0030547Y0113163D01*
X0030628Y0113142D01*
X0030709Y0113118D01*
X0030787Y0113090D01*
X0030865Y0113058D01*
X0030941Y0113022D01*
X0031015Y0112983D01*
X0031087Y0112941D01*
X0031157Y0112895D01*
X0031225Y0112846D01*
X0031290Y0112794D01*
X0031353Y0112739D01*
X0031413Y0112681D01*
X0031471Y0112620D01*
X0031525Y0112556D01*
X0031577Y0112490D01*
X0031625Y0112422D01*
X0031670Y0112351D01*
X0031711Y0112278D01*
X0031750Y0112204D01*
X0031784Y0112128D01*
X0031815Y0112050D01*
X0031842Y0111971D01*
X0031866Y0111890D01*
X0031885Y0111809D01*
X0031901Y0111727D01*
X0031913Y0111644D01*
X0031921Y0111560D01*
X0031925Y0111477D01*
X0031925Y0111393D01*
X0031921Y0111310D01*
X0031913Y0111226D01*
X0031901Y0111143D01*
X0031885Y0111061D01*
X0031866Y0110980D01*
X0031842Y0110899D01*
X0031815Y0110820D01*
X0031784Y0110742D01*
X0031750Y0110666D01*
X0031711Y0110592D01*
X0031670Y0110519D01*
X0031625Y0110448D01*
X0031577Y0110380D01*
X0031525Y0110314D01*
X0031471Y0110250D01*
X0031413Y0110189D01*
X0031353Y0110131D01*
X0031290Y0110076D01*
X0031225Y0110024D01*
X0031157Y0109975D01*
X0031087Y0109929D01*
X0031015Y0109887D01*
X0030941Y0109848D01*
X0030865Y0109812D01*
X0030787Y0109780D01*
X0030709Y0109752D01*
X0030628Y0109728D01*
X0030547Y0109707D01*
X0030465Y0109691D01*
X0030383Y0109678D01*
X0030299Y0109669D01*
X0030216Y0109664D01*
X0030132Y0109663D01*
X0030048Y0109666D01*
X0029965Y0109673D01*
X0029882Y0109684D01*
X0029800Y0109699D01*
X0029718Y0109717D01*
X0029637Y0109740D01*
X0029558Y0109766D01*
X0029480Y0109796D01*
X0029403Y0109830D01*
X0029328Y0109867D01*
X0029255Y0109907D01*
X0029184Y0109952D01*
X0029115Y0109999D01*
X0029048Y0110050D01*
X0028984Y0110103D01*
X0028922Y0110160D01*
X0028864Y0110220D01*
X0028808Y0110282D01*
X0028755Y0110347D01*
X0028705Y0110414D01*
X0028658Y0110483D01*
X0028615Y0110555D01*
X0028575Y0110629D01*
X0028539Y0110704D01*
X0028506Y0110781D01*
X0028477Y0110860D01*
X0028452Y0110939D01*
X0028430Y0111020D01*
X0028413Y0111102D01*
X0028399Y0111185D01*
X0028389Y0111268D01*
X0028383Y0111351D01*
X0028381Y0111435D01*
D11*
X0105353Y0112013D02*
X0106120Y0111246D01*
X0109189Y0114315D01*
X0106120Y0114315D01*
X0105353Y0113548D01*
X0105353Y0112013D01*
X0106120Y0111246D02*
X0109189Y0111246D01*
X0109957Y0112013D01*
X0109957Y0113548D01*
X0109189Y0114315D01*
X0109189Y0115850D02*
X0106120Y0115850D01*
X0105353Y0116617D01*
X0105353Y0118152D01*
X0106120Y0118919D01*
X0107655Y0118919D01*
X0107655Y0117385D01*
X0109189Y0118919D02*
X0109957Y0118152D01*
X0109957Y0116617D01*
X0109189Y0115850D01*
X0107655Y0109711D02*
X0107655Y0106642D01*
X0109957Y0108944D01*
X0105353Y0108944D01*
X0106120Y0105107D02*
X0105353Y0104340D01*
X0105353Y0102805D01*
X0106120Y0102038D01*
X0105353Y0100504D02*
X0109957Y0100504D01*
X0109189Y0102038D02*
X0109957Y0102805D01*
X0109957Y0104340D01*
X0109189Y0105107D01*
X0108422Y0105107D01*
X0107655Y0104340D01*
X0106887Y0105107D01*
X0106120Y0105107D01*
X0107655Y0104340D02*
X0107655Y0103573D01*
X0107655Y0100504D02*
X0107655Y0097434D01*
X0109189Y0095900D02*
X0109957Y0095132D01*
X0109957Y0093598D01*
X0109189Y0092830D01*
X0106120Y0092830D01*
X0105353Y0093598D01*
X0105353Y0095132D01*
X0106120Y0095900D01*
X0105353Y0097434D02*
X0109957Y0097434D01*
X0128707Y0032400D02*
X0127940Y0031633D01*
X0131009Y0028564D01*
X0130242Y0027796D01*
X0128707Y0027796D01*
X0127940Y0028564D01*
X0127940Y0031633D01*
X0128707Y0032400D02*
X0130242Y0032400D01*
X0131009Y0031633D01*
X0131009Y0028564D01*
X0132544Y0028564D02*
X0132544Y0027796D01*
X0133311Y0027796D01*
X0133311Y0028564D01*
X0132544Y0028564D01*
X0134846Y0027796D02*
X0137915Y0027796D01*
X0134846Y0030866D01*
X0134846Y0031633D01*
X0135613Y0032400D01*
X0137148Y0032400D01*
X0137915Y0031633D01*
X0144054Y0031633D02*
X0144054Y0030866D01*
X0144821Y0030098D01*
X0147123Y0030098D01*
X0148658Y0029331D02*
X0148658Y0028564D01*
X0149425Y0027796D01*
X0150959Y0027796D01*
X0151727Y0028564D01*
X0153261Y0028564D02*
X0153261Y0032400D01*
X0151727Y0031633D02*
X0151727Y0030866D01*
X0150959Y0030098D01*
X0149425Y0030098D01*
X0148658Y0029331D01*
X0147123Y0027796D02*
X0144821Y0027796D01*
X0144054Y0028564D01*
X0144054Y0029331D01*
X0144821Y0030098D01*
X0144054Y0031633D02*
X0144821Y0032400D01*
X0147123Y0032400D01*
X0147123Y0027796D01*
X0147123Y0024900D02*
X0144821Y0024900D01*
X0144054Y0024133D01*
X0144054Y0022598D01*
X0144821Y0021831D01*
X0147123Y0021831D01*
X0147123Y0020296D02*
X0147123Y0024900D01*
X0148658Y0024133D02*
X0149425Y0024900D01*
X0150959Y0024900D01*
X0151727Y0024133D01*
X0151727Y0021064D01*
X0150959Y0020296D01*
X0149425Y0020296D01*
X0148658Y0021064D01*
X0148658Y0024133D01*
X0145588Y0021831D02*
X0144054Y0020296D01*
X0140984Y0020296D02*
X0140984Y0024900D01*
X0139450Y0024900D02*
X0142519Y0024900D01*
X0137915Y0024133D02*
X0137148Y0024900D01*
X0135613Y0024900D01*
X0134846Y0024133D01*
X0134846Y0023366D01*
X0137915Y0020296D01*
X0134846Y0020296D01*
X0153261Y0022598D02*
X0154029Y0021831D01*
X0156331Y0021831D01*
X0156331Y0020296D02*
X0156331Y0024900D01*
X0154029Y0024900D01*
X0153261Y0024133D01*
X0153261Y0022598D01*
X0154029Y0027796D02*
X0153261Y0028564D01*
X0154029Y0027796D02*
X0155563Y0027796D01*
X0156331Y0028564D01*
X0156331Y0032400D01*
X0151727Y0031633D02*
X0150959Y0032400D01*
X0149425Y0032400D01*
X0148658Y0031633D01*
X0086646Y0032794D02*
X0086646Y0028957D01*
X0085878Y0028190D01*
X0084344Y0028190D01*
X0083576Y0028957D01*
X0083576Y0032794D01*
X0082042Y0032027D02*
X0082042Y0031259D01*
X0081274Y0030492D01*
X0079740Y0030492D01*
X0078972Y0029725D01*
X0078972Y0028957D01*
X0079740Y0028190D01*
X0081274Y0028190D01*
X0082042Y0028957D01*
X0082042Y0032027D02*
X0081274Y0032794D01*
X0079740Y0032794D01*
X0078972Y0032027D01*
X0077438Y0032794D02*
X0075136Y0032794D01*
X0074369Y0032027D01*
X0074369Y0031259D01*
X0075136Y0030492D01*
X0077438Y0030492D01*
X0077438Y0028190D02*
X0075136Y0028190D01*
X0074369Y0028957D01*
X0074369Y0029725D01*
X0075136Y0030492D01*
X0077438Y0028190D02*
X0077438Y0032794D01*
X0077438Y0025294D02*
X0075136Y0025294D01*
X0074369Y0024527D01*
X0074369Y0022992D01*
X0075136Y0022225D01*
X0077438Y0022225D01*
X0075903Y0022225D02*
X0074369Y0020690D01*
X0077438Y0020690D02*
X0077438Y0025294D01*
X0078972Y0024527D02*
X0079740Y0025294D01*
X0081274Y0025294D01*
X0082042Y0024527D01*
X0082042Y0021457D01*
X0081274Y0020690D01*
X0079740Y0020690D01*
X0078972Y0021457D01*
X0078972Y0024527D01*
X0083576Y0024527D02*
X0083576Y0022992D01*
X0084344Y0022225D01*
X0086646Y0022225D01*
X0086646Y0020690D02*
X0086646Y0025294D01*
X0084344Y0025294D01*
X0083576Y0024527D01*
X0072834Y0025294D02*
X0069765Y0025294D01*
X0071299Y0025294D02*
X0071299Y0020690D01*
X0063626Y0020690D02*
X0060557Y0020690D01*
X0062091Y0020690D02*
X0062091Y0025294D01*
X0063626Y0023759D01*
X0063626Y0028190D02*
X0062859Y0028190D01*
X0062859Y0028957D01*
X0063626Y0028957D01*
X0063626Y0028190D01*
X0065161Y0028190D02*
X0068230Y0028190D01*
X0065161Y0031259D01*
X0065161Y0032027D01*
X0065928Y0032794D01*
X0067463Y0032794D01*
X0068230Y0032027D01*
X0061324Y0032027D02*
X0061324Y0028957D01*
X0058255Y0032027D01*
X0058255Y0028957D01*
X0059022Y0028190D01*
X0060557Y0028190D01*
X0061324Y0028957D01*
X0061324Y0032027D02*
X0060557Y0032794D01*
X0059022Y0032794D01*
X0058255Y0032027D01*
X0224546Y0133517D02*
X0224546Y0135819D01*
X0225313Y0136587D01*
X0226080Y0135819D01*
X0226080Y0134285D01*
X0226848Y0133517D01*
X0227615Y0134285D01*
X0227615Y0136587D01*
X0226848Y0138121D02*
X0227615Y0138889D01*
X0227615Y0140423D01*
X0226848Y0141191D01*
X0226080Y0141191D01*
X0226080Y0138121D01*
X0225313Y0138121D02*
X0226848Y0138121D01*
X0225313Y0138121D02*
X0224546Y0138889D01*
X0224546Y0140423D01*
X0224546Y0142725D02*
X0227615Y0142725D01*
X0226080Y0142725D02*
X0227615Y0144260D01*
X0227615Y0145027D01*
X0227615Y0146562D02*
X0227615Y0147329D01*
X0224546Y0147329D01*
X0224546Y0146562D02*
X0224546Y0148096D01*
X0225313Y0149631D02*
X0226080Y0150398D01*
X0226080Y0152700D01*
X0226848Y0152700D02*
X0224546Y0152700D01*
X0224546Y0150398D01*
X0225313Y0149631D01*
X0227615Y0150398D02*
X0227615Y0151933D01*
X0226848Y0152700D01*
X0229150Y0154235D02*
X0229150Y0155002D01*
X0224546Y0155002D01*
X0224546Y0154235D02*
X0224546Y0155770D01*
X0229150Y0147329D02*
X0229917Y0147329D01*
X0232046Y0145794D02*
X0232046Y0142725D01*
X0236650Y0142725D01*
X0236650Y0141191D02*
X0236650Y0138121D01*
X0236650Y0136587D02*
X0236650Y0133517D01*
X0236650Y0135052D02*
X0232046Y0135052D01*
X0232046Y0139656D02*
X0236650Y0139656D01*
X0296743Y0129411D02*
X0296743Y0126342D01*
X0296743Y0127877D02*
X0301346Y0127877D01*
X0299812Y0126342D01*
X0300579Y0124807D02*
X0301346Y0124040D01*
X0301346Y0122505D01*
X0300579Y0121738D01*
X0297510Y0121738D01*
X0296743Y0122505D01*
X0296743Y0124040D01*
X0297510Y0124807D01*
X0296743Y0120204D02*
X0296743Y0118669D01*
X0296743Y0119436D02*
X0301346Y0119436D01*
X0301346Y0118669D02*
X0301346Y0120204D01*
X0243114Y0200710D02*
X0243114Y0205314D01*
X0240812Y0205314D01*
X0240045Y0204546D01*
X0240045Y0203012D01*
X0240812Y0202244D01*
X0243114Y0202244D01*
X0238510Y0201477D02*
X0237743Y0200710D01*
X0236208Y0200710D01*
X0235441Y0201477D01*
X0235441Y0204546D01*
X0236208Y0205314D01*
X0237743Y0205314D01*
X0238510Y0204546D01*
X0238510Y0201477D01*
X0233906Y0200710D02*
X0233906Y0205314D01*
X0231604Y0205314D01*
X0230837Y0204546D01*
X0230837Y0203012D01*
X0231604Y0202244D01*
X0233906Y0202244D01*
X0232372Y0202244D02*
X0230837Y0200710D01*
X0227768Y0200710D02*
X0227768Y0205314D01*
X0229302Y0205314D02*
X0226233Y0205314D01*
X0227000Y0208210D02*
X0228535Y0208210D01*
X0229302Y0208977D01*
X0230837Y0208210D02*
X0233906Y0208210D01*
X0230837Y0211279D01*
X0230837Y0212046D01*
X0231604Y0212814D01*
X0233139Y0212814D01*
X0233906Y0212046D01*
X0235441Y0212046D02*
X0236208Y0212814D01*
X0237743Y0212814D01*
X0238510Y0212046D01*
X0238510Y0211279D01*
X0237743Y0210512D01*
X0236208Y0210512D01*
X0235441Y0209744D01*
X0235441Y0208977D01*
X0236208Y0208210D01*
X0237743Y0208210D01*
X0238510Y0208977D01*
X0240045Y0208210D02*
X0241580Y0209744D01*
X0240812Y0209744D02*
X0243114Y0209744D01*
X0243114Y0208210D02*
X0243114Y0212814D01*
X0240812Y0212814D01*
X0240045Y0212046D01*
X0240045Y0210512D01*
X0240812Y0209744D01*
X0229302Y0212046D02*
X0228535Y0212814D01*
X0227000Y0212814D01*
X0226233Y0212046D01*
X0226233Y0211279D01*
X0227000Y0210512D01*
X0226233Y0209744D01*
X0226233Y0208977D01*
X0227000Y0208210D01*
X0224698Y0208210D02*
X0221629Y0211279D01*
X0221629Y0212046D01*
X0222396Y0212814D01*
X0223931Y0212814D01*
X0224698Y0212046D01*
X0227000Y0210512D02*
X0227768Y0210512D01*
X0224698Y0208210D02*
X0221629Y0208210D01*
X0218560Y0205314D02*
X0220095Y0203779D01*
X0220095Y0202244D01*
X0218560Y0200710D01*
X0217025Y0200710D02*
X0214723Y0200710D01*
X0213956Y0201477D01*
X0213956Y0204546D01*
X0214723Y0205314D01*
X0217025Y0205314D01*
X0217025Y0200710D01*
X0212421Y0201477D02*
X0211654Y0200710D01*
X0210119Y0200710D01*
X0209352Y0201477D01*
X0209352Y0204546D01*
X0210119Y0205314D01*
X0211654Y0205314D01*
X0212421Y0204546D01*
X0212421Y0203779D01*
X0211654Y0203012D01*
X0209352Y0203012D01*
X0207817Y0200710D02*
X0207817Y0205314D01*
X0206283Y0203779D01*
X0204748Y0205314D01*
X0204748Y0200710D01*
X0203213Y0200710D02*
X0201679Y0202244D01*
X0201679Y0203779D01*
X0203213Y0205314D01*
X0203213Y0208210D02*
X0204748Y0209744D01*
X0203981Y0209744D02*
X0206283Y0209744D01*
X0206283Y0208210D02*
X0206283Y0212814D01*
X0203981Y0212814D01*
X0203213Y0212046D01*
X0203213Y0210512D01*
X0203981Y0209744D01*
X0201679Y0208210D02*
X0200144Y0208210D01*
X0200912Y0208210D02*
X0200912Y0212814D01*
X0201679Y0212814D02*
X0200144Y0212814D01*
X0198610Y0211279D02*
X0197075Y0212814D01*
X0195540Y0211279D01*
X0195540Y0208210D01*
X0194006Y0208210D02*
X0190936Y0208210D01*
X0194006Y0208210D02*
X0194006Y0212814D01*
X0195540Y0210512D02*
X0198610Y0210512D01*
X0198610Y0211279D02*
X0198610Y0208210D01*
X0207817Y0208210D02*
X0210887Y0208210D01*
X0210887Y0212814D01*
X0207817Y0212814D01*
X0209352Y0210512D02*
X0210887Y0210512D01*
X0212421Y0209744D02*
X0212421Y0208977D01*
X0213189Y0208210D01*
X0214723Y0208210D01*
X0215491Y0208977D01*
X0214723Y0210512D02*
X0213189Y0210512D01*
X0212421Y0209744D01*
X0212421Y0212046D02*
X0213189Y0212814D01*
X0214723Y0212814D01*
X0215491Y0212046D01*
X0215491Y0211279D01*
X0214723Y0210512D01*
D12*
X0190989Y0187130D02*
X0191473Y0186646D01*
X0191473Y0185195D01*
X0188570Y0185195D01*
X0188570Y0186646D01*
X0189054Y0187130D01*
X0190989Y0187130D01*
X0191473Y0184183D02*
X0188570Y0184183D01*
X0191473Y0182248D01*
X0188570Y0182248D01*
X0189054Y0181237D02*
X0190022Y0181237D01*
X0190022Y0180269D01*
X0190989Y0179302D02*
X0189054Y0179302D01*
X0188570Y0179785D01*
X0188570Y0180753D01*
X0189054Y0181237D01*
X0190989Y0181237D02*
X0191473Y0180753D01*
X0191473Y0179785D01*
X0190989Y0179302D01*
X0203925Y0156230D02*
X0206827Y0154295D01*
X0206344Y0153284D02*
X0205376Y0153284D01*
X0204892Y0152800D01*
X0204892Y0151349D01*
X0203925Y0151349D02*
X0206827Y0151349D01*
X0206827Y0152800D01*
X0206344Y0153284D01*
X0204892Y0152316D02*
X0203925Y0153284D01*
X0203925Y0154295D02*
X0206827Y0156230D01*
X0214161Y0156230D02*
X0217063Y0154295D01*
X0217063Y0153284D02*
X0217063Y0151349D01*
X0217063Y0152316D02*
X0214161Y0152316D01*
X0214161Y0154295D02*
X0217063Y0156230D01*
X0240764Y0151783D02*
X0240764Y0150815D01*
X0241248Y0150331D01*
X0241248Y0149320D02*
X0241732Y0149320D01*
X0242215Y0148836D01*
X0242215Y0147385D01*
X0241248Y0147385D01*
X0240764Y0147869D01*
X0240764Y0148836D01*
X0241248Y0149320D01*
X0243183Y0148352D02*
X0242215Y0147385D01*
X0243183Y0148352D02*
X0243667Y0149320D01*
X0243183Y0150331D02*
X0243667Y0150815D01*
X0243667Y0151783D01*
X0243183Y0152266D01*
X0242699Y0152266D01*
X0242215Y0151783D01*
X0241732Y0152266D01*
X0241248Y0152266D01*
X0240764Y0151783D01*
X0242215Y0151783D02*
X0242215Y0151299D01*
X0241248Y0146373D02*
X0240764Y0145890D01*
X0240764Y0144922D01*
X0241248Y0144438D01*
X0243183Y0144438D01*
X0243667Y0144922D01*
X0243667Y0145890D01*
X0243183Y0146373D01*
X0240595Y0130043D02*
X0238661Y0130043D01*
X0238177Y0129559D01*
X0238177Y0128108D01*
X0241079Y0128108D01*
X0241079Y0129559D01*
X0240595Y0130043D01*
X0241079Y0127096D02*
X0238177Y0127096D01*
X0241079Y0125161D01*
X0238177Y0125161D01*
X0238661Y0124150D02*
X0239628Y0124150D01*
X0239628Y0123182D01*
X0238661Y0122215D02*
X0238177Y0122699D01*
X0238177Y0123666D01*
X0238661Y0124150D01*
X0240595Y0124150D02*
X0241079Y0123666D01*
X0241079Y0122699D01*
X0240595Y0122215D01*
X0238661Y0122215D01*
X0238177Y0118435D02*
X0241079Y0116500D01*
X0240595Y0115489D02*
X0239628Y0115489D01*
X0239144Y0115005D01*
X0239144Y0113554D01*
X0239144Y0114521D02*
X0238177Y0115489D01*
X0238177Y0116500D02*
X0241079Y0118435D01*
X0240595Y0115489D02*
X0241079Y0115005D01*
X0241079Y0113554D01*
X0238177Y0113554D01*
X0238177Y0108986D02*
X0241079Y0107051D01*
X0241079Y0106040D02*
X0241079Y0104105D01*
X0241079Y0105072D02*
X0238177Y0105072D01*
X0238177Y0107051D02*
X0241079Y0108986D01*
X0240595Y0100515D02*
X0241079Y0100032D01*
X0241079Y0099064D01*
X0240595Y0098580D01*
X0238661Y0098580D01*
X0238177Y0099064D01*
X0238177Y0100032D01*
X0238661Y0100515D01*
X0238661Y0097569D02*
X0238177Y0097085D01*
X0238177Y0096118D01*
X0238661Y0095634D01*
X0240595Y0095634D01*
X0241079Y0096118D01*
X0241079Y0097085D01*
X0240595Y0097569D01*
X0241079Y0094622D02*
X0239144Y0094622D01*
X0238177Y0093655D01*
X0239144Y0092687D01*
X0241079Y0092687D01*
X0261181Y0080358D02*
X0261181Y0079391D01*
X0261664Y0078907D01*
X0262148Y0078907D01*
X0262632Y0079391D01*
X0262632Y0080358D01*
X0262148Y0080842D01*
X0261664Y0080842D01*
X0261181Y0080358D01*
X0262632Y0080358D02*
X0263116Y0080842D01*
X0263599Y0080842D01*
X0264083Y0080358D01*
X0264083Y0079391D01*
X0263599Y0078907D01*
X0263116Y0078907D01*
X0262632Y0079391D01*
X0261181Y0077896D02*
X0261181Y0075961D01*
X0261181Y0076928D02*
X0264083Y0076928D01*
X0263116Y0075961D01*
X0263599Y0074949D02*
X0262632Y0074949D01*
X0262148Y0074465D01*
X0262148Y0073014D01*
X0261181Y0073014D02*
X0264083Y0073014D01*
X0264083Y0074465D01*
X0263599Y0074949D01*
X0262148Y0073982D02*
X0261181Y0074949D01*
X0273874Y0061383D02*
X0275809Y0063318D01*
X0276293Y0063318D01*
X0276293Y0061383D01*
X0276293Y0059404D02*
X0273390Y0059404D01*
X0273390Y0060371D02*
X0273390Y0058436D01*
X0273390Y0057425D02*
X0274358Y0056457D01*
X0274358Y0056941D02*
X0274358Y0055490D01*
X0273390Y0055490D02*
X0276293Y0055490D01*
X0276293Y0056941D01*
X0275809Y0057425D01*
X0274841Y0057425D01*
X0274358Y0056941D01*
X0275325Y0058436D02*
X0276293Y0059404D01*
X0273874Y0061383D02*
X0273390Y0061383D01*
X0252052Y0039617D02*
X0251569Y0040101D01*
X0251085Y0040101D01*
X0250601Y0039617D01*
X0250601Y0038650D01*
X0251085Y0038166D01*
X0251569Y0038166D01*
X0252052Y0038650D01*
X0252052Y0039617D01*
X0250601Y0039617D02*
X0250117Y0040101D01*
X0249634Y0040101D01*
X0249150Y0039617D01*
X0249150Y0038650D01*
X0249634Y0038166D01*
X0250117Y0038166D01*
X0250601Y0038650D01*
X0250601Y0037155D02*
X0249634Y0037155D01*
X0249150Y0036671D01*
X0249150Y0035703D01*
X0249634Y0035220D01*
X0250601Y0035220D02*
X0251085Y0036187D01*
X0251085Y0036671D01*
X0250601Y0037155D01*
X0252052Y0037155D02*
X0252052Y0035220D01*
X0250601Y0035220D01*
X0249634Y0034208D02*
X0249150Y0033724D01*
X0249150Y0032757D01*
X0249634Y0032273D01*
X0251569Y0032273D01*
X0252052Y0032757D01*
X0252052Y0033724D01*
X0251569Y0034208D01*
X0221165Y0065050D02*
X0220681Y0064566D01*
X0219714Y0064566D01*
X0219230Y0065050D01*
X0218219Y0065050D02*
X0217735Y0064566D01*
X0216767Y0064566D01*
X0216284Y0065050D01*
X0216284Y0065534D01*
X0216767Y0066017D01*
X0218219Y0066017D01*
X0218219Y0065050D01*
X0218219Y0066017D02*
X0217251Y0066985D01*
X0216284Y0067469D01*
X0215272Y0066017D02*
X0213337Y0066017D01*
X0213821Y0064566D02*
X0213821Y0067469D01*
X0215272Y0066017D01*
X0219230Y0066985D02*
X0219714Y0067469D01*
X0220681Y0067469D01*
X0221165Y0066985D01*
X0221165Y0065050D01*
X0186066Y0067242D02*
X0185449Y0066624D01*
X0184214Y0066624D01*
X0183597Y0067242D01*
X0182383Y0067242D02*
X0181765Y0066624D01*
X0180531Y0066624D01*
X0179914Y0067242D01*
X0179914Y0068476D01*
X0180531Y0069093D01*
X0181148Y0069093D01*
X0182383Y0068476D01*
X0182383Y0070328D01*
X0179914Y0070328D01*
X0178699Y0068476D02*
X0176848Y0068476D01*
X0176231Y0067859D01*
X0176231Y0067242D01*
X0176848Y0066624D01*
X0178082Y0066624D01*
X0178699Y0067242D01*
X0178699Y0068476D01*
X0177465Y0069710D01*
X0176231Y0070328D01*
X0183597Y0069710D02*
X0184214Y0070328D01*
X0185449Y0070328D01*
X0186066Y0069710D01*
X0186066Y0067242D01*
X0152225Y0067918D02*
X0152225Y0064215D01*
X0152225Y0065449D02*
X0150374Y0065449D01*
X0149757Y0066067D01*
X0149757Y0067301D01*
X0150374Y0067918D01*
X0152225Y0067918D01*
X0150991Y0065449D02*
X0149757Y0064215D01*
X0148542Y0064215D02*
X0146073Y0066684D01*
X0146073Y0067301D01*
X0146691Y0067918D01*
X0147925Y0067918D01*
X0148542Y0067301D01*
X0144859Y0067301D02*
X0144859Y0064832D01*
X0142390Y0067301D01*
X0142390Y0064832D01*
X0143008Y0064215D01*
X0144242Y0064215D01*
X0144859Y0064832D01*
X0146073Y0064215D02*
X0148542Y0064215D01*
X0144859Y0067301D02*
X0144242Y0067918D01*
X0143008Y0067918D01*
X0142390Y0067301D01*
X0111174Y0076643D02*
X0110557Y0076026D01*
X0109323Y0076026D01*
X0108705Y0076643D01*
X0107491Y0076643D02*
X0106874Y0076026D01*
X0105640Y0076026D01*
X0105022Y0076643D01*
X0105022Y0077260D01*
X0105640Y0077878D01*
X0106257Y0077878D01*
X0105640Y0077878D02*
X0105022Y0078495D01*
X0105022Y0079112D01*
X0105640Y0079729D01*
X0106874Y0079729D01*
X0107491Y0079112D01*
X0108705Y0079112D02*
X0109323Y0079729D01*
X0110557Y0079729D01*
X0111174Y0079112D01*
X0111174Y0076643D01*
X0103808Y0076643D02*
X0103191Y0076026D01*
X0101956Y0076026D01*
X0101339Y0076643D01*
X0101339Y0077260D01*
X0101956Y0077878D01*
X0103808Y0077878D01*
X0103808Y0076643D01*
X0103808Y0077878D02*
X0102574Y0079112D01*
X0101339Y0079729D01*
X0099140Y0075005D02*
X0099757Y0074388D01*
X0099757Y0071919D01*
X0099140Y0071302D01*
X0097905Y0071302D01*
X0097288Y0071919D01*
X0096074Y0073153D02*
X0093605Y0073153D01*
X0092391Y0071919D02*
X0091773Y0071302D01*
X0090539Y0071302D01*
X0089922Y0071919D01*
X0089922Y0072536D01*
X0090539Y0073153D01*
X0091156Y0073153D01*
X0090539Y0073153D02*
X0089922Y0073770D01*
X0089922Y0074388D01*
X0090539Y0075005D01*
X0091773Y0075005D01*
X0092391Y0074388D01*
X0094222Y0075005D02*
X0094222Y0071302D01*
X0096074Y0073153D02*
X0094222Y0075005D01*
X0097288Y0074388D02*
X0097905Y0075005D01*
X0099140Y0075005D01*
X0097231Y0086825D02*
X0094762Y0086825D01*
X0094145Y0087442D01*
X0094145Y0088677D01*
X0094762Y0089294D01*
X0094762Y0090508D02*
X0094145Y0091126D01*
X0094145Y0092360D01*
X0094762Y0092977D01*
X0095380Y0092977D01*
X0095997Y0092360D01*
X0095997Y0091743D01*
X0095997Y0092360D02*
X0096614Y0092977D01*
X0097231Y0092977D01*
X0097848Y0092360D01*
X0097848Y0091126D01*
X0097231Y0090508D01*
X0097231Y0089294D02*
X0097848Y0088677D01*
X0097848Y0087442D01*
X0097231Y0086825D01*
X0086302Y0089931D02*
X0084367Y0089931D01*
X0085334Y0089931D02*
X0085334Y0092834D01*
X0086302Y0091866D01*
X0085818Y0094731D02*
X0084851Y0094731D01*
X0084367Y0095215D01*
X0084367Y0097150D01*
X0086302Y0095215D01*
X0085818Y0094731D01*
X0086302Y0095215D02*
X0086302Y0097150D01*
X0085818Y0097634D01*
X0084851Y0097634D01*
X0084367Y0097150D01*
X0083355Y0096666D02*
X0083355Y0096183D01*
X0082872Y0096183D01*
X0082872Y0096666D01*
X0083355Y0096666D01*
X0083355Y0095215D02*
X0083355Y0094731D01*
X0082872Y0094731D01*
X0082872Y0095215D01*
X0083355Y0095215D01*
X0083355Y0091866D02*
X0083355Y0091383D01*
X0082872Y0091383D01*
X0082872Y0091866D01*
X0083355Y0091866D01*
X0083355Y0090415D02*
X0083355Y0089931D01*
X0082872Y0089931D01*
X0082872Y0090415D01*
X0083355Y0090415D01*
X0078936Y0089931D02*
X0077484Y0089931D01*
X0077001Y0090415D01*
X0077484Y0090899D01*
X0078452Y0090899D01*
X0078936Y0091383D01*
X0078452Y0091866D01*
X0077001Y0091866D01*
X0075989Y0091383D02*
X0075505Y0091866D01*
X0074538Y0091866D01*
X0074054Y0091383D01*
X0074054Y0090899D01*
X0075989Y0090899D01*
X0075989Y0090415D02*
X0075989Y0091383D01*
X0075989Y0090415D02*
X0075505Y0089931D01*
X0074538Y0089931D01*
X0073043Y0089931D02*
X0072075Y0089931D01*
X0072559Y0089931D02*
X0072559Y0092834D01*
X0073043Y0092834D01*
X0073043Y0094731D02*
X0071591Y0094731D01*
X0071108Y0095215D01*
X0071591Y0095699D01*
X0072559Y0095699D01*
X0073043Y0096183D01*
X0072559Y0096666D01*
X0071108Y0096666D01*
X0070096Y0096183D02*
X0068161Y0096183D01*
X0067150Y0096666D02*
X0065698Y0096666D01*
X0065215Y0096183D01*
X0065215Y0095215D01*
X0065698Y0094731D01*
X0067150Y0094731D01*
X0067150Y0093764D02*
X0067150Y0096666D01*
X0065676Y0098564D02*
X0065676Y0101466D01*
X0064225Y0101466D01*
X0063741Y0100983D01*
X0063741Y0100015D01*
X0064225Y0099531D01*
X0065676Y0099531D01*
X0062730Y0099531D02*
X0061762Y0099531D01*
X0062246Y0099531D02*
X0062246Y0101466D01*
X0062730Y0101466D01*
X0062246Y0102434D02*
X0062246Y0102918D01*
X0060765Y0101466D02*
X0060765Y0099531D01*
X0058830Y0099531D02*
X0058830Y0100983D01*
X0059314Y0101466D01*
X0060765Y0101466D01*
X0057819Y0101466D02*
X0056851Y0102434D01*
X0056851Y0099531D01*
X0055884Y0099531D02*
X0057819Y0099531D01*
X0057826Y0096666D02*
X0056859Y0096666D01*
X0056375Y0096183D01*
X0056375Y0095699D01*
X0058310Y0095699D01*
X0058310Y0096183D02*
X0057826Y0096666D01*
X0058310Y0096183D02*
X0058310Y0095215D01*
X0057826Y0094731D01*
X0056859Y0094731D01*
X0055364Y0094731D02*
X0055364Y0096666D01*
X0055364Y0095699D02*
X0054396Y0096666D01*
X0053912Y0096666D01*
X0052908Y0096183D02*
X0052424Y0096666D01*
X0051457Y0096666D01*
X0050973Y0096183D01*
X0050973Y0095699D01*
X0052908Y0095699D01*
X0052908Y0095215D02*
X0052908Y0096183D01*
X0052908Y0095215D02*
X0052424Y0094731D01*
X0051457Y0094731D01*
X0049962Y0095215D02*
X0049962Y0096183D01*
X0049478Y0096666D01*
X0048027Y0096666D01*
X0048027Y0097634D02*
X0048027Y0094731D01*
X0049478Y0094731D01*
X0049962Y0095215D01*
X0050475Y0091866D02*
X0049991Y0091383D01*
X0049991Y0090899D01*
X0051926Y0090899D01*
X0051926Y0091383D02*
X0051442Y0091866D01*
X0050475Y0091866D01*
X0051926Y0091383D02*
X0051926Y0090415D01*
X0051442Y0089931D01*
X0050475Y0089931D01*
X0048979Y0090415D02*
X0048979Y0091383D01*
X0048496Y0091866D01*
X0047044Y0091866D01*
X0047044Y0092834D02*
X0047044Y0089931D01*
X0048496Y0089931D01*
X0048979Y0090415D01*
X0052930Y0091866D02*
X0053414Y0091866D01*
X0054381Y0090899D01*
X0054381Y0091866D02*
X0054381Y0089931D01*
X0055393Y0090899D02*
X0057328Y0090899D01*
X0057328Y0091383D02*
X0056844Y0091866D01*
X0055877Y0091866D01*
X0055393Y0091383D01*
X0055393Y0090899D01*
X0055877Y0089931D02*
X0056844Y0089931D01*
X0057328Y0090415D01*
X0057328Y0091383D01*
X0058339Y0091866D02*
X0058339Y0090415D01*
X0058823Y0089931D01*
X0059307Y0090415D01*
X0059791Y0089931D01*
X0060274Y0090415D01*
X0060274Y0091866D01*
X0061286Y0091383D02*
X0061286Y0090415D01*
X0061770Y0089931D01*
X0062737Y0089931D01*
X0063221Y0090415D01*
X0063221Y0091383D01*
X0062737Y0091866D01*
X0061770Y0091866D01*
X0061286Y0091383D01*
X0064232Y0091383D02*
X0064232Y0090415D01*
X0064716Y0089931D01*
X0066167Y0089931D01*
X0066167Y0088964D02*
X0066167Y0091866D01*
X0064716Y0091866D01*
X0064232Y0091383D01*
X0067179Y0091383D02*
X0069114Y0091383D01*
X0070111Y0091383D02*
X0071078Y0091383D01*
X0070595Y0092350D02*
X0070111Y0092834D01*
X0070595Y0092350D02*
X0070595Y0089931D01*
X0074054Y0094731D02*
X0074054Y0096666D01*
X0074054Y0094731D02*
X0075505Y0094731D01*
X0075989Y0095215D01*
X0075989Y0096666D01*
X0077001Y0096183D02*
X0077484Y0096666D01*
X0078936Y0096666D01*
X0078936Y0097634D02*
X0078936Y0094731D01*
X0077484Y0094731D01*
X0077001Y0095215D01*
X0077001Y0096183D01*
X0076979Y0099531D02*
X0077462Y0100015D01*
X0076979Y0099531D02*
X0076011Y0099531D01*
X0075527Y0100015D01*
X0075527Y0100983D01*
X0076011Y0101466D01*
X0076495Y0101466D01*
X0077462Y0100983D01*
X0077462Y0102434D01*
X0075527Y0102434D01*
X0074516Y0101950D02*
X0074032Y0102434D01*
X0073065Y0102434D01*
X0072581Y0101950D01*
X0074516Y0100015D01*
X0074032Y0099531D01*
X0073065Y0099531D01*
X0072581Y0100015D01*
X0072581Y0101950D01*
X0071569Y0101950D02*
X0071569Y0100015D01*
X0071086Y0099531D01*
X0070118Y0099531D01*
X0069634Y0100015D01*
X0069634Y0100983D01*
X0070602Y0100983D01*
X0071569Y0101950D02*
X0071086Y0102434D01*
X0070118Y0102434D01*
X0069634Y0101950D01*
X0074516Y0101950D02*
X0074516Y0100015D01*
X0078474Y0100015D02*
X0078958Y0099531D01*
X0079925Y0099531D01*
X0080409Y0100015D01*
X0080409Y0100499D01*
X0079925Y0100983D01*
X0078958Y0100983D01*
X0078474Y0100499D01*
X0078474Y0100015D01*
X0078958Y0100983D02*
X0078474Y0101466D01*
X0078474Y0101950D01*
X0078958Y0102434D01*
X0079925Y0102434D01*
X0080409Y0101950D01*
X0080409Y0101466D01*
X0079925Y0100983D01*
X0081420Y0099531D02*
X0083355Y0099531D01*
X0083355Y0102434D01*
X0084367Y0101950D02*
X0084851Y0102434D01*
X0085818Y0102434D01*
X0086302Y0101950D01*
X0086302Y0100015D01*
X0085818Y0099531D01*
X0084851Y0099531D01*
X0084367Y0100015D01*
X0084367Y0100983D01*
X0085334Y0100983D01*
X0094145Y0096043D02*
X0097848Y0096043D01*
X0095997Y0094191D01*
X0095997Y0096660D01*
X0064203Y0096183D02*
X0064203Y0095215D01*
X0063719Y0094731D01*
X0062752Y0094731D01*
X0062268Y0095215D01*
X0062268Y0096183D01*
X0062752Y0096666D01*
X0063719Y0096666D01*
X0064203Y0096183D01*
X0061257Y0096666D02*
X0061257Y0095215D01*
X0060773Y0094731D01*
X0060289Y0095215D01*
X0059805Y0094731D01*
X0059322Y0095215D01*
X0059322Y0096666D01*
X0054872Y0099531D02*
X0054872Y0100015D01*
X0052937Y0101950D01*
X0052937Y0102434D01*
X0054872Y0102434D01*
X0052747Y0115128D02*
X0052264Y0115128D01*
X0051780Y0115612D01*
X0051780Y0118031D01*
X0052264Y0118031D02*
X0051296Y0118031D01*
X0050285Y0118031D02*
X0050285Y0115612D01*
X0049801Y0115128D01*
X0048833Y0115128D01*
X0048350Y0115612D01*
X0048350Y0118031D01*
X0047338Y0118031D02*
X0046371Y0117063D01*
X0045403Y0118031D01*
X0045403Y0115128D01*
X0044392Y0115128D02*
X0044392Y0118031D01*
X0042940Y0118031D01*
X0042457Y0117547D01*
X0042457Y0116580D01*
X0042940Y0116096D01*
X0044392Y0116096D01*
X0041445Y0116580D02*
X0040478Y0116580D01*
X0041445Y0118031D02*
X0039510Y0118031D01*
X0038499Y0118031D02*
X0037047Y0118031D01*
X0036564Y0117547D01*
X0036564Y0116580D01*
X0037047Y0116096D01*
X0038499Y0116096D01*
X0038499Y0115128D02*
X0038499Y0118031D01*
X0037531Y0116096D02*
X0036564Y0115128D01*
X0039510Y0115128D02*
X0041445Y0115128D01*
X0041445Y0118031D01*
X0041445Y0119928D02*
X0041445Y0122831D01*
X0039510Y0122831D01*
X0040478Y0121380D02*
X0041445Y0121380D01*
X0042457Y0119928D02*
X0044392Y0119928D01*
X0044392Y0122831D01*
X0045403Y0122831D02*
X0047338Y0122831D01*
X0047338Y0119928D01*
X0045403Y0119928D01*
X0046371Y0121380D02*
X0047338Y0121380D01*
X0048350Y0120896D02*
X0048350Y0120412D01*
X0048833Y0119928D01*
X0049801Y0119928D01*
X0050285Y0120412D01*
X0049801Y0121380D02*
X0048833Y0121380D01*
X0048350Y0120896D01*
X0048350Y0122347D02*
X0048833Y0122831D01*
X0049801Y0122831D01*
X0050285Y0122347D01*
X0050285Y0121863D01*
X0049801Y0121380D01*
X0051296Y0121380D02*
X0051780Y0120896D01*
X0053231Y0120896D01*
X0053231Y0119928D02*
X0053231Y0122831D01*
X0051780Y0122831D01*
X0051296Y0122347D01*
X0051296Y0121380D01*
X0047338Y0118031D02*
X0047338Y0115128D01*
X0052747Y0115128D02*
X0053231Y0115612D01*
X0089022Y0134025D02*
X0089022Y0134643D01*
X0091491Y0134643D01*
X0092705Y0134025D02*
X0093322Y0134643D01*
X0094557Y0134643D01*
X0095174Y0134025D01*
X0096388Y0134025D02*
X0097006Y0134643D01*
X0098240Y0134643D01*
X0098857Y0134025D01*
X0098857Y0131557D01*
X0098240Y0130939D01*
X0097006Y0130939D01*
X0096388Y0131557D01*
X0095174Y0131557D02*
X0094557Y0130939D01*
X0093322Y0130939D01*
X0092705Y0131557D01*
X0092705Y0132174D01*
X0093322Y0132791D01*
X0093940Y0132791D01*
X0093322Y0132791D02*
X0092705Y0133408D01*
X0092705Y0134025D01*
X0091491Y0131557D02*
X0091491Y0130939D01*
X0091491Y0131557D02*
X0089022Y0134025D01*
X0066074Y0154955D02*
X0066074Y0158658D01*
X0064222Y0158658D01*
X0063605Y0158041D01*
X0063605Y0156807D01*
X0064222Y0156190D01*
X0066074Y0156190D01*
X0064839Y0156190D02*
X0063605Y0154955D01*
X0062390Y0154955D02*
X0059922Y0157424D01*
X0059922Y0158041D01*
X0060539Y0158658D01*
X0061773Y0158658D01*
X0062390Y0158041D01*
X0058707Y0156807D02*
X0056239Y0156807D01*
X0056856Y0158658D02*
X0056856Y0154955D01*
X0058707Y0156807D02*
X0056856Y0158658D01*
X0059922Y0154955D02*
X0062390Y0154955D01*
X0119406Y0171982D02*
X0120023Y0171365D01*
X0121258Y0171365D01*
X0121875Y0171982D01*
X0123089Y0171982D02*
X0123706Y0171365D01*
X0124941Y0171365D01*
X0125558Y0171982D01*
X0126772Y0171982D02*
X0127390Y0171365D01*
X0128624Y0171365D01*
X0129241Y0171982D01*
X0129241Y0174451D01*
X0128624Y0175068D01*
X0127390Y0175068D01*
X0126772Y0174451D01*
X0125558Y0174451D02*
X0124941Y0175068D01*
X0123706Y0175068D01*
X0123089Y0174451D01*
X0123089Y0173833D01*
X0123706Y0173216D01*
X0123089Y0172599D01*
X0123089Y0171982D01*
X0123706Y0173216D02*
X0124324Y0173216D01*
X0121875Y0174451D02*
X0121258Y0175068D01*
X0120023Y0175068D01*
X0119406Y0174451D01*
X0119406Y0173833D01*
X0120023Y0173216D01*
X0119406Y0172599D01*
X0119406Y0171982D01*
X0120023Y0173216D02*
X0120640Y0173216D01*
X0156218Y0124737D02*
X0157452Y0124737D01*
X0158070Y0124120D01*
X0159284Y0124120D02*
X0159284Y0123503D01*
X0159901Y0122885D01*
X0159284Y0122268D01*
X0159284Y0121651D01*
X0159901Y0121034D01*
X0161135Y0121034D01*
X0161753Y0121651D01*
X0162967Y0121651D02*
X0163584Y0121034D01*
X0164819Y0121034D01*
X0165436Y0121651D01*
X0165436Y0124120D01*
X0164819Y0124737D01*
X0163584Y0124737D01*
X0162967Y0124120D01*
X0161753Y0124120D02*
X0161135Y0124737D01*
X0159901Y0124737D01*
X0159284Y0124120D01*
X0159901Y0122885D02*
X0160518Y0122885D01*
X0158070Y0121034D02*
X0155601Y0123503D01*
X0155601Y0124120D01*
X0156218Y0124737D01*
X0155601Y0121034D02*
X0158070Y0121034D01*
X0178302Y0117827D02*
X0178302Y0115892D01*
X0178785Y0115409D01*
X0179753Y0115409D01*
X0180237Y0115892D01*
X0178302Y0117827D01*
X0178785Y0118311D01*
X0179753Y0118311D01*
X0180237Y0117827D01*
X0180237Y0115892D01*
X0181248Y0115892D02*
X0181248Y0116376D01*
X0181732Y0116860D01*
X0183183Y0116860D01*
X0183183Y0115892D01*
X0182699Y0115409D01*
X0181732Y0115409D01*
X0181248Y0115892D01*
X0182216Y0117827D02*
X0183183Y0116860D01*
X0182216Y0117827D02*
X0181248Y0118311D01*
X0184195Y0117827D02*
X0184678Y0118311D01*
X0185646Y0118311D01*
X0186130Y0117827D01*
X0186130Y0115892D01*
X0185646Y0115409D01*
X0184678Y0115409D01*
X0184195Y0115892D01*
X0268238Y0157738D02*
X0268721Y0157254D01*
X0269689Y0157254D01*
X0270173Y0157738D01*
X0268238Y0159673D01*
X0268238Y0157738D01*
X0270173Y0157738D02*
X0270173Y0159673D01*
X0269689Y0160157D01*
X0268721Y0160157D01*
X0268238Y0159673D01*
X0271184Y0157254D02*
X0273119Y0157254D01*
X0272152Y0157254D02*
X0272152Y0160157D01*
X0273119Y0159189D01*
X0274131Y0159673D02*
X0274615Y0160157D01*
X0275582Y0160157D01*
X0276066Y0159673D01*
X0276066Y0157738D01*
X0275582Y0157254D01*
X0274615Y0157254D01*
X0274131Y0157738D01*
X0281026Y0146158D02*
X0282961Y0146158D01*
X0282961Y0144706D01*
X0281994Y0145190D01*
X0281510Y0145190D01*
X0281026Y0144706D01*
X0281026Y0143739D01*
X0281510Y0143255D01*
X0282477Y0143255D01*
X0282961Y0143739D01*
X0283973Y0143255D02*
X0285908Y0143255D01*
X0284940Y0143255D02*
X0284940Y0146158D01*
X0285908Y0145190D01*
X0286919Y0145674D02*
X0286919Y0144706D01*
X0287403Y0144223D01*
X0288854Y0144223D01*
X0287887Y0144223D02*
X0286919Y0143255D01*
X0288854Y0143255D02*
X0288854Y0146158D01*
X0287403Y0146158D01*
X0286919Y0145674D01*
X0279597Y0139854D02*
X0278146Y0139854D01*
X0277662Y0139370D01*
X0277662Y0138402D01*
X0278146Y0137919D01*
X0279597Y0137919D01*
X0278630Y0137919D02*
X0277662Y0136951D01*
X0276651Y0136951D02*
X0274716Y0138886D01*
X0274716Y0139370D01*
X0275199Y0139854D01*
X0276167Y0139854D01*
X0276651Y0139370D01*
X0276651Y0136951D02*
X0274716Y0136951D01*
X0273704Y0136951D02*
X0271769Y0136951D01*
X0272737Y0136951D02*
X0272737Y0139854D01*
X0273704Y0138886D01*
X0279597Y0139854D02*
X0279597Y0136951D01*
X0308256Y0134386D02*
X0308256Y0132451D01*
X0308256Y0133419D02*
X0311158Y0133419D01*
X0310190Y0132451D01*
X0308919Y0111552D02*
X0308919Y0109617D01*
X0310371Y0111068D01*
X0307468Y0111068D01*
X0306380Y0105606D02*
X0304929Y0105606D01*
X0304445Y0105123D01*
X0304445Y0104155D01*
X0304929Y0103671D01*
X0306380Y0103671D01*
X0306380Y0102704D02*
X0306380Y0105606D01*
X0305413Y0103671D02*
X0304445Y0102704D01*
X0303434Y0104155D02*
X0301499Y0104155D01*
X0301982Y0102704D02*
X0301982Y0105606D01*
X0303434Y0104155D01*
X0328115Y0101810D02*
X0328115Y0100843D01*
X0328598Y0100359D01*
X0328115Y0099347D02*
X0329082Y0098380D01*
X0329082Y0098864D02*
X0329082Y0097412D01*
X0328115Y0097412D02*
X0331017Y0097412D01*
X0331017Y0098864D01*
X0330533Y0099347D01*
X0329566Y0099347D01*
X0329082Y0098864D01*
X0330533Y0100359D02*
X0331017Y0100843D01*
X0331017Y0101810D01*
X0330533Y0102294D01*
X0330050Y0102294D01*
X0329566Y0101810D01*
X0329082Y0102294D01*
X0328598Y0102294D01*
X0328115Y0101810D01*
X0329566Y0101810D02*
X0329566Y0101326D01*
X0351394Y0102076D02*
X0351394Y0100141D01*
X0353329Y0102076D01*
X0353813Y0102076D01*
X0354297Y0101592D01*
X0354297Y0100625D01*
X0353813Y0100141D01*
X0353813Y0099129D02*
X0354297Y0098646D01*
X0354297Y0097678D01*
X0353813Y0097194D01*
X0351878Y0097194D01*
X0351394Y0097678D01*
X0351394Y0098646D01*
X0351878Y0099129D01*
X0351878Y0103087D02*
X0351394Y0103571D01*
X0351394Y0104539D01*
X0351878Y0105022D01*
X0352362Y0105022D01*
X0352845Y0104539D01*
X0352845Y0103087D01*
X0351878Y0103087D01*
X0352845Y0103087D02*
X0353813Y0104055D01*
X0354297Y0105022D01*
X0373534Y0085303D02*
X0373534Y0084820D01*
X0375469Y0082885D01*
X0375469Y0082401D01*
X0376480Y0082885D02*
X0376964Y0082401D01*
X0377932Y0082401D01*
X0378415Y0082885D01*
X0378415Y0084820D01*
X0377932Y0085303D01*
X0376964Y0085303D01*
X0376480Y0084820D01*
X0375469Y0085303D02*
X0373534Y0085303D01*
X0343441Y0080437D02*
X0342958Y0079469D01*
X0341990Y0078502D01*
X0341990Y0079953D01*
X0341506Y0080437D01*
X0341023Y0080437D01*
X0340539Y0079953D01*
X0340539Y0078985D01*
X0341023Y0078502D01*
X0341990Y0078502D01*
X0340539Y0077490D02*
X0340539Y0075555D01*
X0340539Y0076523D02*
X0343441Y0076523D01*
X0342474Y0075555D01*
X0342958Y0074544D02*
X0343441Y0074060D01*
X0343441Y0073092D01*
X0342958Y0072609D01*
X0341023Y0072609D01*
X0340539Y0073092D01*
X0340539Y0074060D01*
X0341023Y0074544D01*
X0322089Y0074392D02*
X0321606Y0073908D01*
X0320638Y0073908D01*
X0320154Y0074392D01*
X0319143Y0074392D02*
X0318659Y0073908D01*
X0317692Y0073908D01*
X0317208Y0074392D01*
X0317208Y0074875D01*
X0317692Y0075359D01*
X0319143Y0075359D01*
X0319143Y0074392D01*
X0319143Y0075359D02*
X0318175Y0076327D01*
X0317208Y0076810D01*
X0316196Y0076810D02*
X0316196Y0075359D01*
X0315229Y0075843D01*
X0314745Y0075843D01*
X0314261Y0075359D01*
X0314261Y0074392D01*
X0314745Y0073908D01*
X0315713Y0073908D01*
X0316196Y0074392D01*
X0316196Y0076810D02*
X0314261Y0076810D01*
X0320154Y0076327D02*
X0320638Y0076810D01*
X0321606Y0076810D01*
X0322089Y0076327D01*
X0322089Y0074392D01*
X0351338Y0050831D02*
X0351822Y0051315D01*
X0352306Y0051315D01*
X0352789Y0050831D01*
X0352789Y0049380D01*
X0351822Y0049380D01*
X0351338Y0049863D01*
X0351338Y0050831D01*
X0352789Y0049380D02*
X0353757Y0050347D01*
X0354241Y0051315D01*
X0354241Y0047401D02*
X0351338Y0047401D01*
X0351338Y0048368D02*
X0351338Y0046433D01*
X0351338Y0045422D02*
X0352306Y0044454D01*
X0352306Y0044938D02*
X0352306Y0043487D01*
X0351338Y0043487D02*
X0354241Y0043487D01*
X0354241Y0044938D01*
X0353757Y0045422D01*
X0352789Y0045422D01*
X0352306Y0044938D01*
X0353273Y0046433D02*
X0354241Y0047401D01*
X0317228Y0042182D02*
X0317228Y0040247D01*
X0316744Y0039763D01*
X0315777Y0039763D01*
X0315293Y0040247D01*
X0314282Y0040247D02*
X0313798Y0039763D01*
X0312830Y0039763D01*
X0312347Y0040247D01*
X0312347Y0040730D01*
X0312830Y0041214D01*
X0314282Y0041214D01*
X0314282Y0040247D01*
X0314282Y0041214D02*
X0313314Y0042182D01*
X0312347Y0042665D01*
X0311335Y0041214D02*
X0310368Y0042182D01*
X0309400Y0042665D01*
X0309884Y0041214D02*
X0311335Y0041214D01*
X0311335Y0040247D01*
X0310851Y0039763D01*
X0309884Y0039763D01*
X0309400Y0040247D01*
X0309400Y0040730D01*
X0309884Y0041214D01*
X0315293Y0042182D02*
X0315777Y0042665D01*
X0316744Y0042665D01*
X0317228Y0042182D01*
X0368506Y0141456D02*
X0369473Y0141456D01*
X0369957Y0141940D01*
X0369957Y0142907D02*
X0368990Y0143391D01*
X0368506Y0143391D01*
X0368022Y0142907D01*
X0368022Y0141940D01*
X0368506Y0141456D01*
X0369957Y0142907D02*
X0369957Y0144358D01*
X0368022Y0144358D01*
X0371936Y0144358D02*
X0371936Y0141456D01*
X0370969Y0141456D02*
X0372904Y0141456D01*
X0373915Y0141940D02*
X0374399Y0141456D01*
X0375366Y0141456D01*
X0375850Y0141940D01*
X0375850Y0143875D01*
X0375366Y0144358D01*
X0374399Y0144358D01*
X0373915Y0143875D01*
X0372904Y0143391D02*
X0371936Y0144358D01*
X0355771Y0143514D02*
X0355288Y0143031D01*
X0354320Y0143031D01*
X0353836Y0143514D01*
X0352825Y0143031D02*
X0350890Y0143031D01*
X0351857Y0143031D02*
X0351857Y0145933D01*
X0352825Y0144966D01*
X0353836Y0145449D02*
X0354320Y0145933D01*
X0355288Y0145933D01*
X0355771Y0145449D01*
X0355771Y0143514D01*
X0349878Y0143031D02*
X0347943Y0143031D01*
X0348911Y0143031D02*
X0348911Y0145933D01*
X0349878Y0144966D01*
X0350088Y0154617D02*
X0352023Y0154617D01*
X0350088Y0156552D01*
X0350088Y0157035D01*
X0350572Y0157519D01*
X0351539Y0157519D01*
X0352023Y0157035D01*
X0353035Y0157519D02*
X0354002Y0157035D01*
X0354970Y0156068D01*
X0353518Y0156068D01*
X0353035Y0155584D01*
X0353035Y0155100D01*
X0353518Y0154617D01*
X0354486Y0154617D01*
X0354970Y0155100D01*
X0354970Y0156068D01*
X0355981Y0157035D02*
X0356465Y0157519D01*
X0357432Y0157519D01*
X0357916Y0157035D01*
X0357916Y0155100D01*
X0357432Y0154617D01*
X0356465Y0154617D01*
X0355981Y0155100D01*
X0355030Y0175314D02*
X0356965Y0175314D01*
X0355030Y0177249D01*
X0355030Y0177733D01*
X0355514Y0178217D01*
X0356481Y0178217D01*
X0356965Y0177733D01*
X0358944Y0178217D02*
X0358944Y0175314D01*
X0357977Y0175314D02*
X0359912Y0175314D01*
X0360923Y0175798D02*
X0361407Y0175314D01*
X0362374Y0175314D01*
X0362858Y0175798D01*
X0362858Y0177733D01*
X0362374Y0178217D01*
X0361407Y0178217D01*
X0360923Y0177733D01*
X0359912Y0177249D02*
X0358944Y0178217D01*
X0335454Y0181532D02*
X0334970Y0181049D01*
X0333035Y0181049D01*
X0332552Y0181532D01*
X0332552Y0182500D01*
X0333035Y0182984D01*
X0332552Y0183995D02*
X0332552Y0185930D01*
X0332552Y0184963D02*
X0335454Y0184963D01*
X0334487Y0183995D01*
X0334970Y0182984D02*
X0335454Y0182500D01*
X0335454Y0181532D01*
X0335454Y0186942D02*
X0335454Y0188877D01*
X0334970Y0188877D01*
X0333035Y0186942D01*
X0332552Y0186942D01*
X0332625Y0196231D02*
X0332625Y0197683D01*
X0333109Y0198166D01*
X0334077Y0198166D01*
X0334560Y0197683D01*
X0334560Y0196231D01*
X0331658Y0196231D01*
X0332625Y0197199D02*
X0331658Y0198166D01*
X0332142Y0199178D02*
X0332625Y0199178D01*
X0333109Y0199662D01*
X0333109Y0200629D01*
X0332625Y0201113D01*
X0332142Y0201113D01*
X0331658Y0200629D01*
X0331658Y0199662D01*
X0332142Y0199178D01*
X0333109Y0199662D02*
X0333593Y0199178D01*
X0334077Y0199178D01*
X0334560Y0199662D01*
X0334560Y0200629D01*
X0334077Y0201113D01*
X0333593Y0201113D01*
X0333109Y0200629D01*
X0321281Y0199810D02*
X0321281Y0198843D01*
X0320797Y0198359D01*
X0320313Y0198359D01*
X0319830Y0198843D01*
X0319830Y0199810D01*
X0319346Y0200294D01*
X0318862Y0200294D01*
X0318378Y0199810D01*
X0318378Y0198843D01*
X0318862Y0198359D01*
X0319346Y0198359D01*
X0319830Y0198843D01*
X0319830Y0199810D02*
X0320313Y0200294D01*
X0320797Y0200294D01*
X0321281Y0199810D01*
X0318378Y0197347D02*
X0318378Y0195412D01*
X0318378Y0196380D02*
X0321281Y0196380D01*
X0320313Y0195412D01*
X0320797Y0194401D02*
X0321281Y0193917D01*
X0321281Y0192950D01*
X0320797Y0192466D01*
X0318862Y0192466D01*
X0318378Y0192950D01*
X0318378Y0193917D01*
X0318862Y0194401D01*
X0319453Y0190535D02*
X0320421Y0190535D01*
X0320904Y0190051D01*
X0320904Y0188116D01*
X0320421Y0187632D01*
X0319453Y0187632D01*
X0318969Y0188116D01*
X0317958Y0188116D02*
X0317474Y0187632D01*
X0316507Y0187632D01*
X0316023Y0188116D01*
X0316023Y0188600D01*
X0316507Y0189084D01*
X0317958Y0189084D01*
X0317958Y0188116D01*
X0317958Y0189084D02*
X0316990Y0190051D01*
X0316023Y0190535D01*
X0315011Y0190535D02*
X0313076Y0190535D01*
X0313076Y0190051D01*
X0315011Y0188116D01*
X0315011Y0187632D01*
X0318969Y0190051D02*
X0319453Y0190535D01*
X0346614Y0200967D02*
X0349516Y0200967D01*
X0349516Y0202418D01*
X0349033Y0202902D01*
X0348065Y0202902D01*
X0347581Y0202418D01*
X0347581Y0200967D01*
X0347581Y0201934D02*
X0346614Y0202902D01*
X0347098Y0203913D02*
X0346614Y0204397D01*
X0346614Y0205365D01*
X0347098Y0205848D01*
X0349033Y0205848D01*
X0349516Y0205365D01*
X0349516Y0204397D01*
X0349033Y0203913D01*
X0348549Y0203913D01*
X0348065Y0204397D01*
X0348065Y0205848D01*
X0361748Y0202609D02*
X0362232Y0203093D01*
X0362716Y0203093D01*
X0363200Y0202609D01*
X0363200Y0201158D01*
X0362232Y0201158D01*
X0361748Y0201642D01*
X0361748Y0202609D01*
X0363200Y0201158D02*
X0364167Y0202126D01*
X0364651Y0203093D01*
X0364167Y0200147D02*
X0364651Y0199663D01*
X0364651Y0198695D01*
X0364167Y0198212D01*
X0362232Y0198212D01*
X0361748Y0198695D01*
X0361748Y0199663D01*
X0362232Y0200147D01*
X0304805Y0158362D02*
X0303354Y0158362D01*
X0302870Y0157879D01*
X0302870Y0156911D01*
X0303354Y0156427D01*
X0304805Y0156427D01*
X0304805Y0155460D02*
X0304805Y0158362D01*
X0303838Y0156427D02*
X0302870Y0155460D01*
X0301859Y0155460D02*
X0299924Y0155460D01*
X0300891Y0155460D02*
X0300891Y0158362D01*
X0301859Y0157395D01*
X0287279Y0179476D02*
X0287279Y0182378D01*
X0285828Y0182378D01*
X0285344Y0181894D01*
X0285344Y0180927D01*
X0285828Y0180443D01*
X0287279Y0180443D01*
X0286312Y0180443D02*
X0285344Y0179476D01*
X0284333Y0179476D02*
X0282398Y0179476D01*
X0283365Y0179476D02*
X0283365Y0182378D01*
X0284333Y0181411D01*
X0281386Y0181894D02*
X0280903Y0182378D01*
X0279935Y0182378D01*
X0279451Y0181894D01*
X0281386Y0179959D01*
X0280903Y0179476D01*
X0279935Y0179476D01*
X0279451Y0179959D01*
X0279451Y0181894D01*
X0281386Y0181894D02*
X0281386Y0179959D01*
X0253231Y0179752D02*
X0253231Y0177817D01*
X0252747Y0177333D01*
X0251780Y0177333D01*
X0251296Y0177817D01*
X0250285Y0177817D02*
X0249801Y0177333D01*
X0248833Y0177333D01*
X0248350Y0177817D01*
X0248350Y0178784D01*
X0248833Y0179268D01*
X0249317Y0179268D01*
X0250285Y0178784D01*
X0250285Y0180236D01*
X0248350Y0180236D01*
X0251296Y0179752D02*
X0251780Y0180236D01*
X0252747Y0180236D01*
X0253231Y0179752D01*
D13*
X0130572Y0204109D02*
X0129255Y0202791D01*
X0126619Y0202791D01*
X0125301Y0204109D01*
X0125301Y0210698D01*
X0122654Y0209380D02*
X0122654Y0208062D01*
X0121336Y0206745D01*
X0118700Y0206745D01*
X0117382Y0205427D01*
X0117382Y0204109D01*
X0118700Y0202791D01*
X0121336Y0202791D01*
X0122654Y0204109D01*
X0122654Y0209380D02*
X0121336Y0210698D01*
X0118700Y0210698D01*
X0117382Y0209380D01*
X0114735Y0210698D02*
X0110782Y0210698D01*
X0109464Y0209380D01*
X0109464Y0208062D01*
X0110782Y0206745D01*
X0114735Y0206745D01*
X0114735Y0210698D02*
X0114735Y0202791D01*
X0110782Y0202791D01*
X0109464Y0204109D01*
X0109464Y0205427D01*
X0110782Y0206745D01*
X0098897Y0208062D02*
X0098897Y0202791D01*
X0096262Y0202791D02*
X0096262Y0206745D01*
X0094944Y0208062D01*
X0093626Y0206745D01*
X0093626Y0202791D01*
X0090979Y0204109D02*
X0089661Y0202791D01*
X0085707Y0202791D01*
X0085707Y0208062D01*
X0083060Y0210698D02*
X0081742Y0210698D01*
X0081742Y0202791D01*
X0083060Y0202791D02*
X0080424Y0202791D01*
X0076463Y0204109D02*
X0075145Y0202791D01*
X0076463Y0204109D02*
X0076463Y0209380D01*
X0077781Y0208062D02*
X0075145Y0208062D01*
X0072502Y0208062D02*
X0071184Y0208062D01*
X0071184Y0202791D01*
X0072502Y0202791D02*
X0069866Y0202791D01*
X0065905Y0204109D02*
X0064587Y0202791D01*
X0065905Y0204109D02*
X0065905Y0209380D01*
X0067222Y0208062D02*
X0064587Y0208062D01*
X0061943Y0206745D02*
X0061943Y0204109D01*
X0060625Y0202791D01*
X0057990Y0202791D01*
X0056672Y0204109D01*
X0056672Y0206745D01*
X0057990Y0208062D01*
X0060625Y0208062D01*
X0061943Y0206745D01*
X0054024Y0206745D02*
X0054024Y0204109D01*
X0052707Y0202791D01*
X0050071Y0202791D01*
X0048753Y0204109D01*
X0048753Y0206745D01*
X0050071Y0208062D01*
X0052707Y0208062D01*
X0054024Y0206745D01*
X0046106Y0210698D02*
X0044788Y0210698D01*
X0044788Y0202791D01*
X0046106Y0202791D02*
X0043470Y0202791D01*
X0071184Y0210698D02*
X0071184Y0212016D01*
X0090979Y0208062D02*
X0090979Y0204109D01*
X0096262Y0206745D02*
X0097580Y0208062D01*
X0098897Y0208062D01*
X0130572Y0210698D02*
X0130572Y0204109D01*
D14*
X0110258Y0195900D02*
X0110258Y0191629D01*
X0109191Y0190562D01*
X0107055Y0190562D01*
X0105988Y0191629D01*
X0105988Y0195900D01*
X0107055Y0196967D01*
X0109191Y0196967D01*
X0110258Y0195900D01*
X0103813Y0196967D02*
X0103813Y0190562D01*
X0103813Y0193765D02*
X0099542Y0193765D01*
X0097367Y0195900D02*
X0096300Y0196967D01*
X0094164Y0196967D01*
X0093097Y0195900D01*
X0093097Y0194832D01*
X0094164Y0193765D01*
X0093097Y0192697D01*
X0093097Y0191629D01*
X0094164Y0190562D01*
X0096300Y0190562D01*
X0097367Y0191629D01*
X0099542Y0190562D02*
X0099542Y0196967D01*
X0095232Y0193765D02*
X0094164Y0193765D01*
X0090922Y0193765D02*
X0086651Y0193765D01*
X0084476Y0191629D02*
X0084476Y0190562D01*
X0080206Y0190562D01*
X0078031Y0190562D02*
X0074828Y0190562D01*
X0073760Y0191629D01*
X0073760Y0192697D01*
X0074828Y0193765D01*
X0078031Y0193765D01*
X0080206Y0195900D02*
X0084476Y0191629D01*
X0086651Y0190562D02*
X0086651Y0196967D01*
X0084476Y0196967D02*
X0080206Y0196967D01*
X0080206Y0195900D01*
X0078031Y0196967D02*
X0074828Y0196967D01*
X0073760Y0195900D01*
X0073760Y0194832D01*
X0074828Y0193765D01*
X0078031Y0190562D02*
X0078031Y0196967D01*
X0090922Y0196967D02*
X0090922Y0190562D01*
X0089854Y0186467D02*
X0087719Y0186467D01*
X0086651Y0185400D01*
X0086651Y0181129D01*
X0087719Y0180062D01*
X0089854Y0180062D01*
X0090922Y0181129D01*
X0089854Y0183265D02*
X0086651Y0183265D01*
X0089854Y0183265D02*
X0090922Y0184332D01*
X0090922Y0185400D01*
X0089854Y0186467D01*
X0095232Y0186467D02*
X0097367Y0184332D01*
X0099542Y0185400D02*
X0099542Y0181129D01*
X0100610Y0180062D01*
X0102745Y0180062D01*
X0103813Y0181129D01*
X0099542Y0185400D01*
X0100610Y0186467D01*
X0102745Y0186467D01*
X0103813Y0185400D01*
X0103813Y0181129D01*
X0105988Y0180062D02*
X0110258Y0180062D01*
X0105988Y0184332D01*
X0105988Y0185400D01*
X0107055Y0186467D01*
X0109191Y0186467D01*
X0110258Y0185400D01*
X0097367Y0180062D02*
X0093097Y0180062D01*
X0095232Y0180062D02*
X0095232Y0186467D01*
X0122432Y0157943D02*
X0165432Y0157943D01*
X0165492Y0157941D01*
X0165553Y0157936D01*
X0165612Y0157927D01*
X0165671Y0157914D01*
X0165730Y0157898D01*
X0165787Y0157878D01*
X0165842Y0157855D01*
X0165897Y0157828D01*
X0165949Y0157799D01*
X0166000Y0157766D01*
X0166049Y0157730D01*
X0166095Y0157692D01*
X0166139Y0157650D01*
X0166181Y0157606D01*
X0166219Y0157560D01*
X0166255Y0157511D01*
X0166288Y0157460D01*
X0166317Y0157408D01*
X0166344Y0157353D01*
X0166367Y0157298D01*
X0166387Y0157241D01*
X0166403Y0157182D01*
X0166416Y0157123D01*
X0166425Y0157064D01*
X0166430Y0157003D01*
X0166432Y0156943D01*
X0166432Y0152943D01*
X0166432Y0143943D02*
X0166432Y0139943D01*
X0166430Y0139883D01*
X0166425Y0139822D01*
X0166416Y0139763D01*
X0166403Y0139704D01*
X0166387Y0139645D01*
X0166367Y0139588D01*
X0166344Y0139533D01*
X0166317Y0139478D01*
X0166288Y0139426D01*
X0166255Y0139375D01*
X0166219Y0139326D01*
X0166181Y0139280D01*
X0166139Y0139236D01*
X0166095Y0139194D01*
X0166049Y0139156D01*
X0166000Y0139120D01*
X0165949Y0139087D01*
X0165897Y0139058D01*
X0165842Y0139031D01*
X0165787Y0139008D01*
X0165730Y0138988D01*
X0165671Y0138972D01*
X0165612Y0138959D01*
X0165553Y0138950D01*
X0165492Y0138945D01*
X0165432Y0138943D01*
X0122432Y0138943D01*
X0122372Y0138945D01*
X0122311Y0138950D01*
X0122252Y0138959D01*
X0122193Y0138972D01*
X0122134Y0138988D01*
X0122077Y0139008D01*
X0122022Y0139031D01*
X0121967Y0139058D01*
X0121915Y0139087D01*
X0121864Y0139120D01*
X0121815Y0139156D01*
X0121769Y0139194D01*
X0121725Y0139236D01*
X0121683Y0139280D01*
X0121645Y0139326D01*
X0121609Y0139375D01*
X0121576Y0139426D01*
X0121547Y0139478D01*
X0121520Y0139533D01*
X0121497Y0139588D01*
X0121477Y0139645D01*
X0121461Y0139704D01*
X0121448Y0139763D01*
X0121439Y0139822D01*
X0121434Y0139883D01*
X0121432Y0139943D01*
X0121432Y0143943D01*
X0121432Y0152943D02*
X0121432Y0156943D01*
X0121434Y0157003D01*
X0121439Y0157064D01*
X0121448Y0157123D01*
X0121461Y0157182D01*
X0121477Y0157241D01*
X0121497Y0157298D01*
X0121520Y0157353D01*
X0121547Y0157408D01*
X0121576Y0157460D01*
X0121609Y0157511D01*
X0121645Y0157560D01*
X0121683Y0157606D01*
X0121725Y0157650D01*
X0121769Y0157692D01*
X0121815Y0157730D01*
X0121864Y0157766D01*
X0121915Y0157799D01*
X0121967Y0157828D01*
X0122022Y0157855D01*
X0122077Y0157878D01*
X0122134Y0157898D01*
X0122193Y0157914D01*
X0122252Y0157927D01*
X0122311Y0157936D01*
X0122372Y0157941D01*
X0122432Y0157943D01*
X0141432Y0150943D02*
X0141432Y0148443D01*
X0141432Y0145943D01*
X0142932Y0145943D02*
X0142932Y0150943D01*
X0144932Y0150943D01*
X0144932Y0145943D01*
X0142932Y0145943D01*
X0146432Y0145943D02*
X0146432Y0148443D01*
X0146432Y0150943D01*
X0072480Y0121522D02*
X0072480Y0115522D01*
X0072478Y0115462D01*
X0072473Y0115401D01*
X0072464Y0115342D01*
X0072451Y0115283D01*
X0072435Y0115224D01*
X0072415Y0115167D01*
X0072392Y0115112D01*
X0072365Y0115057D01*
X0072336Y0115005D01*
X0072303Y0114954D01*
X0072267Y0114905D01*
X0072229Y0114859D01*
X0072187Y0114815D01*
X0072143Y0114773D01*
X0072097Y0114735D01*
X0072048Y0114699D01*
X0071997Y0114666D01*
X0071945Y0114637D01*
X0071890Y0114610D01*
X0071835Y0114587D01*
X0071778Y0114567D01*
X0071719Y0114551D01*
X0071660Y0114538D01*
X0071601Y0114529D01*
X0071540Y0114524D01*
X0071480Y0114522D01*
X0060480Y0114522D01*
X0060420Y0114524D01*
X0060359Y0114529D01*
X0060300Y0114538D01*
X0060241Y0114551D01*
X0060182Y0114567D01*
X0060125Y0114587D01*
X0060070Y0114610D01*
X0060015Y0114637D01*
X0059963Y0114666D01*
X0059912Y0114699D01*
X0059863Y0114735D01*
X0059817Y0114773D01*
X0059773Y0114815D01*
X0059731Y0114859D01*
X0059693Y0114905D01*
X0059657Y0114954D01*
X0059624Y0115005D01*
X0059595Y0115057D01*
X0059568Y0115112D01*
X0059545Y0115167D01*
X0059525Y0115224D01*
X0059509Y0115283D01*
X0059496Y0115342D01*
X0059487Y0115401D01*
X0059482Y0115462D01*
X0059480Y0115522D01*
X0059480Y0121522D01*
X0059482Y0121582D01*
X0059487Y0121643D01*
X0059496Y0121702D01*
X0059509Y0121761D01*
X0059525Y0121820D01*
X0059545Y0121877D01*
X0059568Y0121932D01*
X0059595Y0121987D01*
X0059624Y0122039D01*
X0059657Y0122090D01*
X0059693Y0122139D01*
X0059731Y0122185D01*
X0059773Y0122229D01*
X0059817Y0122271D01*
X0059863Y0122309D01*
X0059912Y0122345D01*
X0059963Y0122378D01*
X0060015Y0122407D01*
X0060070Y0122434D01*
X0060125Y0122457D01*
X0060182Y0122477D01*
X0060241Y0122493D01*
X0060300Y0122506D01*
X0060359Y0122515D01*
X0060420Y0122520D01*
X0060480Y0122522D01*
X0071480Y0122522D01*
X0071540Y0122520D01*
X0071601Y0122515D01*
X0071660Y0122506D01*
X0071719Y0122493D01*
X0071778Y0122477D01*
X0071835Y0122457D01*
X0071890Y0122434D01*
X0071945Y0122407D01*
X0071997Y0122378D01*
X0072048Y0122345D01*
X0072097Y0122309D01*
X0072143Y0122271D01*
X0072187Y0122229D01*
X0072229Y0122185D01*
X0072267Y0122139D01*
X0072303Y0122090D01*
X0072336Y0122039D01*
X0072365Y0121987D01*
X0072392Y0121932D01*
X0072415Y0121877D01*
X0072435Y0121820D01*
X0072451Y0121761D01*
X0072464Y0121702D01*
X0072473Y0121643D01*
X0072478Y0121582D01*
X0072480Y0121522D01*
X0034078Y0173183D02*
X0023078Y0173183D01*
X0023018Y0173185D01*
X0022957Y0173190D01*
X0022898Y0173199D01*
X0022839Y0173212D01*
X0022780Y0173228D01*
X0022723Y0173248D01*
X0022668Y0173271D01*
X0022613Y0173298D01*
X0022561Y0173327D01*
X0022510Y0173360D01*
X0022461Y0173396D01*
X0022415Y0173434D01*
X0022371Y0173476D01*
X0022329Y0173520D01*
X0022291Y0173566D01*
X0022255Y0173615D01*
X0022222Y0173666D01*
X0022193Y0173718D01*
X0022166Y0173773D01*
X0022143Y0173828D01*
X0022123Y0173885D01*
X0022107Y0173944D01*
X0022094Y0174003D01*
X0022085Y0174062D01*
X0022080Y0174123D01*
X0022078Y0174183D01*
X0022078Y0180183D01*
X0022080Y0180243D01*
X0022085Y0180304D01*
X0022094Y0180363D01*
X0022107Y0180422D01*
X0022123Y0180481D01*
X0022143Y0180538D01*
X0022166Y0180593D01*
X0022193Y0180648D01*
X0022222Y0180700D01*
X0022255Y0180751D01*
X0022291Y0180800D01*
X0022329Y0180846D01*
X0022371Y0180890D01*
X0022415Y0180932D01*
X0022461Y0180970D01*
X0022510Y0181006D01*
X0022561Y0181039D01*
X0022613Y0181068D01*
X0022668Y0181095D01*
X0022723Y0181118D01*
X0022780Y0181138D01*
X0022839Y0181154D01*
X0022898Y0181167D01*
X0022957Y0181176D01*
X0023018Y0181181D01*
X0023078Y0181183D01*
X0034078Y0181183D01*
X0034138Y0181181D01*
X0034199Y0181176D01*
X0034258Y0181167D01*
X0034317Y0181154D01*
X0034376Y0181138D01*
X0034433Y0181118D01*
X0034488Y0181095D01*
X0034543Y0181068D01*
X0034595Y0181039D01*
X0034646Y0181006D01*
X0034695Y0180970D01*
X0034741Y0180932D01*
X0034785Y0180890D01*
X0034827Y0180846D01*
X0034865Y0180800D01*
X0034901Y0180751D01*
X0034934Y0180700D01*
X0034963Y0180648D01*
X0034990Y0180593D01*
X0035013Y0180538D01*
X0035033Y0180481D01*
X0035049Y0180422D01*
X0035062Y0180363D01*
X0035071Y0180304D01*
X0035076Y0180243D01*
X0035078Y0180183D01*
X0035078Y0174183D01*
X0035076Y0174123D01*
X0035071Y0174062D01*
X0035062Y0174003D01*
X0035049Y0173944D01*
X0035033Y0173885D01*
X0035013Y0173828D01*
X0034990Y0173773D01*
X0034963Y0173718D01*
X0034934Y0173666D01*
X0034901Y0173615D01*
X0034865Y0173566D01*
X0034827Y0173520D01*
X0034785Y0173476D01*
X0034741Y0173434D01*
X0034695Y0173396D01*
X0034646Y0173360D01*
X0034595Y0173327D01*
X0034543Y0173298D01*
X0034488Y0173271D01*
X0034433Y0173248D01*
X0034376Y0173228D01*
X0034317Y0173212D01*
X0034258Y0173199D01*
X0034199Y0173190D01*
X0034138Y0173185D01*
X0034078Y0173183D01*
X0025810Y0060317D02*
X0014810Y0060317D01*
X0014750Y0060315D01*
X0014689Y0060310D01*
X0014630Y0060301D01*
X0014571Y0060288D01*
X0014512Y0060272D01*
X0014455Y0060252D01*
X0014400Y0060229D01*
X0014345Y0060202D01*
X0014293Y0060173D01*
X0014242Y0060140D01*
X0014193Y0060104D01*
X0014147Y0060066D01*
X0014103Y0060024D01*
X0014061Y0059980D01*
X0014023Y0059934D01*
X0013987Y0059885D01*
X0013954Y0059834D01*
X0013925Y0059782D01*
X0013898Y0059727D01*
X0013875Y0059672D01*
X0013855Y0059615D01*
X0013839Y0059556D01*
X0013826Y0059497D01*
X0013817Y0059438D01*
X0013812Y0059377D01*
X0013810Y0059317D01*
X0013810Y0053317D01*
X0013812Y0053257D01*
X0013817Y0053196D01*
X0013826Y0053137D01*
X0013839Y0053078D01*
X0013855Y0053019D01*
X0013875Y0052962D01*
X0013898Y0052907D01*
X0013925Y0052852D01*
X0013954Y0052800D01*
X0013987Y0052749D01*
X0014023Y0052700D01*
X0014061Y0052654D01*
X0014103Y0052610D01*
X0014147Y0052568D01*
X0014193Y0052530D01*
X0014242Y0052494D01*
X0014293Y0052461D01*
X0014345Y0052432D01*
X0014400Y0052405D01*
X0014455Y0052382D01*
X0014512Y0052362D01*
X0014571Y0052346D01*
X0014630Y0052333D01*
X0014689Y0052324D01*
X0014750Y0052319D01*
X0014810Y0052317D01*
X0025810Y0052317D01*
X0025870Y0052319D01*
X0025931Y0052324D01*
X0025990Y0052333D01*
X0026049Y0052346D01*
X0026108Y0052362D01*
X0026165Y0052382D01*
X0026220Y0052405D01*
X0026275Y0052432D01*
X0026327Y0052461D01*
X0026378Y0052494D01*
X0026427Y0052530D01*
X0026473Y0052568D01*
X0026517Y0052610D01*
X0026559Y0052654D01*
X0026597Y0052700D01*
X0026633Y0052749D01*
X0026666Y0052800D01*
X0026695Y0052852D01*
X0026722Y0052907D01*
X0026745Y0052962D01*
X0026765Y0053019D01*
X0026781Y0053078D01*
X0026794Y0053137D01*
X0026803Y0053196D01*
X0026808Y0053257D01*
X0026810Y0053317D01*
X0026810Y0059317D01*
X0026808Y0059377D01*
X0026803Y0059438D01*
X0026794Y0059497D01*
X0026781Y0059556D01*
X0026765Y0059615D01*
X0026745Y0059672D01*
X0026722Y0059727D01*
X0026695Y0059782D01*
X0026666Y0059834D01*
X0026633Y0059885D01*
X0026597Y0059934D01*
X0026559Y0059980D01*
X0026517Y0060024D01*
X0026473Y0060066D01*
X0026427Y0060104D01*
X0026378Y0060140D01*
X0026327Y0060173D01*
X0026275Y0060202D01*
X0026220Y0060229D01*
X0026165Y0060252D01*
X0026108Y0060272D01*
X0026049Y0060288D01*
X0025990Y0060301D01*
X0025931Y0060310D01*
X0025870Y0060315D01*
X0025810Y0060317D01*
X0035857Y0055774D02*
X0035857Y0049774D01*
X0035859Y0049714D01*
X0035864Y0049653D01*
X0035873Y0049594D01*
X0035886Y0049535D01*
X0035902Y0049476D01*
X0035922Y0049419D01*
X0035945Y0049364D01*
X0035972Y0049309D01*
X0036001Y0049257D01*
X0036034Y0049206D01*
X0036070Y0049157D01*
X0036108Y0049111D01*
X0036150Y0049067D01*
X0036194Y0049025D01*
X0036240Y0048987D01*
X0036289Y0048951D01*
X0036340Y0048918D01*
X0036392Y0048889D01*
X0036447Y0048862D01*
X0036502Y0048839D01*
X0036559Y0048819D01*
X0036618Y0048803D01*
X0036677Y0048790D01*
X0036736Y0048781D01*
X0036797Y0048776D01*
X0036857Y0048774D01*
X0047857Y0048774D01*
X0047917Y0048776D01*
X0047978Y0048781D01*
X0048037Y0048790D01*
X0048096Y0048803D01*
X0048155Y0048819D01*
X0048212Y0048839D01*
X0048267Y0048862D01*
X0048322Y0048889D01*
X0048374Y0048918D01*
X0048425Y0048951D01*
X0048474Y0048987D01*
X0048520Y0049025D01*
X0048564Y0049067D01*
X0048606Y0049111D01*
X0048644Y0049157D01*
X0048680Y0049206D01*
X0048713Y0049257D01*
X0048742Y0049309D01*
X0048769Y0049364D01*
X0048792Y0049419D01*
X0048812Y0049476D01*
X0048828Y0049535D01*
X0048841Y0049594D01*
X0048850Y0049653D01*
X0048855Y0049714D01*
X0048857Y0049774D01*
X0048857Y0055774D01*
X0048855Y0055834D01*
X0048850Y0055895D01*
X0048841Y0055954D01*
X0048828Y0056013D01*
X0048812Y0056072D01*
X0048792Y0056129D01*
X0048769Y0056184D01*
X0048742Y0056239D01*
X0048713Y0056291D01*
X0048680Y0056342D01*
X0048644Y0056391D01*
X0048606Y0056437D01*
X0048564Y0056481D01*
X0048520Y0056523D01*
X0048474Y0056561D01*
X0048425Y0056597D01*
X0048374Y0056630D01*
X0048322Y0056659D01*
X0048267Y0056686D01*
X0048212Y0056709D01*
X0048155Y0056729D01*
X0048096Y0056745D01*
X0048037Y0056758D01*
X0047978Y0056767D01*
X0047917Y0056772D01*
X0047857Y0056774D01*
X0036857Y0056774D01*
X0036797Y0056772D01*
X0036736Y0056767D01*
X0036677Y0056758D01*
X0036618Y0056745D01*
X0036559Y0056729D01*
X0036502Y0056709D01*
X0036447Y0056686D01*
X0036392Y0056659D01*
X0036340Y0056630D01*
X0036289Y0056597D01*
X0036240Y0056561D01*
X0036194Y0056523D01*
X0036150Y0056481D01*
X0036108Y0056437D01*
X0036070Y0056391D01*
X0036034Y0056342D01*
X0036001Y0056291D01*
X0035972Y0056239D01*
X0035945Y0056184D01*
X0035922Y0056129D01*
X0035902Y0056072D01*
X0035886Y0056013D01*
X0035873Y0055954D01*
X0035864Y0055895D01*
X0035859Y0055834D01*
X0035857Y0055774D01*
X0172609Y0050400D02*
X0172609Y0039400D01*
X0172611Y0039340D01*
X0172616Y0039279D01*
X0172625Y0039220D01*
X0172638Y0039161D01*
X0172654Y0039102D01*
X0172674Y0039045D01*
X0172697Y0038990D01*
X0172724Y0038935D01*
X0172753Y0038883D01*
X0172786Y0038832D01*
X0172822Y0038783D01*
X0172860Y0038737D01*
X0172902Y0038693D01*
X0172946Y0038651D01*
X0172992Y0038613D01*
X0173041Y0038577D01*
X0173092Y0038544D01*
X0173144Y0038515D01*
X0173199Y0038488D01*
X0173254Y0038465D01*
X0173311Y0038445D01*
X0173370Y0038429D01*
X0173429Y0038416D01*
X0173488Y0038407D01*
X0173549Y0038402D01*
X0173609Y0038400D01*
X0179609Y0038400D01*
X0179669Y0038402D01*
X0179730Y0038407D01*
X0179789Y0038416D01*
X0179848Y0038429D01*
X0179907Y0038445D01*
X0179964Y0038465D01*
X0180019Y0038488D01*
X0180074Y0038515D01*
X0180126Y0038544D01*
X0180177Y0038577D01*
X0180226Y0038613D01*
X0180272Y0038651D01*
X0180316Y0038693D01*
X0180358Y0038737D01*
X0180396Y0038783D01*
X0180432Y0038832D01*
X0180465Y0038883D01*
X0180494Y0038935D01*
X0180521Y0038990D01*
X0180544Y0039045D01*
X0180564Y0039102D01*
X0180580Y0039161D01*
X0180593Y0039220D01*
X0180602Y0039279D01*
X0180607Y0039340D01*
X0180609Y0039400D01*
X0180609Y0050400D01*
X0180607Y0050460D01*
X0180602Y0050521D01*
X0180593Y0050580D01*
X0180580Y0050639D01*
X0180564Y0050698D01*
X0180544Y0050755D01*
X0180521Y0050810D01*
X0180494Y0050865D01*
X0180465Y0050917D01*
X0180432Y0050968D01*
X0180396Y0051017D01*
X0180358Y0051063D01*
X0180316Y0051107D01*
X0180272Y0051149D01*
X0180226Y0051187D01*
X0180177Y0051223D01*
X0180126Y0051256D01*
X0180074Y0051285D01*
X0180019Y0051312D01*
X0179964Y0051335D01*
X0179907Y0051355D01*
X0179848Y0051371D01*
X0179789Y0051384D01*
X0179730Y0051393D01*
X0179669Y0051398D01*
X0179609Y0051400D01*
X0173609Y0051400D01*
X0173549Y0051398D01*
X0173488Y0051393D01*
X0173429Y0051384D01*
X0173370Y0051371D01*
X0173311Y0051355D01*
X0173254Y0051335D01*
X0173199Y0051312D01*
X0173144Y0051285D01*
X0173092Y0051256D01*
X0173041Y0051223D01*
X0172992Y0051187D01*
X0172946Y0051149D01*
X0172902Y0051107D01*
X0172860Y0051063D01*
X0172822Y0051017D01*
X0172786Y0050968D01*
X0172753Y0050917D01*
X0172724Y0050865D01*
X0172697Y0050810D01*
X0172674Y0050755D01*
X0172654Y0050698D01*
X0172638Y0050639D01*
X0172625Y0050580D01*
X0172616Y0050521D01*
X0172611Y0050460D01*
X0172609Y0050400D01*
X0382058Y0053967D02*
X0382058Y0064967D01*
X0382060Y0065027D01*
X0382065Y0065088D01*
X0382074Y0065147D01*
X0382087Y0065206D01*
X0382103Y0065265D01*
X0382123Y0065322D01*
X0382146Y0065377D01*
X0382173Y0065432D01*
X0382202Y0065484D01*
X0382235Y0065535D01*
X0382271Y0065584D01*
X0382309Y0065630D01*
X0382351Y0065674D01*
X0382395Y0065716D01*
X0382441Y0065754D01*
X0382490Y0065790D01*
X0382541Y0065823D01*
X0382593Y0065852D01*
X0382648Y0065879D01*
X0382703Y0065902D01*
X0382760Y0065922D01*
X0382819Y0065938D01*
X0382878Y0065951D01*
X0382937Y0065960D01*
X0382998Y0065965D01*
X0383058Y0065967D01*
X0389058Y0065967D01*
X0389118Y0065965D01*
X0389179Y0065960D01*
X0389238Y0065951D01*
X0389297Y0065938D01*
X0389356Y0065922D01*
X0389413Y0065902D01*
X0389468Y0065879D01*
X0389523Y0065852D01*
X0389575Y0065823D01*
X0389626Y0065790D01*
X0389675Y0065754D01*
X0389721Y0065716D01*
X0389765Y0065674D01*
X0389807Y0065630D01*
X0389845Y0065584D01*
X0389881Y0065535D01*
X0389914Y0065484D01*
X0389943Y0065432D01*
X0389970Y0065377D01*
X0389993Y0065322D01*
X0390013Y0065265D01*
X0390029Y0065206D01*
X0390042Y0065147D01*
X0390051Y0065088D01*
X0390056Y0065027D01*
X0390058Y0064967D01*
X0390058Y0053967D01*
X0390056Y0053907D01*
X0390051Y0053846D01*
X0390042Y0053787D01*
X0390029Y0053728D01*
X0390013Y0053669D01*
X0389993Y0053612D01*
X0389970Y0053557D01*
X0389943Y0053502D01*
X0389914Y0053450D01*
X0389881Y0053399D01*
X0389845Y0053350D01*
X0389807Y0053304D01*
X0389765Y0053260D01*
X0389721Y0053218D01*
X0389675Y0053180D01*
X0389626Y0053144D01*
X0389575Y0053111D01*
X0389523Y0053082D01*
X0389468Y0053055D01*
X0389413Y0053032D01*
X0389356Y0053012D01*
X0389297Y0052996D01*
X0389238Y0052983D01*
X0389179Y0052974D01*
X0389118Y0052969D01*
X0389058Y0052967D01*
X0383058Y0052967D01*
X0382998Y0052969D01*
X0382937Y0052974D01*
X0382878Y0052983D01*
X0382819Y0052996D01*
X0382760Y0053012D01*
X0382703Y0053032D01*
X0382648Y0053055D01*
X0382593Y0053082D01*
X0382541Y0053111D01*
X0382490Y0053144D01*
X0382441Y0053180D01*
X0382395Y0053218D01*
X0382351Y0053260D01*
X0382309Y0053304D01*
X0382271Y0053350D01*
X0382235Y0053399D01*
X0382202Y0053450D01*
X0382173Y0053502D01*
X0382146Y0053557D01*
X0382123Y0053612D01*
X0382103Y0053669D01*
X0382087Y0053728D01*
X0382074Y0053787D01*
X0382065Y0053846D01*
X0382060Y0053907D01*
X0382058Y0053967D01*
X0380952Y0172396D02*
X0391952Y0172396D01*
X0392012Y0172398D01*
X0392073Y0172403D01*
X0392132Y0172412D01*
X0392191Y0172425D01*
X0392250Y0172441D01*
X0392307Y0172461D01*
X0392362Y0172484D01*
X0392417Y0172511D01*
X0392469Y0172540D01*
X0392520Y0172573D01*
X0392569Y0172609D01*
X0392615Y0172647D01*
X0392659Y0172689D01*
X0392701Y0172733D01*
X0392739Y0172779D01*
X0392775Y0172828D01*
X0392808Y0172879D01*
X0392837Y0172931D01*
X0392864Y0172986D01*
X0392887Y0173041D01*
X0392907Y0173098D01*
X0392923Y0173157D01*
X0392936Y0173216D01*
X0392945Y0173275D01*
X0392950Y0173336D01*
X0392952Y0173396D01*
X0392952Y0179396D01*
X0392950Y0179456D01*
X0392945Y0179517D01*
X0392936Y0179576D01*
X0392923Y0179635D01*
X0392907Y0179694D01*
X0392887Y0179751D01*
X0392864Y0179806D01*
X0392837Y0179861D01*
X0392808Y0179913D01*
X0392775Y0179964D01*
X0392739Y0180013D01*
X0392701Y0180059D01*
X0392659Y0180103D01*
X0392615Y0180145D01*
X0392569Y0180183D01*
X0392520Y0180219D01*
X0392469Y0180252D01*
X0392417Y0180281D01*
X0392362Y0180308D01*
X0392307Y0180331D01*
X0392250Y0180351D01*
X0392191Y0180367D01*
X0392132Y0180380D01*
X0392073Y0180389D01*
X0392012Y0180394D01*
X0391952Y0180396D01*
X0380952Y0180396D01*
X0380892Y0180394D01*
X0380831Y0180389D01*
X0380772Y0180380D01*
X0380713Y0180367D01*
X0380654Y0180351D01*
X0380597Y0180331D01*
X0380542Y0180308D01*
X0380487Y0180281D01*
X0380435Y0180252D01*
X0380384Y0180219D01*
X0380335Y0180183D01*
X0380289Y0180145D01*
X0380245Y0180103D01*
X0380203Y0180059D01*
X0380165Y0180013D01*
X0380129Y0179964D01*
X0380096Y0179913D01*
X0380067Y0179861D01*
X0380040Y0179806D01*
X0380017Y0179751D01*
X0379997Y0179694D01*
X0379981Y0179635D01*
X0379968Y0179576D01*
X0379959Y0179517D01*
X0379954Y0179456D01*
X0379952Y0179396D01*
X0379952Y0173396D01*
X0379954Y0173336D01*
X0379959Y0173275D01*
X0379968Y0173216D01*
X0379981Y0173157D01*
X0379997Y0173098D01*
X0380017Y0173041D01*
X0380040Y0172986D01*
X0380067Y0172931D01*
X0380096Y0172879D01*
X0380129Y0172828D01*
X0380165Y0172779D01*
X0380203Y0172733D01*
X0380245Y0172689D01*
X0380289Y0172647D01*
X0380335Y0172609D01*
X0380384Y0172573D01*
X0380435Y0172540D01*
X0380487Y0172511D01*
X0380542Y0172484D01*
X0380597Y0172461D01*
X0380654Y0172441D01*
X0380713Y0172425D01*
X0380772Y0172412D01*
X0380831Y0172403D01*
X0380892Y0172398D01*
X0380952Y0172396D01*
D15*
X0071514Y0164956D02*
X0032353Y0164956D01*
X0032353Y0165327D01*
X0047757Y0172380D01*
X0048129Y0172380D01*
X0049613Y0171452D01*
X0051284Y0170338D01*
X0052583Y0169410D01*
X0054068Y0168482D01*
X0055367Y0167740D01*
X0055738Y0167740D01*
X0055924Y0167925D01*
X0056109Y0168296D01*
X0056109Y0168854D01*
X0055738Y0169596D01*
X0054996Y0170709D01*
X0051470Y0173865D01*
X0051470Y0174050D01*
X0056481Y0176463D01*
X0057037Y0176463D01*
X0057965Y0175164D01*
X0057965Y0171637D01*
X0058151Y0169967D01*
X0058522Y0168854D01*
X0058893Y0168111D01*
X0059450Y0167740D01*
X0059821Y0167740D01*
X0060378Y0175164D01*
X0060378Y0176648D01*
X0060193Y0177020D01*
X0059636Y0177948D01*
X0063162Y0179618D01*
X0071514Y0164956D01*
X0071481Y0165014D02*
X0032353Y0165014D01*
X0032353Y0165197D02*
X0071376Y0165197D01*
X0071272Y0165381D02*
X0032470Y0165381D01*
X0032871Y0165564D02*
X0071167Y0165564D01*
X0071063Y0165748D02*
X0033272Y0165748D01*
X0033673Y0165931D02*
X0070958Y0165931D01*
X0070854Y0166115D02*
X0034074Y0166115D01*
X0034475Y0166298D02*
X0070749Y0166298D01*
X0070644Y0166482D02*
X0034876Y0166482D01*
X0035277Y0166666D02*
X0070540Y0166666D01*
X0070435Y0166849D02*
X0035678Y0166849D01*
X0036078Y0167033D02*
X0070331Y0167033D01*
X0070226Y0167216D02*
X0036479Y0167216D01*
X0036880Y0167400D02*
X0070122Y0167400D01*
X0070017Y0167583D02*
X0037281Y0167583D01*
X0037682Y0167767D02*
X0055319Y0167767D01*
X0054998Y0167950D02*
X0038083Y0167950D01*
X0038484Y0168134D02*
X0054677Y0168134D01*
X0054356Y0168318D02*
X0038885Y0168318D01*
X0039286Y0168501D02*
X0054038Y0168501D01*
X0053744Y0168685D02*
X0039687Y0168685D01*
X0040088Y0168868D02*
X0053450Y0168868D01*
X0053157Y0169052D02*
X0040489Y0169052D01*
X0040890Y0169235D02*
X0052863Y0169235D01*
X0052571Y0169419D02*
X0041291Y0169419D01*
X0041691Y0169602D02*
X0052314Y0169602D01*
X0052057Y0169786D02*
X0042092Y0169786D01*
X0042493Y0169969D02*
X0051800Y0169969D01*
X0051543Y0170153D02*
X0042894Y0170153D01*
X0043295Y0170337D02*
X0051286Y0170337D01*
X0051011Y0170520D02*
X0043696Y0170520D01*
X0044097Y0170704D02*
X0050735Y0170704D01*
X0050460Y0170887D02*
X0044498Y0170887D01*
X0044899Y0171071D02*
X0050185Y0171071D01*
X0049909Y0171254D02*
X0045300Y0171254D01*
X0045701Y0171438D02*
X0049634Y0171438D01*
X0049342Y0171621D02*
X0046102Y0171621D01*
X0046503Y0171805D02*
X0049048Y0171805D01*
X0048754Y0171989D02*
X0046903Y0171989D01*
X0047304Y0172172D02*
X0048461Y0172172D01*
X0048167Y0172356D02*
X0047705Y0172356D01*
X0044602Y0173865D02*
X0044602Y0174050D01*
X0040519Y0178504D01*
X0035323Y0169410D01*
X0044602Y0173865D01*
X0044518Y0173824D02*
X0037845Y0173824D01*
X0037740Y0173641D02*
X0044136Y0173641D01*
X0043753Y0173457D02*
X0037635Y0173457D01*
X0037530Y0173273D02*
X0043371Y0173273D01*
X0042988Y0173090D02*
X0037425Y0173090D01*
X0037321Y0172906D02*
X0042606Y0172906D01*
X0042224Y0172723D02*
X0037216Y0172723D01*
X0037111Y0172539D02*
X0041841Y0172539D01*
X0041459Y0172356D02*
X0037006Y0172356D01*
X0036901Y0172172D02*
X0041077Y0172172D01*
X0040694Y0171989D02*
X0036796Y0171989D01*
X0036691Y0171805D02*
X0040312Y0171805D01*
X0039929Y0171621D02*
X0036586Y0171621D01*
X0036481Y0171438D02*
X0039547Y0171438D01*
X0039165Y0171254D02*
X0036377Y0171254D01*
X0036272Y0171071D02*
X0038782Y0171071D01*
X0038400Y0170887D02*
X0036167Y0170887D01*
X0036062Y0170704D02*
X0038017Y0170704D01*
X0037635Y0170520D02*
X0035957Y0170520D01*
X0035852Y0170337D02*
X0037253Y0170337D01*
X0036870Y0170153D02*
X0035747Y0170153D01*
X0035642Y0169969D02*
X0036488Y0169969D01*
X0036106Y0169786D02*
X0035538Y0169786D01*
X0035433Y0169602D02*
X0035723Y0169602D01*
X0035341Y0169419D02*
X0035328Y0169419D01*
X0037950Y0174008D02*
X0044602Y0174008D01*
X0044473Y0174191D02*
X0038055Y0174191D01*
X0038160Y0174375D02*
X0044305Y0174375D01*
X0044136Y0174558D02*
X0038264Y0174558D01*
X0038369Y0174742D02*
X0043968Y0174742D01*
X0043800Y0174925D02*
X0038474Y0174925D01*
X0038579Y0175109D02*
X0043632Y0175109D01*
X0043463Y0175292D02*
X0038684Y0175292D01*
X0038789Y0175476D02*
X0043295Y0175476D01*
X0043127Y0175660D02*
X0038894Y0175660D01*
X0038999Y0175843D02*
X0042959Y0175843D01*
X0042790Y0176027D02*
X0039104Y0176027D01*
X0039208Y0176210D02*
X0042622Y0176210D01*
X0042454Y0176394D02*
X0039313Y0176394D01*
X0039418Y0176577D02*
X0042286Y0176577D01*
X0042117Y0176761D02*
X0039523Y0176761D01*
X0039628Y0176944D02*
X0041949Y0176944D01*
X0041781Y0177128D02*
X0039733Y0177128D01*
X0039838Y0177312D02*
X0041613Y0177312D01*
X0041444Y0177495D02*
X0039943Y0177495D01*
X0040047Y0177679D02*
X0041276Y0177679D01*
X0041108Y0177862D02*
X0040152Y0177862D01*
X0040257Y0178046D02*
X0040940Y0178046D01*
X0040771Y0178229D02*
X0040362Y0178229D01*
X0040467Y0178413D02*
X0040603Y0178413D01*
X0044417Y0185186D02*
X0053326Y0183515D01*
X0053511Y0183330D01*
X0057409Y0179804D01*
X0057780Y0179804D01*
X0061492Y0181659D01*
X0051841Y0198363D01*
X0044417Y0185557D01*
X0044417Y0185186D01*
X0044417Y0185204D02*
X0059444Y0185204D01*
X0059550Y0185021D02*
X0045298Y0185021D01*
X0044417Y0185388D02*
X0059338Y0185388D01*
X0059232Y0185571D02*
X0044425Y0185571D01*
X0044532Y0185755D02*
X0059125Y0185755D01*
X0059019Y0185938D02*
X0044638Y0185938D01*
X0044744Y0186122D02*
X0058913Y0186122D01*
X0058807Y0186305D02*
X0044851Y0186305D01*
X0044957Y0186489D02*
X0058701Y0186489D01*
X0058595Y0186673D02*
X0045064Y0186673D01*
X0045170Y0186856D02*
X0058489Y0186856D01*
X0058383Y0187040D02*
X0045276Y0187040D01*
X0045383Y0187223D02*
X0058277Y0187223D01*
X0058171Y0187407D02*
X0045489Y0187407D01*
X0045596Y0187590D02*
X0058065Y0187590D01*
X0057959Y0187774D02*
X0045702Y0187774D01*
X0045808Y0187957D02*
X0057853Y0187957D01*
X0057747Y0188141D02*
X0045915Y0188141D01*
X0046021Y0188325D02*
X0057641Y0188325D01*
X0057535Y0188508D02*
X0046128Y0188508D01*
X0046234Y0188692D02*
X0057429Y0188692D01*
X0057323Y0188875D02*
X0046340Y0188875D01*
X0046447Y0189059D02*
X0057216Y0189059D01*
X0057110Y0189242D02*
X0046553Y0189242D01*
X0046660Y0189426D02*
X0057004Y0189426D01*
X0056898Y0189609D02*
X0046766Y0189609D01*
X0046872Y0189793D02*
X0056792Y0189793D01*
X0056686Y0189977D02*
X0046979Y0189977D01*
X0047085Y0190160D02*
X0056580Y0190160D01*
X0056474Y0190344D02*
X0047192Y0190344D01*
X0047298Y0190527D02*
X0056368Y0190527D01*
X0056262Y0190711D02*
X0047405Y0190711D01*
X0047511Y0190894D02*
X0056156Y0190894D01*
X0056050Y0191078D02*
X0047617Y0191078D01*
X0047724Y0191261D02*
X0055944Y0191261D01*
X0055838Y0191445D02*
X0047830Y0191445D01*
X0047937Y0191628D02*
X0055732Y0191628D01*
X0055626Y0191812D02*
X0048043Y0191812D01*
X0048149Y0191996D02*
X0055520Y0191996D01*
X0055414Y0192179D02*
X0048256Y0192179D01*
X0048362Y0192363D02*
X0055307Y0192363D01*
X0055201Y0192546D02*
X0048469Y0192546D01*
X0048575Y0192730D02*
X0055095Y0192730D01*
X0054989Y0192913D02*
X0048681Y0192913D01*
X0048788Y0193097D02*
X0054883Y0193097D01*
X0054777Y0193280D02*
X0048894Y0193280D01*
X0049001Y0193464D02*
X0054671Y0193464D01*
X0054565Y0193648D02*
X0049107Y0193648D01*
X0049213Y0193831D02*
X0054459Y0193831D01*
X0054353Y0194015D02*
X0049320Y0194015D01*
X0049426Y0194198D02*
X0054247Y0194198D01*
X0054141Y0194382D02*
X0049533Y0194382D01*
X0049639Y0194565D02*
X0054035Y0194565D01*
X0053929Y0194749D02*
X0049745Y0194749D01*
X0049852Y0194932D02*
X0053823Y0194932D01*
X0053717Y0195116D02*
X0049958Y0195116D01*
X0050065Y0195299D02*
X0053611Y0195299D01*
X0053505Y0195483D02*
X0050171Y0195483D01*
X0050277Y0195667D02*
X0053399Y0195667D01*
X0053292Y0195850D02*
X0050384Y0195850D01*
X0050490Y0196034D02*
X0053186Y0196034D01*
X0053080Y0196217D02*
X0050597Y0196217D01*
X0050703Y0196401D02*
X0052974Y0196401D01*
X0052868Y0196584D02*
X0050809Y0196584D01*
X0050916Y0196768D02*
X0052762Y0196768D01*
X0052656Y0196951D02*
X0051022Y0196951D01*
X0051129Y0197135D02*
X0052550Y0197135D01*
X0052444Y0197319D02*
X0051235Y0197319D01*
X0051341Y0197502D02*
X0052338Y0197502D01*
X0052232Y0197686D02*
X0051448Y0197686D01*
X0051554Y0197869D02*
X0052126Y0197869D01*
X0052020Y0198053D02*
X0051661Y0198053D01*
X0051767Y0198236D02*
X0051914Y0198236D01*
X0049213Y0184286D02*
X0059974Y0184286D01*
X0060080Y0184103D02*
X0050192Y0184103D01*
X0051171Y0183919D02*
X0060186Y0183919D01*
X0060292Y0183736D02*
X0052150Y0183736D01*
X0053129Y0183552D02*
X0060398Y0183552D01*
X0060504Y0183369D02*
X0053472Y0183369D01*
X0053671Y0183185D02*
X0060610Y0183185D01*
X0060716Y0183002D02*
X0053874Y0183002D01*
X0054077Y0182818D02*
X0060822Y0182818D01*
X0060928Y0182634D02*
X0054280Y0182634D01*
X0054483Y0182451D02*
X0061034Y0182451D01*
X0061140Y0182267D02*
X0054685Y0182267D01*
X0054888Y0182084D02*
X0061247Y0182084D01*
X0061353Y0181900D02*
X0055091Y0181900D01*
X0055294Y0181717D02*
X0061459Y0181717D01*
X0061239Y0181533D02*
X0055497Y0181533D01*
X0055700Y0181350D02*
X0060872Y0181350D01*
X0060505Y0181166D02*
X0055903Y0181166D01*
X0056106Y0180983D02*
X0060138Y0180983D01*
X0059771Y0180799D02*
X0056308Y0180799D01*
X0056511Y0180615D02*
X0059404Y0180615D01*
X0059037Y0180432D02*
X0056714Y0180432D01*
X0056917Y0180248D02*
X0058669Y0180248D01*
X0058302Y0180065D02*
X0057120Y0180065D01*
X0057323Y0179881D02*
X0057935Y0179881D01*
X0059843Y0178046D02*
X0064058Y0178046D01*
X0063953Y0178229D02*
X0060230Y0178229D01*
X0060618Y0178413D02*
X0063849Y0178413D01*
X0063744Y0178596D02*
X0061006Y0178596D01*
X0061393Y0178780D02*
X0063639Y0178780D01*
X0063535Y0178963D02*
X0061781Y0178963D01*
X0062168Y0179147D02*
X0063430Y0179147D01*
X0063326Y0179331D02*
X0062556Y0179331D01*
X0062943Y0179514D02*
X0063221Y0179514D01*
X0064162Y0177862D02*
X0059687Y0177862D01*
X0059797Y0177679D02*
X0064267Y0177679D01*
X0064371Y0177495D02*
X0059907Y0177495D01*
X0060017Y0177312D02*
X0064476Y0177312D01*
X0064580Y0177128D02*
X0060128Y0177128D01*
X0060230Y0176944D02*
X0064685Y0176944D01*
X0064790Y0176761D02*
X0060322Y0176761D01*
X0060378Y0176577D02*
X0064894Y0176577D01*
X0064999Y0176394D02*
X0060378Y0176394D01*
X0060378Y0176210D02*
X0065103Y0176210D01*
X0065208Y0176027D02*
X0060378Y0176027D01*
X0060378Y0175843D02*
X0065312Y0175843D01*
X0065417Y0175660D02*
X0060378Y0175660D01*
X0060378Y0175476D02*
X0065521Y0175476D01*
X0065626Y0175292D02*
X0060378Y0175292D01*
X0060374Y0175109D02*
X0065730Y0175109D01*
X0065835Y0174925D02*
X0060360Y0174925D01*
X0060346Y0174742D02*
X0065940Y0174742D01*
X0066044Y0174558D02*
X0060333Y0174558D01*
X0060319Y0174375D02*
X0066149Y0174375D01*
X0066253Y0174191D02*
X0060305Y0174191D01*
X0060291Y0174008D02*
X0066358Y0174008D01*
X0066462Y0173824D02*
X0060277Y0173824D01*
X0060264Y0173641D02*
X0066567Y0173641D01*
X0066671Y0173457D02*
X0060250Y0173457D01*
X0060236Y0173273D02*
X0066776Y0173273D01*
X0066881Y0173090D02*
X0060222Y0173090D01*
X0060209Y0172906D02*
X0066985Y0172906D01*
X0067090Y0172723D02*
X0060195Y0172723D01*
X0060181Y0172539D02*
X0067194Y0172539D01*
X0067299Y0172356D02*
X0060167Y0172356D01*
X0060154Y0172172D02*
X0067403Y0172172D01*
X0067508Y0171989D02*
X0060140Y0171989D01*
X0060126Y0171805D02*
X0067612Y0171805D01*
X0067717Y0171621D02*
X0060112Y0171621D01*
X0060099Y0171438D02*
X0067822Y0171438D01*
X0067926Y0171254D02*
X0060085Y0171254D01*
X0060071Y0171071D02*
X0068031Y0171071D01*
X0068135Y0170887D02*
X0060057Y0170887D01*
X0060044Y0170704D02*
X0068240Y0170704D01*
X0068344Y0170520D02*
X0060030Y0170520D01*
X0060016Y0170337D02*
X0068449Y0170337D01*
X0068553Y0170153D02*
X0060002Y0170153D01*
X0059988Y0169969D02*
X0068658Y0169969D01*
X0068763Y0169786D02*
X0059975Y0169786D01*
X0059961Y0169602D02*
X0068867Y0169602D01*
X0068972Y0169419D02*
X0059947Y0169419D01*
X0059933Y0169235D02*
X0069076Y0169235D01*
X0069181Y0169052D02*
X0059920Y0169052D01*
X0059906Y0168868D02*
X0069285Y0168868D01*
X0069390Y0168685D02*
X0059892Y0168685D01*
X0059878Y0168501D02*
X0069494Y0168501D01*
X0069599Y0168318D02*
X0059865Y0168318D01*
X0059851Y0168134D02*
X0069704Y0168134D01*
X0069808Y0167950D02*
X0059837Y0167950D01*
X0059823Y0167767D02*
X0069913Y0167767D01*
X0059409Y0167767D02*
X0055765Y0167767D01*
X0055936Y0167950D02*
X0059134Y0167950D01*
X0058882Y0168134D02*
X0056028Y0168134D01*
X0056109Y0168318D02*
X0058790Y0168318D01*
X0058698Y0168501D02*
X0056109Y0168501D01*
X0056109Y0168685D02*
X0058607Y0168685D01*
X0058517Y0168868D02*
X0056102Y0168868D01*
X0056010Y0169052D02*
X0058456Y0169052D01*
X0058395Y0169235D02*
X0055918Y0169235D01*
X0055827Y0169419D02*
X0058334Y0169419D01*
X0058272Y0169602D02*
X0055734Y0169602D01*
X0055611Y0169786D02*
X0058211Y0169786D01*
X0058151Y0169969D02*
X0055489Y0169969D01*
X0055367Y0170153D02*
X0058130Y0170153D01*
X0058110Y0170337D02*
X0055244Y0170337D01*
X0055122Y0170520D02*
X0058089Y0170520D01*
X0058069Y0170704D02*
X0055000Y0170704D01*
X0054797Y0170887D02*
X0058049Y0170887D01*
X0058028Y0171071D02*
X0054592Y0171071D01*
X0054387Y0171254D02*
X0058008Y0171254D01*
X0057988Y0171438D02*
X0054182Y0171438D01*
X0053976Y0171621D02*
X0057967Y0171621D01*
X0057965Y0171805D02*
X0053771Y0171805D01*
X0053566Y0171989D02*
X0057965Y0171989D01*
X0057965Y0172172D02*
X0053361Y0172172D01*
X0053156Y0172356D02*
X0057965Y0172356D01*
X0057965Y0172539D02*
X0052951Y0172539D01*
X0052746Y0172723D02*
X0057965Y0172723D01*
X0057965Y0172906D02*
X0052541Y0172906D01*
X0052335Y0173090D02*
X0057965Y0173090D01*
X0057965Y0173273D02*
X0052130Y0173273D01*
X0051925Y0173457D02*
X0057965Y0173457D01*
X0057965Y0173641D02*
X0051720Y0173641D01*
X0051515Y0173824D02*
X0057965Y0173824D01*
X0057965Y0174008D02*
X0051470Y0174008D01*
X0051763Y0174191D02*
X0057965Y0174191D01*
X0057965Y0174375D02*
X0052144Y0174375D01*
X0052525Y0174558D02*
X0057965Y0174558D01*
X0057965Y0174742D02*
X0052907Y0174742D01*
X0053288Y0174925D02*
X0057965Y0174925D01*
X0057965Y0175109D02*
X0053669Y0175109D01*
X0054050Y0175292D02*
X0057873Y0175292D01*
X0057742Y0175476D02*
X0054432Y0175476D01*
X0054813Y0175660D02*
X0057611Y0175660D01*
X0057480Y0175843D02*
X0055194Y0175843D01*
X0055575Y0176027D02*
X0057349Y0176027D01*
X0057218Y0176210D02*
X0055956Y0176210D01*
X0056338Y0176394D02*
X0057087Y0176394D01*
X0054068Y0177948D02*
X0050170Y0176092D01*
X0049799Y0176648D01*
X0049613Y0177391D01*
X0049985Y0177948D01*
X0050541Y0178319D01*
X0052398Y0178876D01*
X0052769Y0178876D01*
X0054068Y0177948D01*
X0053930Y0178046D02*
X0050132Y0178046D01*
X0049928Y0177862D02*
X0053888Y0177862D01*
X0053673Y0178229D02*
X0050407Y0178229D01*
X0050855Y0178413D02*
X0053416Y0178413D01*
X0053159Y0178596D02*
X0051467Y0178596D01*
X0052079Y0178780D02*
X0052902Y0178780D01*
X0053503Y0177679D02*
X0049805Y0177679D01*
X0049683Y0177495D02*
X0053117Y0177495D01*
X0052732Y0177312D02*
X0049633Y0177312D01*
X0049679Y0177128D02*
X0052346Y0177128D01*
X0051961Y0176944D02*
X0049725Y0176944D01*
X0049771Y0176761D02*
X0051576Y0176761D01*
X0051190Y0176577D02*
X0049847Y0176577D01*
X0049969Y0176394D02*
X0050805Y0176394D01*
X0050419Y0176210D02*
X0050091Y0176210D01*
X0048234Y0184470D02*
X0059868Y0184470D01*
X0059762Y0184654D02*
X0047256Y0184654D01*
X0046277Y0184837D02*
X0059656Y0184837D01*
D16*
X0011726Y0103617D02*
X0049385Y0064975D01*
X0037596Y0071197D02*
X0039561Y0096412D01*
X0039561Y0097067D01*
X0037269Y0097067D02*
X0036941Y0097067D01*
X0036778Y0100014D01*
X0036776Y0100048D01*
X0036778Y0100083D01*
X0036783Y0100117D01*
X0036792Y0100150D01*
X0036804Y0100183D01*
X0036820Y0100214D01*
X0036838Y0100243D01*
X0036860Y0100269D01*
X0036884Y0100294D01*
X0036911Y0100316D01*
X0036940Y0100335D01*
X0036971Y0100350D01*
X0037003Y0100363D01*
X0037036Y0100372D01*
X0037070Y0100377D01*
X0037105Y0100379D01*
X0037140Y0100377D01*
X0037174Y0100372D01*
X0037207Y0100363D01*
X0037239Y0100350D01*
X0037270Y0100335D01*
X0037299Y0100316D01*
X0037326Y0100294D01*
X0037350Y0100269D01*
X0037372Y0100243D01*
X0037390Y0100214D01*
X0037406Y0100183D01*
X0037418Y0100150D01*
X0037427Y0100117D01*
X0037432Y0100083D01*
X0037434Y0100048D01*
X0037432Y0100014D01*
X0037269Y0097067D01*
X0039561Y0097067D02*
X0039559Y0097162D01*
X0039554Y0097256D01*
X0039545Y0097351D01*
X0039532Y0097445D01*
X0039515Y0097538D01*
X0039495Y0097631D01*
X0039472Y0097723D01*
X0039445Y0097814D01*
X0039414Y0097904D01*
X0039380Y0097992D01*
X0039343Y0098080D01*
X0039302Y0098165D01*
X0039258Y0098249D01*
X0039210Y0098331D01*
X0039160Y0098412D01*
X0039107Y0098490D01*
X0039050Y0098566D01*
X0038991Y0098640D01*
X0038929Y0098712D01*
X0038864Y0098781D01*
X0038796Y0098848D01*
X0038726Y0098912D01*
X0038654Y0098973D01*
X0038579Y0099032D01*
X0038578Y0099032D02*
X0038488Y0099097D01*
X0038396Y0099160D01*
X0038301Y0099219D01*
X0038205Y0099275D01*
X0038107Y0099328D01*
X0038007Y0099378D01*
X0037906Y0099425D01*
X0037803Y0099468D01*
X0037699Y0099507D01*
X0037593Y0099544D01*
X0037487Y0099576D01*
X0037379Y0099606D01*
X0037271Y0099631D01*
X0037162Y0099653D01*
X0037052Y0099672D01*
X0036941Y0099687D01*
X0032684Y0099359D02*
X0032684Y0100014D01*
X0032684Y0100669D01*
X0028427Y0100669D01*
X0028427Y0099359D01*
X0032684Y0099359D01*
X0028100Y0100014D02*
X0027772Y0100014D01*
X0024825Y0099687D02*
X0024718Y0099661D01*
X0024612Y0099631D01*
X0024508Y0099598D01*
X0024404Y0099562D01*
X0024302Y0099522D01*
X0024201Y0099479D01*
X0024101Y0099432D01*
X0024004Y0099383D01*
X0023908Y0099329D01*
X0023813Y0099273D01*
X0023721Y0099214D01*
X0023631Y0099151D01*
X0023542Y0099086D01*
X0023456Y0099018D01*
X0023373Y0098947D01*
X0023292Y0098873D01*
X0023213Y0098796D01*
X0023137Y0098717D01*
X0023063Y0098636D01*
X0022993Y0098552D01*
X0022925Y0098465D01*
X0022860Y0098377D01*
X0022532Y0097394D02*
X0024170Y0075454D01*
X0022860Y0071278D02*
X0022862Y0071358D01*
X0022868Y0071438D01*
X0022878Y0071518D01*
X0022891Y0071597D01*
X0022909Y0071676D01*
X0022930Y0071753D01*
X0022956Y0071829D01*
X0022985Y0071904D01*
X0023017Y0071978D01*
X0023053Y0072050D01*
X0023093Y0072120D01*
X0023136Y0072187D01*
X0023182Y0072253D01*
X0023232Y0072317D01*
X0023284Y0072377D01*
X0023339Y0072436D01*
X0023398Y0072491D01*
X0023458Y0072543D01*
X0023522Y0072593D01*
X0023588Y0072639D01*
X0023655Y0072682D01*
X0023725Y0072722D01*
X0023797Y0072758D01*
X0023871Y0072790D01*
X0023946Y0072819D01*
X0024022Y0072845D01*
X0024099Y0072866D01*
X0024178Y0072884D01*
X0024257Y0072897D01*
X0024337Y0072907D01*
X0024417Y0072913D01*
X0024497Y0072915D01*
X0024577Y0072913D01*
X0024657Y0072907D01*
X0024737Y0072897D01*
X0024816Y0072884D01*
X0024895Y0072866D01*
X0024972Y0072845D01*
X0025048Y0072819D01*
X0025123Y0072790D01*
X0025197Y0072758D01*
X0025269Y0072722D01*
X0025339Y0072682D01*
X0025406Y0072639D01*
X0025472Y0072593D01*
X0025536Y0072543D01*
X0025596Y0072491D01*
X0025655Y0072436D01*
X0025710Y0072377D01*
X0025762Y0072317D01*
X0025812Y0072253D01*
X0025858Y0072187D01*
X0025901Y0072120D01*
X0025941Y0072050D01*
X0025977Y0071978D01*
X0026009Y0071904D01*
X0026038Y0071829D01*
X0026064Y0071753D01*
X0026085Y0071676D01*
X0026103Y0071597D01*
X0026116Y0071518D01*
X0026126Y0071438D01*
X0026132Y0071358D01*
X0026134Y0071278D01*
X0026132Y0071198D01*
X0026126Y0071118D01*
X0026116Y0071038D01*
X0026103Y0070959D01*
X0026085Y0070880D01*
X0026064Y0070803D01*
X0026038Y0070727D01*
X0026009Y0070652D01*
X0025977Y0070578D01*
X0025941Y0070506D01*
X0025901Y0070436D01*
X0025858Y0070369D01*
X0025812Y0070303D01*
X0025762Y0070239D01*
X0025710Y0070179D01*
X0025655Y0070120D01*
X0025596Y0070065D01*
X0025536Y0070013D01*
X0025472Y0069963D01*
X0025406Y0069917D01*
X0025339Y0069874D01*
X0025269Y0069834D01*
X0025197Y0069798D01*
X0025123Y0069766D01*
X0025048Y0069737D01*
X0024972Y0069711D01*
X0024895Y0069690D01*
X0024816Y0069672D01*
X0024737Y0069659D01*
X0024657Y0069649D01*
X0024577Y0069643D01*
X0024497Y0069641D01*
X0024417Y0069643D01*
X0024337Y0069649D01*
X0024257Y0069659D01*
X0024178Y0069672D01*
X0024099Y0069690D01*
X0024022Y0069711D01*
X0023946Y0069737D01*
X0023871Y0069766D01*
X0023797Y0069798D01*
X0023725Y0069834D01*
X0023655Y0069874D01*
X0023588Y0069917D01*
X0023522Y0069963D01*
X0023458Y0070013D01*
X0023398Y0070065D01*
X0023339Y0070120D01*
X0023284Y0070179D01*
X0023232Y0070239D01*
X0023182Y0070303D01*
X0023136Y0070369D01*
X0023093Y0070436D01*
X0023053Y0070506D01*
X0023017Y0070578D01*
X0022985Y0070652D01*
X0022956Y0070727D01*
X0022930Y0070803D01*
X0022909Y0070880D01*
X0022891Y0070959D01*
X0022878Y0071038D01*
X0022868Y0071118D01*
X0022862Y0071198D01*
X0022860Y0071278D01*
X0021545Y0071278D02*
X0021547Y0071386D01*
X0021553Y0071495D01*
X0021563Y0071603D01*
X0021577Y0071710D01*
X0021595Y0071817D01*
X0021616Y0071924D01*
X0021642Y0072029D01*
X0021672Y0072133D01*
X0021705Y0072237D01*
X0021742Y0072338D01*
X0021783Y0072439D01*
X0021827Y0072538D01*
X0021875Y0072635D01*
X0021927Y0072730D01*
X0021982Y0072824D01*
X0022041Y0072915D01*
X0022102Y0073004D01*
X0022167Y0073091D01*
X0022236Y0073176D01*
X0022307Y0073257D01*
X0022381Y0073336D01*
X0022458Y0073413D01*
X0022538Y0073486D01*
X0022620Y0073557D01*
X0022705Y0073624D01*
X0022793Y0073688D01*
X0022882Y0073749D01*
X0022974Y0073807D01*
X0023068Y0073861D01*
X0023164Y0073912D01*
X0023262Y0073959D01*
X0023361Y0074003D01*
X0023462Y0074043D01*
X0023564Y0074079D01*
X0023668Y0074111D01*
X0023772Y0074140D01*
X0023878Y0074164D01*
X0023984Y0074185D01*
X0024092Y0074202D01*
X0024199Y0074215D01*
X0024307Y0074224D01*
X0024416Y0074229D01*
X0024524Y0074230D01*
X0024633Y0074227D01*
X0024741Y0074220D01*
X0024849Y0074209D01*
X0024956Y0074194D01*
X0025063Y0074175D01*
X0025169Y0074152D01*
X0025274Y0074126D01*
X0025378Y0074095D01*
X0025481Y0074061D01*
X0025583Y0074023D01*
X0025683Y0073981D01*
X0025781Y0073936D01*
X0025878Y0073887D01*
X0025973Y0073835D01*
X0026066Y0073779D01*
X0026157Y0073719D01*
X0026245Y0073657D01*
X0026331Y0073591D01*
X0026415Y0073522D01*
X0026496Y0073450D01*
X0026575Y0073375D01*
X0026650Y0073297D01*
X0026723Y0073217D01*
X0026793Y0073134D01*
X0026859Y0073048D01*
X0026923Y0072960D01*
X0026983Y0072870D01*
X0027040Y0072777D01*
X0027093Y0072683D01*
X0027143Y0072587D01*
X0027189Y0072489D01*
X0027232Y0072389D01*
X0027271Y0072288D01*
X0027306Y0072185D01*
X0027338Y0072081D01*
X0027365Y0071976D01*
X0027389Y0071871D01*
X0027409Y0071764D01*
X0027425Y0071657D01*
X0027437Y0071549D01*
X0027445Y0071441D01*
X0027449Y0071332D01*
X0027449Y0071224D01*
X0027445Y0071115D01*
X0027437Y0071007D01*
X0027425Y0070899D01*
X0027409Y0070792D01*
X0027389Y0070685D01*
X0027365Y0070580D01*
X0027338Y0070475D01*
X0027306Y0070371D01*
X0027271Y0070268D01*
X0027232Y0070167D01*
X0027189Y0070067D01*
X0027143Y0069969D01*
X0027093Y0069873D01*
X0027040Y0069779D01*
X0026983Y0069686D01*
X0026923Y0069596D01*
X0026859Y0069508D01*
X0026793Y0069422D01*
X0026723Y0069339D01*
X0026650Y0069259D01*
X0026575Y0069181D01*
X0026496Y0069106D01*
X0026415Y0069034D01*
X0026331Y0068965D01*
X0026245Y0068899D01*
X0026157Y0068837D01*
X0026066Y0068777D01*
X0025973Y0068721D01*
X0025878Y0068669D01*
X0025781Y0068620D01*
X0025683Y0068575D01*
X0025583Y0068533D01*
X0025481Y0068495D01*
X0025378Y0068461D01*
X0025274Y0068430D01*
X0025169Y0068404D01*
X0025063Y0068381D01*
X0024956Y0068362D01*
X0024849Y0068347D01*
X0024741Y0068336D01*
X0024633Y0068329D01*
X0024524Y0068326D01*
X0024416Y0068327D01*
X0024307Y0068332D01*
X0024199Y0068341D01*
X0024092Y0068354D01*
X0023984Y0068371D01*
X0023878Y0068392D01*
X0023772Y0068416D01*
X0023668Y0068445D01*
X0023564Y0068477D01*
X0023462Y0068513D01*
X0023361Y0068553D01*
X0023262Y0068597D01*
X0023164Y0068644D01*
X0023068Y0068695D01*
X0022974Y0068749D01*
X0022882Y0068807D01*
X0022793Y0068868D01*
X0022705Y0068932D01*
X0022620Y0068999D01*
X0022538Y0069070D01*
X0022458Y0069143D01*
X0022381Y0069220D01*
X0022307Y0069299D01*
X0022236Y0069380D01*
X0022167Y0069465D01*
X0022102Y0069552D01*
X0022041Y0069641D01*
X0021982Y0069732D01*
X0021927Y0069826D01*
X0021875Y0069921D01*
X0021827Y0070018D01*
X0021783Y0070117D01*
X0021742Y0070218D01*
X0021705Y0070319D01*
X0021672Y0070423D01*
X0021642Y0070527D01*
X0021616Y0070632D01*
X0021595Y0070739D01*
X0021577Y0070846D01*
X0021563Y0070953D01*
X0021553Y0071061D01*
X0021547Y0071170D01*
X0021545Y0071278D01*
X0027772Y0070214D02*
X0036614Y0070214D01*
X0036613Y0070214D02*
X0036675Y0070216D01*
X0036737Y0070222D01*
X0036798Y0070231D01*
X0036858Y0070245D01*
X0036917Y0070262D01*
X0036975Y0070283D01*
X0037032Y0070308D01*
X0037087Y0070336D01*
X0037140Y0070367D01*
X0037191Y0070402D01*
X0037240Y0070440D01*
X0037286Y0070481D01*
X0037330Y0070524D01*
X0037371Y0070571D01*
X0037408Y0070619D01*
X0037443Y0070670D01*
X0037474Y0070724D01*
X0037502Y0070779D01*
X0037527Y0070835D01*
X0037548Y0070893D01*
X0037565Y0070953D01*
X0037579Y0071013D01*
X0037588Y0071074D01*
X0037594Y0071135D01*
X0037596Y0071197D01*
X0027772Y0100014D02*
X0027474Y0100011D01*
X0027178Y0100001D01*
X0026881Y0099984D01*
X0026585Y0099961D01*
X0026289Y0099932D01*
X0025994Y0099896D01*
X0025700Y0099853D01*
X0025407Y0099804D01*
X0025115Y0099748D01*
X0024824Y0099686D01*
X0022860Y0098377D02*
X0022815Y0098310D01*
X0022773Y0098241D01*
X0022734Y0098170D01*
X0022698Y0098098D01*
X0022666Y0098024D01*
X0022637Y0097949D01*
X0022611Y0097872D01*
X0022589Y0097794D01*
X0022571Y0097716D01*
X0022556Y0097636D01*
X0022544Y0097556D01*
X0022537Y0097476D01*
X0022533Y0097395D01*
X0019585Y0097558D02*
X0019587Y0097635D01*
X0019593Y0097711D01*
X0019603Y0097787D01*
X0019617Y0097862D01*
X0019634Y0097936D01*
X0019656Y0098010D01*
X0019681Y0098082D01*
X0019710Y0098153D01*
X0019743Y0098222D01*
X0019779Y0098289D01*
X0019819Y0098355D01*
X0019862Y0098418D01*
X0019908Y0098479D01*
X0019958Y0098538D01*
X0020010Y0098593D01*
X0020065Y0098647D01*
X0020123Y0098697D01*
X0020183Y0098744D01*
X0020246Y0098788D01*
X0020311Y0098828D01*
X0020378Y0098865D01*
X0020447Y0098899D01*
X0020517Y0098929D01*
X0020589Y0098955D01*
X0020662Y0098978D01*
X0020736Y0098996D01*
X0020811Y0099011D01*
X0020887Y0099022D01*
X0020963Y0099029D01*
X0021040Y0099032D01*
X0021116Y0099031D01*
X0021193Y0099026D01*
X0021269Y0099017D01*
X0021344Y0099004D01*
X0021419Y0098987D01*
X0021493Y0098967D01*
X0021565Y0098942D01*
X0021636Y0098914D01*
X0021706Y0098882D01*
X0021774Y0098847D01*
X0021840Y0098808D01*
X0021904Y0098766D01*
X0021965Y0098721D01*
X0022024Y0098672D01*
X0022081Y0098620D01*
X0022135Y0098566D01*
X0022185Y0098509D01*
X0022233Y0098449D01*
X0022278Y0098387D01*
X0022319Y0098322D01*
X0022357Y0098256D01*
X0022392Y0098188D01*
X0022423Y0098118D01*
X0022450Y0098046D01*
X0022473Y0097973D01*
X0022493Y0097899D01*
X0022509Y0097824D01*
X0022521Y0097749D01*
X0022529Y0097673D01*
X0022533Y0097596D01*
X0022533Y0097520D01*
X0022529Y0097443D01*
X0022521Y0097367D01*
X0022509Y0097292D01*
X0022493Y0097217D01*
X0022473Y0097143D01*
X0022450Y0097070D01*
X0022423Y0096998D01*
X0022392Y0096928D01*
X0022357Y0096860D01*
X0022319Y0096794D01*
X0022278Y0096729D01*
X0022233Y0096667D01*
X0022185Y0096607D01*
X0022135Y0096550D01*
X0022081Y0096496D01*
X0022024Y0096444D01*
X0021965Y0096395D01*
X0021904Y0096350D01*
X0021840Y0096308D01*
X0021774Y0096269D01*
X0021706Y0096234D01*
X0021636Y0096202D01*
X0021565Y0096174D01*
X0021493Y0096149D01*
X0021419Y0096129D01*
X0021344Y0096112D01*
X0021269Y0096099D01*
X0021193Y0096090D01*
X0021116Y0096085D01*
X0021040Y0096084D01*
X0020963Y0096087D01*
X0020887Y0096094D01*
X0020811Y0096105D01*
X0020736Y0096120D01*
X0020662Y0096138D01*
X0020589Y0096161D01*
X0020517Y0096187D01*
X0020447Y0096217D01*
X0020378Y0096251D01*
X0020311Y0096288D01*
X0020246Y0096328D01*
X0020183Y0096372D01*
X0020123Y0096419D01*
X0020065Y0096469D01*
X0020010Y0096523D01*
X0019958Y0096578D01*
X0019908Y0096637D01*
X0019862Y0096698D01*
X0019819Y0096761D01*
X0019779Y0096827D01*
X0019743Y0096894D01*
X0019710Y0096963D01*
X0019681Y0097034D01*
X0019656Y0097106D01*
X0019634Y0097180D01*
X0019617Y0097254D01*
X0019603Y0097329D01*
X0019593Y0097405D01*
X0019587Y0097481D01*
X0019585Y0097558D01*
X0020568Y0094202D02*
X0022450Y0094202D01*
X0020568Y0094202D02*
X0020568Y0090845D01*
X0022614Y0090845D01*
X0014346Y0064647D02*
X0050368Y0103289D01*
X0036941Y0099686D02*
X0035880Y0099801D01*
X0034816Y0099893D01*
X0033751Y0099965D01*
X0032684Y0100014D01*
D17*
X0032070Y0096862D03*
D18*
X0029860Y0089535D03*
D19*
X0036123Y0069109D03*
D20*
X0112926Y0114171D02*
X0112928Y0114242D01*
X0112934Y0114313D01*
X0112944Y0114384D01*
X0112958Y0114454D01*
X0112975Y0114523D01*
X0112997Y0114591D01*
X0113022Y0114657D01*
X0113051Y0114723D01*
X0113083Y0114786D01*
X0113119Y0114848D01*
X0113158Y0114907D01*
X0113201Y0114964D01*
X0113247Y0115019D01*
X0113295Y0115071D01*
X0113347Y0115121D01*
X0113401Y0115167D01*
X0113457Y0115210D01*
X0113516Y0115250D01*
X0113577Y0115287D01*
X0113640Y0115320D01*
X0113705Y0115350D01*
X0113771Y0115376D01*
X0113839Y0115399D01*
X0113908Y0115417D01*
X0113978Y0115432D01*
X0114048Y0115443D01*
X0114119Y0115450D01*
X0114190Y0115453D01*
X0114261Y0115452D01*
X0114333Y0115447D01*
X0114403Y0115438D01*
X0114473Y0115425D01*
X0114543Y0115409D01*
X0114611Y0115388D01*
X0114678Y0115364D01*
X0114744Y0115336D01*
X0114807Y0115304D01*
X0114869Y0115269D01*
X0114929Y0115231D01*
X0114987Y0115189D01*
X0115043Y0115144D01*
X0115095Y0115096D01*
X0115145Y0115045D01*
X0115193Y0114992D01*
X0115237Y0114936D01*
X0115278Y0114878D01*
X0115315Y0114817D01*
X0115349Y0114755D01*
X0115380Y0114690D01*
X0115407Y0114624D01*
X0115431Y0114557D01*
X0115450Y0114488D01*
X0115466Y0114419D01*
X0115478Y0114349D01*
X0115486Y0114278D01*
X0115490Y0114207D01*
X0115490Y0114135D01*
X0115486Y0114064D01*
X0115478Y0113993D01*
X0115466Y0113923D01*
X0115450Y0113854D01*
X0115431Y0113785D01*
X0115407Y0113718D01*
X0115380Y0113652D01*
X0115349Y0113587D01*
X0115315Y0113525D01*
X0115278Y0113464D01*
X0115237Y0113406D01*
X0115193Y0113350D01*
X0115145Y0113297D01*
X0115095Y0113246D01*
X0115043Y0113198D01*
X0114987Y0113153D01*
X0114929Y0113111D01*
X0114869Y0113073D01*
X0114807Y0113038D01*
X0114744Y0113006D01*
X0114678Y0112978D01*
X0114611Y0112954D01*
X0114543Y0112933D01*
X0114473Y0112917D01*
X0114403Y0112904D01*
X0114333Y0112895D01*
X0114261Y0112890D01*
X0114190Y0112889D01*
X0114119Y0112892D01*
X0114048Y0112899D01*
X0113978Y0112910D01*
X0113908Y0112925D01*
X0113839Y0112943D01*
X0113771Y0112966D01*
X0113705Y0112992D01*
X0113640Y0113022D01*
X0113577Y0113055D01*
X0113516Y0113092D01*
X0113457Y0113132D01*
X0113401Y0113175D01*
X0113347Y0113221D01*
X0113295Y0113271D01*
X0113247Y0113323D01*
X0113201Y0113378D01*
X0113158Y0113435D01*
X0113119Y0113494D01*
X0113083Y0113556D01*
X0113051Y0113619D01*
X0113022Y0113685D01*
X0112997Y0113751D01*
X0112975Y0113819D01*
X0112958Y0113888D01*
X0112944Y0113958D01*
X0112934Y0114029D01*
X0112928Y0114100D01*
X0112926Y0114171D01*
X0222279Y0088994D02*
X0222279Y0080333D01*
X0222279Y0088994D02*
X0244720Y0088994D01*
X0248263Y0085451D01*
X0248263Y0080333D01*
X0248263Y0071671D02*
X0248263Y0066553D01*
X0244720Y0063010D01*
X0222279Y0063010D01*
X0222279Y0071671D01*
X0223657Y0072262D02*
X0223751Y0071981D01*
X0223853Y0071702D01*
X0223961Y0071426D01*
X0224076Y0071153D01*
X0224197Y0070882D01*
X0224325Y0070615D01*
X0224460Y0070350D01*
X0224601Y0070089D01*
X0224748Y0069832D01*
X0224901Y0069578D01*
X0225061Y0069328D01*
X0225226Y0069082D01*
X0225398Y0068840D01*
X0225575Y0068603D01*
X0225758Y0068369D01*
X0225947Y0068141D01*
X0226142Y0067916D01*
X0226341Y0067697D01*
X0226546Y0067483D01*
X0226756Y0067274D01*
X0226971Y0067070D01*
X0227192Y0066871D01*
X0227416Y0066677D01*
X0227646Y0066490D01*
X0227880Y0066307D01*
X0228118Y0066131D01*
X0228361Y0065960D01*
X0228607Y0065796D01*
X0228858Y0065637D01*
X0229112Y0065485D01*
X0229371Y0065339D01*
X0229632Y0065199D01*
X0229897Y0065065D01*
X0230165Y0064938D01*
X0230436Y0064818D01*
X0230710Y0064704D01*
X0230986Y0064597D01*
X0231266Y0064497D01*
X0231547Y0064404D01*
X0231831Y0064317D01*
X0232116Y0064238D01*
X0232404Y0064165D01*
X0232693Y0064099D01*
X0232984Y0064041D01*
X0233276Y0063990D01*
X0233569Y0063945D01*
X0233863Y0063908D01*
X0234158Y0063878D01*
X0234454Y0063855D01*
X0234750Y0063840D01*
X0235047Y0063832D01*
X0235343Y0063830D01*
X0235640Y0063837D01*
X0235936Y0063850D01*
X0236232Y0063870D01*
X0236527Y0063898D01*
X0236821Y0063933D01*
X0237115Y0063975D01*
X0237407Y0064025D01*
X0237699Y0064081D01*
X0237988Y0064144D01*
X0238276Y0064215D01*
X0238563Y0064292D01*
X0238847Y0064377D01*
X0239129Y0064468D01*
X0239409Y0064566D01*
X0239686Y0064671D01*
X0239961Y0064783D01*
X0240233Y0064901D01*
X0240502Y0065026D01*
X0240768Y0065158D01*
X0241030Y0065295D01*
X0241289Y0065440D01*
X0241545Y0065590D01*
X0241797Y0065747D01*
X0242045Y0065910D01*
X0242288Y0066078D01*
X0242528Y0066253D01*
X0242763Y0066434D01*
X0242994Y0066620D01*
X0243221Y0066811D01*
X0243442Y0067008D01*
X0243659Y0067211D01*
X0243870Y0067419D01*
X0244077Y0067631D01*
X0244278Y0067849D01*
X0244474Y0068072D01*
X0244665Y0068299D01*
X0244850Y0068531D01*
X0245029Y0068767D01*
X0245202Y0069008D01*
X0245369Y0069253D01*
X0245531Y0069502D01*
X0245686Y0069754D01*
X0245835Y0070011D01*
X0245978Y0070270D01*
X0246115Y0070534D01*
X0246245Y0070800D01*
X0246368Y0071070D01*
X0246485Y0071342D01*
X0246595Y0071618D01*
X0246698Y0071896D01*
X0246795Y0072176D01*
X0246885Y0072459D01*
X0246885Y0079742D02*
X0246791Y0080023D01*
X0246689Y0080302D01*
X0246581Y0080578D01*
X0246466Y0080851D01*
X0246345Y0081122D01*
X0246217Y0081389D01*
X0246082Y0081654D01*
X0245941Y0081915D01*
X0245794Y0082172D01*
X0245641Y0082426D01*
X0245481Y0082676D01*
X0245316Y0082922D01*
X0245144Y0083164D01*
X0244967Y0083401D01*
X0244784Y0083635D01*
X0244595Y0083863D01*
X0244400Y0084088D01*
X0244201Y0084307D01*
X0243996Y0084521D01*
X0243786Y0084730D01*
X0243571Y0084934D01*
X0243350Y0085133D01*
X0243126Y0085327D01*
X0242896Y0085514D01*
X0242662Y0085697D01*
X0242424Y0085873D01*
X0242181Y0086044D01*
X0241935Y0086208D01*
X0241684Y0086367D01*
X0241430Y0086519D01*
X0241171Y0086665D01*
X0240910Y0086805D01*
X0240645Y0086939D01*
X0240377Y0087066D01*
X0240106Y0087186D01*
X0239832Y0087300D01*
X0239556Y0087407D01*
X0239276Y0087507D01*
X0238995Y0087600D01*
X0238711Y0087687D01*
X0238426Y0087766D01*
X0238138Y0087839D01*
X0237849Y0087905D01*
X0237558Y0087963D01*
X0237266Y0088014D01*
X0236973Y0088059D01*
X0236679Y0088096D01*
X0236384Y0088126D01*
X0236088Y0088149D01*
X0235792Y0088164D01*
X0235495Y0088172D01*
X0235199Y0088174D01*
X0234902Y0088167D01*
X0234606Y0088154D01*
X0234310Y0088134D01*
X0234015Y0088106D01*
X0233721Y0088071D01*
X0233427Y0088029D01*
X0233135Y0087979D01*
X0232843Y0087923D01*
X0232554Y0087860D01*
X0232266Y0087789D01*
X0231979Y0087712D01*
X0231695Y0087627D01*
X0231413Y0087536D01*
X0231133Y0087438D01*
X0230856Y0087333D01*
X0230581Y0087221D01*
X0230309Y0087103D01*
X0230040Y0086978D01*
X0229774Y0086846D01*
X0229512Y0086709D01*
X0229253Y0086564D01*
X0228997Y0086414D01*
X0228745Y0086257D01*
X0228497Y0086094D01*
X0228254Y0085926D01*
X0228014Y0085751D01*
X0227779Y0085570D01*
X0227548Y0085384D01*
X0227321Y0085193D01*
X0227100Y0084996D01*
X0226883Y0084793D01*
X0226672Y0084585D01*
X0226465Y0084373D01*
X0226264Y0084155D01*
X0226068Y0083932D01*
X0225877Y0083705D01*
X0225692Y0083473D01*
X0225513Y0083237D01*
X0225340Y0082996D01*
X0225173Y0082751D01*
X0225011Y0082502D01*
X0224856Y0082250D01*
X0224707Y0081993D01*
X0224564Y0081734D01*
X0224427Y0081470D01*
X0224297Y0081204D01*
X0224174Y0080934D01*
X0224057Y0080662D01*
X0223947Y0080386D01*
X0223844Y0080108D01*
X0223747Y0079828D01*
X0223657Y0079545D01*
X0248657Y0120096D02*
X0245113Y0123640D01*
X0245113Y0146081D01*
X0253775Y0146081D01*
X0262436Y0146081D02*
X0271098Y0146081D01*
X0271098Y0123640D01*
X0267554Y0120096D01*
X0262436Y0120096D01*
X0253775Y0120096D02*
X0248657Y0120096D01*
X0261846Y0121475D02*
X0262127Y0121569D01*
X0262406Y0121671D01*
X0262682Y0121779D01*
X0262955Y0121894D01*
X0263226Y0122015D01*
X0263493Y0122143D01*
X0263758Y0122278D01*
X0264019Y0122419D01*
X0264276Y0122566D01*
X0264530Y0122719D01*
X0264780Y0122879D01*
X0265026Y0123044D01*
X0265268Y0123216D01*
X0265505Y0123393D01*
X0265739Y0123576D01*
X0265967Y0123765D01*
X0266192Y0123960D01*
X0266411Y0124159D01*
X0266625Y0124364D01*
X0266834Y0124574D01*
X0267038Y0124789D01*
X0267237Y0125010D01*
X0267431Y0125234D01*
X0267618Y0125464D01*
X0267801Y0125698D01*
X0267977Y0125936D01*
X0268148Y0126179D01*
X0268312Y0126425D01*
X0268471Y0126676D01*
X0268623Y0126930D01*
X0268769Y0127189D01*
X0268909Y0127450D01*
X0269043Y0127715D01*
X0269170Y0127983D01*
X0269290Y0128254D01*
X0269404Y0128528D01*
X0269511Y0128804D01*
X0269611Y0129084D01*
X0269704Y0129365D01*
X0269791Y0129649D01*
X0269870Y0129934D01*
X0269943Y0130222D01*
X0270009Y0130511D01*
X0270067Y0130802D01*
X0270118Y0131094D01*
X0270163Y0131387D01*
X0270200Y0131681D01*
X0270230Y0131976D01*
X0270253Y0132272D01*
X0270268Y0132568D01*
X0270276Y0132865D01*
X0270278Y0133161D01*
X0270271Y0133458D01*
X0270258Y0133754D01*
X0270238Y0134050D01*
X0270210Y0134345D01*
X0270175Y0134639D01*
X0270133Y0134933D01*
X0270083Y0135225D01*
X0270027Y0135517D01*
X0269964Y0135806D01*
X0269893Y0136094D01*
X0269816Y0136381D01*
X0269731Y0136665D01*
X0269640Y0136947D01*
X0269542Y0137227D01*
X0269437Y0137504D01*
X0269325Y0137779D01*
X0269207Y0138051D01*
X0269082Y0138320D01*
X0268950Y0138586D01*
X0268813Y0138848D01*
X0268668Y0139107D01*
X0268518Y0139363D01*
X0268361Y0139615D01*
X0268198Y0139863D01*
X0268030Y0140106D01*
X0267855Y0140346D01*
X0267674Y0140581D01*
X0267488Y0140812D01*
X0267297Y0141039D01*
X0267100Y0141260D01*
X0266897Y0141477D01*
X0266689Y0141688D01*
X0266477Y0141895D01*
X0266259Y0142096D01*
X0266036Y0142292D01*
X0265809Y0142483D01*
X0265577Y0142668D01*
X0265341Y0142847D01*
X0265100Y0143020D01*
X0264855Y0143187D01*
X0264606Y0143349D01*
X0264354Y0143504D01*
X0264097Y0143653D01*
X0263838Y0143796D01*
X0263574Y0143933D01*
X0263308Y0144063D01*
X0263038Y0144186D01*
X0262766Y0144303D01*
X0262490Y0144413D01*
X0262212Y0144516D01*
X0261932Y0144613D01*
X0261649Y0144703D01*
X0254365Y0144702D02*
X0254084Y0144608D01*
X0253805Y0144506D01*
X0253529Y0144398D01*
X0253256Y0144283D01*
X0252985Y0144162D01*
X0252718Y0144034D01*
X0252453Y0143899D01*
X0252192Y0143758D01*
X0251935Y0143611D01*
X0251681Y0143458D01*
X0251431Y0143298D01*
X0251185Y0143133D01*
X0250943Y0142961D01*
X0250706Y0142784D01*
X0250472Y0142601D01*
X0250244Y0142412D01*
X0250019Y0142217D01*
X0249800Y0142018D01*
X0249586Y0141813D01*
X0249377Y0141603D01*
X0249173Y0141388D01*
X0248974Y0141167D01*
X0248780Y0140943D01*
X0248593Y0140713D01*
X0248410Y0140479D01*
X0248234Y0140241D01*
X0248063Y0139998D01*
X0247899Y0139752D01*
X0247740Y0139501D01*
X0247588Y0139247D01*
X0247442Y0138988D01*
X0247302Y0138727D01*
X0247168Y0138462D01*
X0247041Y0138194D01*
X0246921Y0137923D01*
X0246807Y0137649D01*
X0246700Y0137373D01*
X0246600Y0137093D01*
X0246507Y0136812D01*
X0246420Y0136528D01*
X0246341Y0136243D01*
X0246268Y0135955D01*
X0246202Y0135666D01*
X0246144Y0135375D01*
X0246093Y0135083D01*
X0246048Y0134790D01*
X0246011Y0134496D01*
X0245981Y0134201D01*
X0245958Y0133905D01*
X0245943Y0133609D01*
X0245935Y0133312D01*
X0245933Y0133016D01*
X0245940Y0132719D01*
X0245953Y0132423D01*
X0245973Y0132127D01*
X0246001Y0131832D01*
X0246036Y0131538D01*
X0246078Y0131244D01*
X0246128Y0130952D01*
X0246184Y0130660D01*
X0246247Y0130371D01*
X0246318Y0130083D01*
X0246395Y0129796D01*
X0246480Y0129512D01*
X0246571Y0129230D01*
X0246669Y0128950D01*
X0246774Y0128673D01*
X0246886Y0128398D01*
X0247004Y0128126D01*
X0247129Y0127857D01*
X0247261Y0127591D01*
X0247398Y0127329D01*
X0247543Y0127070D01*
X0247693Y0126814D01*
X0247850Y0126562D01*
X0248013Y0126314D01*
X0248181Y0126071D01*
X0248356Y0125831D01*
X0248537Y0125596D01*
X0248723Y0125365D01*
X0248914Y0125138D01*
X0249111Y0124917D01*
X0249314Y0124700D01*
X0249522Y0124489D01*
X0249734Y0124282D01*
X0249952Y0124081D01*
X0250175Y0123885D01*
X0250402Y0123694D01*
X0250634Y0123509D01*
X0250870Y0123330D01*
X0251111Y0123157D01*
X0251356Y0122990D01*
X0251605Y0122828D01*
X0251857Y0122673D01*
X0252114Y0122524D01*
X0252373Y0122381D01*
X0252637Y0122244D01*
X0252903Y0122114D01*
X0253173Y0121991D01*
X0253445Y0121874D01*
X0253721Y0121764D01*
X0253999Y0121661D01*
X0254279Y0121564D01*
X0254562Y0121474D01*
X0286452Y0095687D02*
X0289995Y0099230D01*
X0312436Y0099230D01*
X0312436Y0090569D01*
X0311058Y0089978D02*
X0310964Y0090259D01*
X0310862Y0090538D01*
X0310754Y0090814D01*
X0310639Y0091087D01*
X0310518Y0091358D01*
X0310390Y0091625D01*
X0310255Y0091890D01*
X0310114Y0092151D01*
X0309967Y0092408D01*
X0309814Y0092662D01*
X0309654Y0092912D01*
X0309489Y0093158D01*
X0309317Y0093400D01*
X0309140Y0093637D01*
X0308957Y0093871D01*
X0308768Y0094099D01*
X0308573Y0094324D01*
X0308374Y0094543D01*
X0308169Y0094757D01*
X0307959Y0094966D01*
X0307744Y0095170D01*
X0307523Y0095369D01*
X0307299Y0095563D01*
X0307069Y0095750D01*
X0306835Y0095933D01*
X0306597Y0096109D01*
X0306354Y0096280D01*
X0306108Y0096444D01*
X0305857Y0096603D01*
X0305603Y0096755D01*
X0305344Y0096901D01*
X0305083Y0097041D01*
X0304818Y0097175D01*
X0304550Y0097302D01*
X0304279Y0097422D01*
X0304005Y0097536D01*
X0303729Y0097643D01*
X0303449Y0097743D01*
X0303168Y0097836D01*
X0302884Y0097923D01*
X0302599Y0098002D01*
X0302311Y0098075D01*
X0302022Y0098141D01*
X0301731Y0098199D01*
X0301439Y0098250D01*
X0301146Y0098295D01*
X0300852Y0098332D01*
X0300557Y0098362D01*
X0300261Y0098385D01*
X0299965Y0098400D01*
X0299668Y0098408D01*
X0299372Y0098410D01*
X0299075Y0098403D01*
X0298779Y0098390D01*
X0298483Y0098370D01*
X0298188Y0098342D01*
X0297894Y0098307D01*
X0297600Y0098265D01*
X0297308Y0098215D01*
X0297016Y0098159D01*
X0296727Y0098096D01*
X0296439Y0098025D01*
X0296152Y0097948D01*
X0295868Y0097863D01*
X0295586Y0097772D01*
X0295306Y0097674D01*
X0295029Y0097569D01*
X0294754Y0097457D01*
X0294482Y0097339D01*
X0294213Y0097214D01*
X0293947Y0097082D01*
X0293685Y0096945D01*
X0293426Y0096800D01*
X0293170Y0096650D01*
X0292918Y0096493D01*
X0292670Y0096330D01*
X0292427Y0096162D01*
X0292187Y0095987D01*
X0291952Y0095806D01*
X0291721Y0095620D01*
X0291494Y0095429D01*
X0291273Y0095232D01*
X0291056Y0095029D01*
X0290845Y0094821D01*
X0290638Y0094609D01*
X0290437Y0094391D01*
X0290241Y0094168D01*
X0290050Y0093941D01*
X0289865Y0093709D01*
X0289686Y0093473D01*
X0289513Y0093232D01*
X0289346Y0092987D01*
X0289184Y0092738D01*
X0289029Y0092486D01*
X0288880Y0092229D01*
X0288737Y0091970D01*
X0288600Y0091706D01*
X0288470Y0091440D01*
X0288347Y0091170D01*
X0288230Y0090898D01*
X0288120Y0090622D01*
X0288017Y0090344D01*
X0287920Y0090064D01*
X0287830Y0089781D01*
X0286452Y0090569D02*
X0286452Y0095687D01*
X0287830Y0082498D02*
X0287924Y0082217D01*
X0288026Y0081938D01*
X0288134Y0081662D01*
X0288249Y0081389D01*
X0288370Y0081118D01*
X0288498Y0080851D01*
X0288633Y0080586D01*
X0288774Y0080325D01*
X0288921Y0080068D01*
X0289074Y0079814D01*
X0289234Y0079564D01*
X0289399Y0079318D01*
X0289571Y0079076D01*
X0289748Y0078839D01*
X0289931Y0078605D01*
X0290120Y0078377D01*
X0290315Y0078152D01*
X0290514Y0077933D01*
X0290719Y0077719D01*
X0290929Y0077510D01*
X0291144Y0077306D01*
X0291365Y0077107D01*
X0291589Y0076913D01*
X0291819Y0076726D01*
X0292053Y0076543D01*
X0292291Y0076367D01*
X0292534Y0076196D01*
X0292780Y0076032D01*
X0293031Y0075873D01*
X0293285Y0075721D01*
X0293544Y0075575D01*
X0293805Y0075435D01*
X0294070Y0075301D01*
X0294338Y0075174D01*
X0294609Y0075054D01*
X0294883Y0074940D01*
X0295159Y0074833D01*
X0295439Y0074733D01*
X0295720Y0074640D01*
X0296004Y0074553D01*
X0296289Y0074474D01*
X0296577Y0074401D01*
X0296866Y0074335D01*
X0297157Y0074277D01*
X0297449Y0074226D01*
X0297742Y0074181D01*
X0298036Y0074144D01*
X0298331Y0074114D01*
X0298627Y0074091D01*
X0298923Y0074076D01*
X0299220Y0074068D01*
X0299516Y0074066D01*
X0299813Y0074073D01*
X0300109Y0074086D01*
X0300405Y0074106D01*
X0300700Y0074134D01*
X0300994Y0074169D01*
X0301288Y0074211D01*
X0301580Y0074261D01*
X0301872Y0074317D01*
X0302161Y0074380D01*
X0302449Y0074451D01*
X0302736Y0074528D01*
X0303020Y0074613D01*
X0303302Y0074704D01*
X0303582Y0074802D01*
X0303859Y0074907D01*
X0304134Y0075019D01*
X0304406Y0075137D01*
X0304675Y0075262D01*
X0304941Y0075394D01*
X0305203Y0075531D01*
X0305462Y0075676D01*
X0305718Y0075826D01*
X0305970Y0075983D01*
X0306218Y0076146D01*
X0306461Y0076314D01*
X0306701Y0076489D01*
X0306936Y0076670D01*
X0307167Y0076856D01*
X0307394Y0077047D01*
X0307615Y0077244D01*
X0307832Y0077447D01*
X0308043Y0077655D01*
X0308250Y0077867D01*
X0308451Y0078085D01*
X0308647Y0078308D01*
X0308838Y0078535D01*
X0309023Y0078767D01*
X0309202Y0079003D01*
X0309375Y0079244D01*
X0309542Y0079489D01*
X0309704Y0079738D01*
X0309859Y0079990D01*
X0310008Y0080247D01*
X0310151Y0080506D01*
X0310288Y0080770D01*
X0310418Y0081036D01*
X0310541Y0081306D01*
X0310658Y0081578D01*
X0310768Y0081854D01*
X0310871Y0082132D01*
X0310968Y0082412D01*
X0311058Y0082695D01*
X0312436Y0081907D02*
X0312436Y0073246D01*
X0289995Y0073246D01*
X0286452Y0076789D01*
X0286452Y0081907D01*
X0293145Y0070884D02*
X0293145Y0062222D01*
X0293145Y0070884D02*
X0315586Y0070884D01*
X0319129Y0067341D01*
X0319129Y0062222D01*
X0317751Y0061632D02*
X0317657Y0061913D01*
X0317555Y0062192D01*
X0317447Y0062468D01*
X0317332Y0062741D01*
X0317211Y0063012D01*
X0317083Y0063279D01*
X0316948Y0063544D01*
X0316807Y0063805D01*
X0316660Y0064062D01*
X0316507Y0064316D01*
X0316347Y0064566D01*
X0316182Y0064812D01*
X0316010Y0065054D01*
X0315833Y0065291D01*
X0315650Y0065525D01*
X0315461Y0065753D01*
X0315266Y0065978D01*
X0315067Y0066197D01*
X0314862Y0066411D01*
X0314652Y0066620D01*
X0314437Y0066824D01*
X0314216Y0067023D01*
X0313992Y0067217D01*
X0313762Y0067404D01*
X0313528Y0067587D01*
X0313290Y0067763D01*
X0313047Y0067934D01*
X0312801Y0068098D01*
X0312550Y0068257D01*
X0312296Y0068409D01*
X0312037Y0068555D01*
X0311776Y0068695D01*
X0311511Y0068829D01*
X0311243Y0068956D01*
X0310972Y0069076D01*
X0310698Y0069190D01*
X0310422Y0069297D01*
X0310142Y0069397D01*
X0309861Y0069490D01*
X0309577Y0069577D01*
X0309292Y0069656D01*
X0309004Y0069729D01*
X0308715Y0069795D01*
X0308424Y0069853D01*
X0308132Y0069904D01*
X0307839Y0069949D01*
X0307545Y0069986D01*
X0307250Y0070016D01*
X0306954Y0070039D01*
X0306658Y0070054D01*
X0306361Y0070062D01*
X0306065Y0070064D01*
X0305768Y0070057D01*
X0305472Y0070044D01*
X0305176Y0070024D01*
X0304881Y0069996D01*
X0304587Y0069961D01*
X0304293Y0069919D01*
X0304001Y0069869D01*
X0303709Y0069813D01*
X0303420Y0069750D01*
X0303132Y0069679D01*
X0302845Y0069602D01*
X0302561Y0069517D01*
X0302279Y0069426D01*
X0301999Y0069328D01*
X0301722Y0069223D01*
X0301447Y0069111D01*
X0301175Y0068993D01*
X0300906Y0068868D01*
X0300640Y0068736D01*
X0300378Y0068599D01*
X0300119Y0068454D01*
X0299863Y0068304D01*
X0299611Y0068147D01*
X0299363Y0067984D01*
X0299120Y0067816D01*
X0298880Y0067641D01*
X0298645Y0067460D01*
X0298414Y0067274D01*
X0298187Y0067083D01*
X0297966Y0066886D01*
X0297749Y0066683D01*
X0297538Y0066475D01*
X0297331Y0066263D01*
X0297130Y0066045D01*
X0296934Y0065822D01*
X0296743Y0065595D01*
X0296558Y0065363D01*
X0296379Y0065127D01*
X0296206Y0064886D01*
X0296039Y0064641D01*
X0295877Y0064392D01*
X0295722Y0064140D01*
X0295573Y0063883D01*
X0295430Y0063624D01*
X0295293Y0063360D01*
X0295163Y0063094D01*
X0295040Y0062824D01*
X0294923Y0062552D01*
X0294813Y0062276D01*
X0294710Y0061998D01*
X0294613Y0061718D01*
X0294523Y0061435D01*
X0293145Y0053561D02*
X0293145Y0044900D01*
X0315586Y0044900D01*
X0319129Y0048443D01*
X0319129Y0053561D01*
X0317751Y0054349D02*
X0317661Y0054066D01*
X0317564Y0053786D01*
X0317461Y0053508D01*
X0317351Y0053232D01*
X0317234Y0052960D01*
X0317111Y0052690D01*
X0316981Y0052424D01*
X0316844Y0052160D01*
X0316701Y0051901D01*
X0316552Y0051644D01*
X0316397Y0051392D01*
X0316235Y0051143D01*
X0316068Y0050898D01*
X0315895Y0050657D01*
X0315716Y0050421D01*
X0315531Y0050189D01*
X0315340Y0049962D01*
X0315144Y0049739D01*
X0314943Y0049521D01*
X0314736Y0049309D01*
X0314525Y0049101D01*
X0314308Y0048898D01*
X0314087Y0048701D01*
X0313860Y0048510D01*
X0313629Y0048324D01*
X0313394Y0048143D01*
X0313154Y0047968D01*
X0312911Y0047800D01*
X0312663Y0047637D01*
X0312411Y0047480D01*
X0312155Y0047330D01*
X0311896Y0047185D01*
X0311634Y0047048D01*
X0311368Y0046916D01*
X0311099Y0046791D01*
X0310827Y0046673D01*
X0310552Y0046561D01*
X0310275Y0046456D01*
X0309995Y0046358D01*
X0309713Y0046267D01*
X0309429Y0046182D01*
X0309142Y0046105D01*
X0308854Y0046034D01*
X0308565Y0045971D01*
X0308273Y0045915D01*
X0307981Y0045865D01*
X0307687Y0045823D01*
X0307393Y0045788D01*
X0307098Y0045760D01*
X0306802Y0045740D01*
X0306506Y0045727D01*
X0306209Y0045720D01*
X0305913Y0045722D01*
X0305616Y0045730D01*
X0305320Y0045745D01*
X0305024Y0045768D01*
X0304729Y0045798D01*
X0304435Y0045835D01*
X0304142Y0045880D01*
X0303850Y0045931D01*
X0303559Y0045989D01*
X0303270Y0046055D01*
X0302982Y0046128D01*
X0302697Y0046207D01*
X0302413Y0046294D01*
X0302132Y0046387D01*
X0301852Y0046487D01*
X0301576Y0046594D01*
X0301302Y0046708D01*
X0301031Y0046828D01*
X0300763Y0046955D01*
X0300498Y0047089D01*
X0300237Y0047229D01*
X0299978Y0047375D01*
X0299724Y0047527D01*
X0299473Y0047686D01*
X0299227Y0047850D01*
X0298984Y0048021D01*
X0298746Y0048197D01*
X0298512Y0048380D01*
X0298282Y0048567D01*
X0298058Y0048761D01*
X0297837Y0048960D01*
X0297622Y0049164D01*
X0297412Y0049373D01*
X0297207Y0049587D01*
X0297008Y0049806D01*
X0296813Y0050031D01*
X0296624Y0050259D01*
X0296441Y0050493D01*
X0296264Y0050730D01*
X0296092Y0050972D01*
X0295927Y0051218D01*
X0295767Y0051468D01*
X0295614Y0051722D01*
X0295467Y0051979D01*
X0295326Y0052240D01*
X0295191Y0052505D01*
X0295063Y0052772D01*
X0294942Y0053043D01*
X0294827Y0053316D01*
X0294719Y0053592D01*
X0294617Y0053871D01*
X0294523Y0054152D01*
X0331334Y0106711D02*
X0327791Y0110254D01*
X0327791Y0132695D01*
X0336452Y0132695D01*
X0345113Y0132695D02*
X0353775Y0132695D01*
X0353775Y0110254D01*
X0350231Y0106711D01*
X0345113Y0106711D01*
X0336452Y0106711D02*
X0331334Y0106711D01*
X0344523Y0108089D02*
X0344804Y0108183D01*
X0345083Y0108285D01*
X0345359Y0108393D01*
X0345632Y0108508D01*
X0345903Y0108629D01*
X0346170Y0108757D01*
X0346435Y0108892D01*
X0346696Y0109033D01*
X0346953Y0109180D01*
X0347207Y0109333D01*
X0347457Y0109493D01*
X0347703Y0109658D01*
X0347945Y0109830D01*
X0348182Y0110007D01*
X0348416Y0110190D01*
X0348644Y0110379D01*
X0348869Y0110574D01*
X0349088Y0110773D01*
X0349302Y0110978D01*
X0349511Y0111188D01*
X0349715Y0111403D01*
X0349914Y0111624D01*
X0350108Y0111848D01*
X0350295Y0112078D01*
X0350478Y0112312D01*
X0350654Y0112550D01*
X0350825Y0112793D01*
X0350989Y0113039D01*
X0351148Y0113290D01*
X0351300Y0113544D01*
X0351446Y0113803D01*
X0351586Y0114064D01*
X0351720Y0114329D01*
X0351847Y0114597D01*
X0351967Y0114868D01*
X0352081Y0115142D01*
X0352188Y0115418D01*
X0352288Y0115698D01*
X0352381Y0115979D01*
X0352468Y0116263D01*
X0352547Y0116548D01*
X0352620Y0116836D01*
X0352686Y0117125D01*
X0352744Y0117416D01*
X0352795Y0117708D01*
X0352840Y0118001D01*
X0352877Y0118295D01*
X0352907Y0118590D01*
X0352930Y0118886D01*
X0352945Y0119182D01*
X0352953Y0119479D01*
X0352955Y0119775D01*
X0352948Y0120072D01*
X0352935Y0120368D01*
X0352915Y0120664D01*
X0352887Y0120959D01*
X0352852Y0121253D01*
X0352810Y0121547D01*
X0352760Y0121839D01*
X0352704Y0122131D01*
X0352641Y0122420D01*
X0352570Y0122708D01*
X0352493Y0122995D01*
X0352408Y0123279D01*
X0352317Y0123561D01*
X0352219Y0123841D01*
X0352114Y0124118D01*
X0352002Y0124393D01*
X0351884Y0124665D01*
X0351759Y0124934D01*
X0351627Y0125200D01*
X0351490Y0125462D01*
X0351345Y0125721D01*
X0351195Y0125977D01*
X0351038Y0126229D01*
X0350875Y0126477D01*
X0350707Y0126720D01*
X0350532Y0126960D01*
X0350351Y0127195D01*
X0350165Y0127426D01*
X0349974Y0127653D01*
X0349777Y0127874D01*
X0349574Y0128091D01*
X0349366Y0128302D01*
X0349154Y0128509D01*
X0348936Y0128710D01*
X0348713Y0128906D01*
X0348486Y0129097D01*
X0348254Y0129282D01*
X0348018Y0129461D01*
X0347777Y0129634D01*
X0347532Y0129801D01*
X0347283Y0129963D01*
X0347031Y0130118D01*
X0346774Y0130267D01*
X0346515Y0130410D01*
X0346251Y0130547D01*
X0345985Y0130677D01*
X0345715Y0130800D01*
X0345443Y0130917D01*
X0345167Y0131027D01*
X0344889Y0131130D01*
X0344609Y0131227D01*
X0344326Y0131317D01*
X0337043Y0131317D02*
X0336762Y0131223D01*
X0336483Y0131121D01*
X0336207Y0131013D01*
X0335934Y0130898D01*
X0335663Y0130777D01*
X0335396Y0130649D01*
X0335131Y0130514D01*
X0334870Y0130373D01*
X0334613Y0130226D01*
X0334359Y0130073D01*
X0334109Y0129913D01*
X0333863Y0129748D01*
X0333621Y0129576D01*
X0333384Y0129399D01*
X0333150Y0129216D01*
X0332922Y0129027D01*
X0332697Y0128832D01*
X0332478Y0128633D01*
X0332264Y0128428D01*
X0332055Y0128218D01*
X0331851Y0128003D01*
X0331652Y0127782D01*
X0331458Y0127558D01*
X0331271Y0127328D01*
X0331088Y0127094D01*
X0330912Y0126856D01*
X0330741Y0126613D01*
X0330577Y0126367D01*
X0330418Y0126116D01*
X0330266Y0125862D01*
X0330120Y0125603D01*
X0329980Y0125342D01*
X0329846Y0125077D01*
X0329719Y0124809D01*
X0329599Y0124538D01*
X0329485Y0124264D01*
X0329378Y0123988D01*
X0329278Y0123708D01*
X0329185Y0123427D01*
X0329098Y0123143D01*
X0329019Y0122858D01*
X0328946Y0122570D01*
X0328880Y0122281D01*
X0328822Y0121990D01*
X0328771Y0121698D01*
X0328726Y0121405D01*
X0328689Y0121111D01*
X0328659Y0120816D01*
X0328636Y0120520D01*
X0328621Y0120224D01*
X0328613Y0119927D01*
X0328611Y0119631D01*
X0328618Y0119334D01*
X0328631Y0119038D01*
X0328651Y0118742D01*
X0328679Y0118447D01*
X0328714Y0118153D01*
X0328756Y0117859D01*
X0328806Y0117567D01*
X0328862Y0117275D01*
X0328925Y0116986D01*
X0328996Y0116698D01*
X0329073Y0116411D01*
X0329158Y0116127D01*
X0329249Y0115845D01*
X0329347Y0115565D01*
X0329452Y0115288D01*
X0329564Y0115013D01*
X0329682Y0114741D01*
X0329807Y0114472D01*
X0329939Y0114206D01*
X0330076Y0113944D01*
X0330221Y0113685D01*
X0330371Y0113429D01*
X0330528Y0113177D01*
X0330691Y0112929D01*
X0330859Y0112686D01*
X0331034Y0112446D01*
X0331215Y0112211D01*
X0331401Y0111980D01*
X0331592Y0111753D01*
X0331789Y0111532D01*
X0331992Y0111315D01*
X0332200Y0111104D01*
X0332412Y0110897D01*
X0332630Y0110696D01*
X0332853Y0110500D01*
X0333080Y0110309D01*
X0333312Y0110124D01*
X0333548Y0109945D01*
X0333789Y0109772D01*
X0334034Y0109605D01*
X0334283Y0109443D01*
X0334535Y0109288D01*
X0334792Y0109139D01*
X0335051Y0108996D01*
X0335315Y0108859D01*
X0335581Y0108729D01*
X0335851Y0108606D01*
X0336123Y0108489D01*
X0336399Y0108379D01*
X0336677Y0108276D01*
X0336957Y0108179D01*
X0337240Y0108089D01*
X0348263Y0151593D02*
X0325822Y0151593D01*
X0322279Y0155136D01*
X0322279Y0160254D01*
X0323657Y0160845D02*
X0323751Y0160564D01*
X0323853Y0160285D01*
X0323961Y0160009D01*
X0324076Y0159736D01*
X0324197Y0159465D01*
X0324325Y0159198D01*
X0324460Y0158933D01*
X0324601Y0158672D01*
X0324748Y0158415D01*
X0324901Y0158161D01*
X0325061Y0157911D01*
X0325226Y0157665D01*
X0325398Y0157423D01*
X0325575Y0157186D01*
X0325758Y0156952D01*
X0325947Y0156724D01*
X0326142Y0156499D01*
X0326341Y0156280D01*
X0326546Y0156066D01*
X0326756Y0155857D01*
X0326971Y0155653D01*
X0327192Y0155454D01*
X0327416Y0155260D01*
X0327646Y0155073D01*
X0327880Y0154890D01*
X0328118Y0154714D01*
X0328361Y0154543D01*
X0328607Y0154379D01*
X0328858Y0154220D01*
X0329112Y0154068D01*
X0329371Y0153922D01*
X0329632Y0153782D01*
X0329897Y0153648D01*
X0330165Y0153521D01*
X0330436Y0153401D01*
X0330710Y0153287D01*
X0330986Y0153180D01*
X0331266Y0153080D01*
X0331547Y0152987D01*
X0331831Y0152900D01*
X0332116Y0152821D01*
X0332404Y0152748D01*
X0332693Y0152682D01*
X0332984Y0152624D01*
X0333276Y0152573D01*
X0333569Y0152528D01*
X0333863Y0152491D01*
X0334158Y0152461D01*
X0334454Y0152438D01*
X0334750Y0152423D01*
X0335047Y0152415D01*
X0335343Y0152413D01*
X0335640Y0152420D01*
X0335936Y0152433D01*
X0336232Y0152453D01*
X0336527Y0152481D01*
X0336821Y0152516D01*
X0337115Y0152558D01*
X0337407Y0152608D01*
X0337699Y0152664D01*
X0337988Y0152727D01*
X0338276Y0152798D01*
X0338563Y0152875D01*
X0338847Y0152960D01*
X0339129Y0153051D01*
X0339409Y0153149D01*
X0339686Y0153254D01*
X0339961Y0153366D01*
X0340233Y0153484D01*
X0340502Y0153609D01*
X0340768Y0153741D01*
X0341030Y0153878D01*
X0341289Y0154023D01*
X0341545Y0154173D01*
X0341797Y0154330D01*
X0342045Y0154493D01*
X0342288Y0154661D01*
X0342528Y0154836D01*
X0342763Y0155017D01*
X0342994Y0155203D01*
X0343221Y0155394D01*
X0343442Y0155591D01*
X0343659Y0155794D01*
X0343870Y0156002D01*
X0344077Y0156214D01*
X0344278Y0156432D01*
X0344474Y0156655D01*
X0344665Y0156882D01*
X0344850Y0157114D01*
X0345029Y0157350D01*
X0345202Y0157591D01*
X0345369Y0157836D01*
X0345531Y0158085D01*
X0345686Y0158337D01*
X0345835Y0158594D01*
X0345978Y0158853D01*
X0346115Y0159117D01*
X0346245Y0159383D01*
X0346368Y0159653D01*
X0346485Y0159925D01*
X0346595Y0160201D01*
X0346698Y0160479D01*
X0346795Y0160759D01*
X0346885Y0161042D01*
X0348263Y0160254D02*
X0348263Y0151593D01*
X0346885Y0168325D02*
X0346791Y0168606D01*
X0346689Y0168885D01*
X0346581Y0169161D01*
X0346466Y0169434D01*
X0346345Y0169705D01*
X0346217Y0169972D01*
X0346082Y0170237D01*
X0345941Y0170498D01*
X0345794Y0170755D01*
X0345641Y0171009D01*
X0345481Y0171259D01*
X0345316Y0171505D01*
X0345144Y0171747D01*
X0344967Y0171984D01*
X0344784Y0172218D01*
X0344595Y0172446D01*
X0344400Y0172671D01*
X0344201Y0172890D01*
X0343996Y0173104D01*
X0343786Y0173313D01*
X0343571Y0173517D01*
X0343350Y0173716D01*
X0343126Y0173910D01*
X0342896Y0174097D01*
X0342662Y0174280D01*
X0342424Y0174456D01*
X0342181Y0174627D01*
X0341935Y0174791D01*
X0341684Y0174950D01*
X0341430Y0175102D01*
X0341171Y0175248D01*
X0340910Y0175388D01*
X0340645Y0175522D01*
X0340377Y0175649D01*
X0340106Y0175769D01*
X0339832Y0175883D01*
X0339556Y0175990D01*
X0339276Y0176090D01*
X0338995Y0176183D01*
X0338711Y0176270D01*
X0338426Y0176349D01*
X0338138Y0176422D01*
X0337849Y0176488D01*
X0337558Y0176546D01*
X0337266Y0176597D01*
X0336973Y0176642D01*
X0336679Y0176679D01*
X0336384Y0176709D01*
X0336088Y0176732D01*
X0335792Y0176747D01*
X0335495Y0176755D01*
X0335199Y0176757D01*
X0334902Y0176750D01*
X0334606Y0176737D01*
X0334310Y0176717D01*
X0334015Y0176689D01*
X0333721Y0176654D01*
X0333427Y0176612D01*
X0333135Y0176562D01*
X0332843Y0176506D01*
X0332554Y0176443D01*
X0332266Y0176372D01*
X0331979Y0176295D01*
X0331695Y0176210D01*
X0331413Y0176119D01*
X0331133Y0176021D01*
X0330856Y0175916D01*
X0330581Y0175804D01*
X0330309Y0175686D01*
X0330040Y0175561D01*
X0329774Y0175429D01*
X0329512Y0175292D01*
X0329253Y0175147D01*
X0328997Y0174997D01*
X0328745Y0174840D01*
X0328497Y0174677D01*
X0328254Y0174509D01*
X0328014Y0174334D01*
X0327779Y0174153D01*
X0327548Y0173967D01*
X0327321Y0173776D01*
X0327100Y0173579D01*
X0326883Y0173376D01*
X0326672Y0173168D01*
X0326465Y0172956D01*
X0326264Y0172738D01*
X0326068Y0172515D01*
X0325877Y0172288D01*
X0325692Y0172056D01*
X0325513Y0171820D01*
X0325340Y0171579D01*
X0325173Y0171334D01*
X0325011Y0171085D01*
X0324856Y0170833D01*
X0324707Y0170576D01*
X0324564Y0170317D01*
X0324427Y0170053D01*
X0324297Y0169787D01*
X0324174Y0169517D01*
X0324057Y0169245D01*
X0323947Y0168969D01*
X0323844Y0168691D01*
X0323747Y0168411D01*
X0323657Y0168128D01*
X0322279Y0168915D02*
X0322279Y0174033D01*
X0325822Y0177577D01*
X0348263Y0177577D01*
X0348263Y0168915D01*
D21*
X0176116Y0095653D02*
X0176116Y0094185D01*
X0175749Y0093819D01*
X0175015Y0093819D01*
X0174648Y0094185D01*
X0174648Y0095653D02*
X0175015Y0096020D01*
X0175749Y0096020D01*
X0176116Y0095653D01*
X0173906Y0096020D02*
X0172438Y0096020D01*
X0173172Y0096020D02*
X0173172Y0093819D01*
X0171696Y0094185D02*
X0171329Y0093819D01*
X0170595Y0093819D01*
X0170228Y0094185D01*
X0170228Y0094552D01*
X0170595Y0094919D01*
X0171329Y0094919D01*
X0171696Y0095286D01*
X0171696Y0095653D01*
X0171329Y0096020D01*
X0170595Y0096020D01*
X0170228Y0095653D01*
X0159974Y0089721D02*
X0158873Y0089721D01*
X0158506Y0089354D01*
X0158506Y0087886D01*
X0158873Y0087519D01*
X0159974Y0087519D01*
X0159974Y0089721D01*
X0157764Y0089354D02*
X0157764Y0088987D01*
X0157397Y0088620D01*
X0156663Y0088620D01*
X0156296Y0088253D01*
X0156296Y0087886D01*
X0156663Y0087519D01*
X0157397Y0087519D01*
X0157764Y0087886D01*
X0157764Y0089354D02*
X0157397Y0089721D01*
X0156663Y0089721D01*
X0156296Y0089354D01*
X0155554Y0089721D02*
X0154453Y0089721D01*
X0154086Y0089354D01*
X0154086Y0088620D01*
X0154453Y0088253D01*
X0155554Y0088253D01*
X0154820Y0088253D02*
X0154086Y0087519D01*
X0155554Y0087519D02*
X0155554Y0089721D01*
X0160573Y0083028D02*
X0161307Y0083028D01*
X0160940Y0083028D02*
X0160940Y0080826D01*
X0161307Y0080826D02*
X0160573Y0080826D01*
X0162049Y0080826D02*
X0162783Y0081560D01*
X0162416Y0081560D02*
X0163517Y0081560D01*
X0163517Y0080826D02*
X0163517Y0083028D01*
X0162416Y0083028D01*
X0162049Y0082661D01*
X0162049Y0081927D01*
X0162416Y0081560D01*
X0159974Y0075154D02*
X0158873Y0075154D01*
X0158506Y0074787D01*
X0158506Y0073319D01*
X0158873Y0072952D01*
X0159974Y0072952D01*
X0159974Y0075154D01*
X0157764Y0074787D02*
X0157764Y0073319D01*
X0157397Y0072952D01*
X0156663Y0072952D01*
X0156296Y0073319D01*
X0155554Y0072952D02*
X0154453Y0072952D01*
X0154086Y0073319D01*
X0154086Y0074787D01*
X0154453Y0075154D01*
X0155554Y0075154D01*
X0155554Y0072952D01*
X0156296Y0074787D02*
X0156663Y0075154D01*
X0157397Y0075154D01*
X0157764Y0074787D01*
X0125368Y0074715D02*
X0123166Y0074715D01*
X0123166Y0076191D02*
X0125368Y0076191D01*
X0125368Y0077292D01*
X0125001Y0077659D01*
X0124267Y0077659D01*
X0123900Y0077292D01*
X0123900Y0076191D01*
X0123900Y0076925D02*
X0123166Y0077659D01*
X0121431Y0077918D02*
X0121431Y0079386D01*
X0121431Y0078652D02*
X0119229Y0078652D01*
X0119229Y0077176D02*
X0119963Y0076442D01*
X0119963Y0076809D02*
X0119963Y0075708D01*
X0119229Y0075708D02*
X0121431Y0075708D01*
X0121431Y0076809D01*
X0121064Y0077176D01*
X0120330Y0077176D01*
X0119963Y0076809D01*
X0119596Y0080128D02*
X0119229Y0080495D01*
X0119229Y0081229D01*
X0119596Y0081596D01*
X0119963Y0081596D01*
X0120330Y0081229D01*
X0120330Y0080495D01*
X0120697Y0080128D01*
X0121064Y0080128D01*
X0121431Y0080495D01*
X0121431Y0081229D01*
X0121064Y0081596D01*
X0125368Y0075449D02*
X0125368Y0073981D01*
X0125001Y0073239D02*
X0125368Y0072872D01*
X0125368Y0071771D01*
X0123166Y0071771D01*
X0123166Y0072872D01*
X0123533Y0073239D01*
X0125001Y0073239D01*
X0130432Y0140443D02*
X0157432Y0140443D01*
X0157432Y0143443D02*
X0130432Y0143443D01*
X0130299Y0143445D01*
X0130167Y0143450D01*
X0130035Y0143459D01*
X0129902Y0143471D01*
X0129771Y0143487D01*
X0129639Y0143506D01*
X0129509Y0143529D01*
X0129379Y0143555D01*
X0129249Y0143585D01*
X0129121Y0143618D01*
X0128993Y0143654D01*
X0128867Y0143694D01*
X0128741Y0143737D01*
X0128617Y0143784D01*
X0128494Y0143834D01*
X0128373Y0143887D01*
X0128253Y0143943D01*
X0123818Y0152943D02*
X0123929Y0153103D01*
X0124044Y0153259D01*
X0124163Y0153413D01*
X0124286Y0153565D01*
X0124413Y0153713D01*
X0124543Y0153857D01*
X0124676Y0153999D01*
X0124813Y0154138D01*
X0124953Y0154273D01*
X0125097Y0154404D01*
X0125243Y0154532D01*
X0125393Y0154657D01*
X0125546Y0154777D01*
X0125701Y0154894D01*
X0125860Y0155008D01*
X0126021Y0155117D01*
X0126185Y0155222D01*
X0126351Y0155324D01*
X0126519Y0155421D01*
X0126690Y0155514D01*
X0126864Y0155603D01*
X0127039Y0155688D01*
X0127216Y0155768D01*
X0127395Y0155844D01*
X0127576Y0155916D01*
X0127759Y0155983D01*
X0127943Y0156046D01*
X0128129Y0156104D01*
X0128316Y0156158D01*
X0128505Y0156207D01*
X0128694Y0156252D01*
X0128885Y0156292D01*
X0129076Y0156327D01*
X0129268Y0156358D01*
X0129461Y0156384D01*
X0129655Y0156405D01*
X0129849Y0156422D01*
X0130043Y0156434D01*
X0130238Y0156441D01*
X0130432Y0156443D01*
X0157432Y0156443D01*
X0157432Y0153443D02*
X0130432Y0153443D01*
X0130299Y0153441D01*
X0130167Y0153436D01*
X0130035Y0153427D01*
X0129902Y0153415D01*
X0129771Y0153399D01*
X0129639Y0153380D01*
X0129509Y0153357D01*
X0129379Y0153331D01*
X0129249Y0153301D01*
X0129121Y0153268D01*
X0128993Y0153232D01*
X0128867Y0153192D01*
X0128741Y0153149D01*
X0128617Y0153102D01*
X0128494Y0153052D01*
X0128373Y0152999D01*
X0128253Y0152943D01*
X0123818Y0143943D02*
X0123930Y0143784D01*
X0124045Y0143627D01*
X0124164Y0143473D01*
X0124287Y0143322D01*
X0124413Y0143174D01*
X0124543Y0143029D01*
X0124677Y0142887D01*
X0124814Y0142749D01*
X0124954Y0142614D01*
X0125097Y0142482D01*
X0125244Y0142354D01*
X0125394Y0142230D01*
X0125546Y0142109D01*
X0125702Y0141992D01*
X0125860Y0141879D01*
X0126021Y0141769D01*
X0126185Y0141664D01*
X0126351Y0141563D01*
X0126520Y0141465D01*
X0126691Y0141372D01*
X0126864Y0141283D01*
X0127039Y0141198D01*
X0127217Y0141118D01*
X0127396Y0141042D01*
X0127577Y0140970D01*
X0127759Y0140903D01*
X0127944Y0140840D01*
X0128129Y0140782D01*
X0128317Y0140728D01*
X0128505Y0140679D01*
X0128694Y0140634D01*
X0128885Y0140594D01*
X0129076Y0140559D01*
X0129269Y0140528D01*
X0129462Y0140502D01*
X0129655Y0140481D01*
X0129849Y0140464D01*
X0130043Y0140452D01*
X0130238Y0140445D01*
X0130433Y0140443D01*
X0139432Y0148443D02*
X0141432Y0148443D01*
X0146432Y0148443D02*
X0148432Y0148443D01*
X0157432Y0156443D02*
X0157627Y0156441D01*
X0157821Y0156434D01*
X0158016Y0156422D01*
X0158210Y0156405D01*
X0158403Y0156384D01*
X0158596Y0156358D01*
X0158788Y0156327D01*
X0158980Y0156292D01*
X0159170Y0156252D01*
X0159360Y0156207D01*
X0159548Y0156158D01*
X0159735Y0156104D01*
X0159921Y0156046D01*
X0160105Y0155983D01*
X0160288Y0155916D01*
X0160469Y0155844D01*
X0160648Y0155768D01*
X0160825Y0155688D01*
X0161001Y0155603D01*
X0161174Y0155514D01*
X0161345Y0155421D01*
X0161513Y0155324D01*
X0161680Y0155222D01*
X0161843Y0155117D01*
X0162004Y0155007D01*
X0162163Y0154894D01*
X0162318Y0154777D01*
X0162471Y0154656D01*
X0162621Y0154532D01*
X0162767Y0154404D01*
X0162911Y0154272D01*
X0163051Y0154137D01*
X0163188Y0153999D01*
X0163321Y0153857D01*
X0163451Y0153712D01*
X0163578Y0153564D01*
X0163701Y0153413D01*
X0163820Y0153259D01*
X0163935Y0153102D01*
X0164047Y0152943D01*
X0164046Y0143943D02*
X0163935Y0143783D01*
X0163820Y0143627D01*
X0163701Y0143473D01*
X0163578Y0143321D01*
X0163451Y0143173D01*
X0163321Y0143029D01*
X0163188Y0142887D01*
X0163051Y0142748D01*
X0162911Y0142613D01*
X0162767Y0142482D01*
X0162621Y0142354D01*
X0162471Y0142229D01*
X0162318Y0142109D01*
X0162163Y0141992D01*
X0162004Y0141878D01*
X0161843Y0141769D01*
X0161679Y0141664D01*
X0161513Y0141562D01*
X0161345Y0141465D01*
X0161174Y0141372D01*
X0161000Y0141283D01*
X0160825Y0141198D01*
X0160648Y0141118D01*
X0160469Y0141042D01*
X0160288Y0140970D01*
X0160105Y0140903D01*
X0159921Y0140840D01*
X0159735Y0140782D01*
X0159548Y0140728D01*
X0159359Y0140679D01*
X0159170Y0140634D01*
X0158979Y0140594D01*
X0158788Y0140559D01*
X0158596Y0140528D01*
X0158403Y0140502D01*
X0158209Y0140481D01*
X0158015Y0140464D01*
X0157821Y0140452D01*
X0157626Y0140445D01*
X0157432Y0140443D01*
X0157432Y0143443D02*
X0157565Y0143445D01*
X0157697Y0143450D01*
X0157829Y0143459D01*
X0157962Y0143471D01*
X0158093Y0143487D01*
X0158225Y0143506D01*
X0158355Y0143529D01*
X0158485Y0143555D01*
X0158615Y0143585D01*
X0158743Y0143618D01*
X0158871Y0143654D01*
X0158997Y0143694D01*
X0159123Y0143737D01*
X0159247Y0143784D01*
X0159370Y0143834D01*
X0159491Y0143887D01*
X0159611Y0143943D01*
X0159611Y0152943D02*
X0159491Y0152999D01*
X0159370Y0153052D01*
X0159247Y0153102D01*
X0159123Y0153149D01*
X0158997Y0153192D01*
X0158871Y0153232D01*
X0158743Y0153268D01*
X0158615Y0153301D01*
X0158485Y0153331D01*
X0158355Y0153357D01*
X0158225Y0153380D01*
X0158093Y0153399D01*
X0157962Y0153415D01*
X0157829Y0153427D01*
X0157697Y0153436D01*
X0157565Y0153441D01*
X0157432Y0153443D01*
D22*
X0158539Y0161555D02*
X0160040Y0161555D01*
X0160791Y0162306D01*
X0162392Y0162306D02*
X0163143Y0161555D01*
X0164644Y0161555D01*
X0165395Y0162306D01*
X0165395Y0165308D01*
X0164644Y0166059D01*
X0163143Y0166059D01*
X0162392Y0165308D01*
X0162392Y0162306D01*
X0162392Y0161555D02*
X0163894Y0163056D01*
X0160791Y0165308D02*
X0160040Y0166059D01*
X0158539Y0166059D01*
X0157788Y0165308D01*
X0157788Y0164558D01*
X0158539Y0163807D01*
X0157788Y0163056D01*
X0157788Y0162306D01*
X0158539Y0161555D01*
X0158539Y0163807D02*
X0159290Y0163807D01*
M02*
