G75*
%MOIN*%
%OFA0B0*%
%FSLAX25Y25*%
%IPPOS*%
%LPD*%
%AMOC8*
5,1,8,0,0,1.08239X$1,22.5*
%
%ADD10C,0.00000*%
%ADD11R,0.06306X0.08274*%
%ADD12R,0.08274X0.06306*%
%ADD13R,0.09061X0.02762*%
%ADD14R,0.07498X0.06699*%
%ADD15R,0.06699X0.07498*%
%ADD16R,0.05518X0.06306*%
%ADD17R,0.06306X0.05518*%
%ADD18OC8,0.05600*%
%ADD19C,0.04800*%
%ADD20C,0.03943*%
%ADD21C,0.23400*%
%ADD22C,0.06400*%
%ADD23C,0.05400*%
%ADD24OC8,0.06400*%
%ADD25C,0.20400*%
%ADD26R,0.05000X0.06700*%
%ADD27R,0.00600X0.07200*%
%ADD28C,0.06000*%
%ADD29C,0.13500*%
%ADD30R,0.02900X0.06400*%
%ADD31R,0.20400X0.07400*%
%ADD32R,0.05400X0.10400*%
%ADD33R,0.10400X0.05400*%
%ADD34R,0.06699X0.09849*%
%ADD35R,0.06700X0.05000*%
%ADD36R,0.07200X0.00600*%
%ADD37R,0.13786X0.07880*%
%ADD38R,0.06699X0.14180*%
%ADD39R,0.14180X0.06699*%
D10*
X0019865Y0014585D02*
X0388843Y0014585D01*
X0388843Y0014584D02*
X0389099Y0014587D01*
X0389355Y0014596D01*
X0389611Y0014612D01*
X0389866Y0014633D01*
X0390121Y0014661D01*
X0390375Y0014695D01*
X0390628Y0014735D01*
X0390880Y0014781D01*
X0391131Y0014834D01*
X0391380Y0014892D01*
X0391628Y0014956D01*
X0391874Y0015027D01*
X0392119Y0015103D01*
X0392362Y0015185D01*
X0392602Y0015273D01*
X0392841Y0015367D01*
X0393077Y0015466D01*
X0393310Y0015571D01*
X0393541Y0015682D01*
X0393770Y0015798D01*
X0393995Y0015920D01*
X0394217Y0016047D01*
X0394437Y0016180D01*
X0394652Y0016318D01*
X0394865Y0016461D01*
X0395074Y0016609D01*
X0395280Y0016762D01*
X0395481Y0016920D01*
X0395679Y0017082D01*
X0395873Y0017250D01*
X0396062Y0017422D01*
X0396248Y0017599D01*
X0396429Y0017780D01*
X0396606Y0017966D01*
X0396778Y0018155D01*
X0396946Y0018349D01*
X0397108Y0018547D01*
X0397266Y0018748D01*
X0397419Y0018954D01*
X0397567Y0019163D01*
X0397710Y0019376D01*
X0397848Y0019591D01*
X0397981Y0019811D01*
X0398108Y0020033D01*
X0398230Y0020258D01*
X0398346Y0020487D01*
X0398457Y0020718D01*
X0398562Y0020951D01*
X0398661Y0021187D01*
X0398755Y0021426D01*
X0398843Y0021666D01*
X0398925Y0021909D01*
X0399001Y0022154D01*
X0399072Y0022400D01*
X0399136Y0022648D01*
X0399194Y0022897D01*
X0399247Y0023148D01*
X0399293Y0023400D01*
X0399333Y0023653D01*
X0399367Y0023907D01*
X0399395Y0024162D01*
X0399416Y0024417D01*
X0399432Y0024673D01*
X0399441Y0024929D01*
X0399444Y0025185D01*
X0399444Y0204511D01*
X0399469Y0204802D01*
X0399487Y0205094D01*
X0399498Y0205386D01*
X0399502Y0205679D01*
X0399499Y0205971D01*
X0399489Y0206263D01*
X0399471Y0206555D01*
X0399447Y0206846D01*
X0399415Y0207137D01*
X0399377Y0207427D01*
X0399332Y0207716D01*
X0399279Y0208004D01*
X0399220Y0208290D01*
X0399154Y0208575D01*
X0399081Y0208858D01*
X0399001Y0209139D01*
X0398914Y0209418D01*
X0398821Y0209695D01*
X0398720Y0209970D01*
X0398614Y0210242D01*
X0398501Y0210512D01*
X0398381Y0210779D01*
X0398255Y0211043D01*
X0398122Y0211303D01*
X0397984Y0211561D01*
X0397839Y0211815D01*
X0397688Y0212065D01*
X0397531Y0212312D01*
X0397368Y0212555D01*
X0397199Y0212793D01*
X0397025Y0213028D01*
X0396844Y0213258D01*
X0396659Y0213484D01*
X0396468Y0213706D01*
X0396272Y0213922D01*
X0396070Y0214134D01*
X0395864Y0214341D01*
X0395652Y0214543D01*
X0395436Y0214740D01*
X0395215Y0214932D01*
X0394989Y0215118D01*
X0394759Y0215298D01*
X0394525Y0215473D01*
X0394287Y0215642D01*
X0394044Y0215806D01*
X0393798Y0215963D01*
X0393548Y0216115D01*
X0393294Y0216261D01*
X0393037Y0216400D01*
X0392777Y0216533D01*
X0392513Y0216660D01*
X0392247Y0216780D01*
X0391977Y0216894D01*
X0391705Y0217001D01*
X0391431Y0217102D01*
X0391154Y0217196D01*
X0390875Y0217283D01*
X0390594Y0217363D01*
X0390311Y0217437D01*
X0390026Y0217504D01*
X0389740Y0217564D01*
X0389452Y0217617D01*
X0389164Y0217663D01*
X0388874Y0217702D01*
X0388583Y0217734D01*
X0024601Y0217734D01*
X0024600Y0217734D02*
X0024207Y0217696D01*
X0023814Y0217648D01*
X0023423Y0217591D01*
X0023034Y0217525D01*
X0022646Y0217449D01*
X0022260Y0217364D01*
X0021876Y0217269D01*
X0021494Y0217165D01*
X0021116Y0217053D01*
X0020740Y0216931D01*
X0020367Y0216799D01*
X0019997Y0216659D01*
X0019631Y0216510D01*
X0019269Y0216353D01*
X0018910Y0216186D01*
X0018556Y0216011D01*
X0018206Y0215827D01*
X0017860Y0215635D01*
X0017520Y0215435D01*
X0017184Y0215227D01*
X0016853Y0215010D01*
X0016528Y0214786D01*
X0016208Y0214553D01*
X0015894Y0214314D01*
X0015586Y0214066D01*
X0015284Y0213811D01*
X0014988Y0213549D01*
X0014698Y0213280D01*
X0014415Y0213004D01*
X0014139Y0212721D01*
X0013870Y0212432D01*
X0013608Y0212136D01*
X0013353Y0211834D01*
X0013105Y0211526D01*
X0012865Y0211212D01*
X0012633Y0210892D01*
X0012408Y0210567D01*
X0012191Y0210237D01*
X0011983Y0209901D01*
X0011782Y0209560D01*
X0011590Y0209215D01*
X0011406Y0208865D01*
X0011231Y0208511D01*
X0011065Y0208152D01*
X0010907Y0207790D01*
X0010757Y0207424D01*
X0010617Y0207054D01*
X0010486Y0206682D01*
X0010364Y0206306D01*
X0010251Y0205927D01*
X0010147Y0205546D01*
X0010052Y0205162D01*
X0009967Y0204776D01*
X0009891Y0204388D01*
X0009824Y0203998D01*
X0009767Y0203607D01*
X0009719Y0203215D01*
X0009681Y0202822D01*
X0009652Y0202427D01*
X0009633Y0202033D01*
X0009623Y0201637D01*
X0009623Y0201242D01*
X0009633Y0200847D01*
X0009652Y0200452D01*
X0009680Y0200058D01*
X0009680Y0024770D01*
X0009683Y0024524D01*
X0009692Y0024278D01*
X0009707Y0024032D01*
X0009728Y0023787D01*
X0009754Y0023542D01*
X0009787Y0023298D01*
X0009825Y0023055D01*
X0009870Y0022813D01*
X0009920Y0022572D01*
X0009976Y0022333D01*
X0010038Y0022094D01*
X0010105Y0021858D01*
X0010178Y0021623D01*
X0010257Y0021390D01*
X0010342Y0021158D01*
X0010432Y0020929D01*
X0010527Y0020702D01*
X0010628Y0020478D01*
X0010735Y0020256D01*
X0010847Y0020037D01*
X0010964Y0019820D01*
X0011086Y0019607D01*
X0011213Y0019396D01*
X0011346Y0019188D01*
X0011483Y0018984D01*
X0011625Y0018783D01*
X0011772Y0018586D01*
X0011924Y0018392D01*
X0012080Y0018202D01*
X0012241Y0018016D01*
X0012407Y0017834D01*
X0012577Y0017656D01*
X0012751Y0017482D01*
X0012929Y0017312D01*
X0013111Y0017146D01*
X0013297Y0016985D01*
X0013487Y0016829D01*
X0013681Y0016677D01*
X0013878Y0016530D01*
X0014079Y0016388D01*
X0014283Y0016251D01*
X0014491Y0016118D01*
X0014702Y0015991D01*
X0014915Y0015869D01*
X0015132Y0015752D01*
X0015351Y0015640D01*
X0015573Y0015533D01*
X0015797Y0015432D01*
X0016024Y0015337D01*
X0016253Y0015247D01*
X0016485Y0015162D01*
X0016718Y0015083D01*
X0016953Y0015010D01*
X0017189Y0014943D01*
X0017428Y0014881D01*
X0017667Y0014825D01*
X0017908Y0014775D01*
X0018150Y0014730D01*
X0018393Y0014692D01*
X0018637Y0014659D01*
X0018882Y0014633D01*
X0019127Y0014612D01*
X0019373Y0014597D01*
X0019619Y0014588D01*
X0019865Y0014585D01*
X0028381Y0094112D02*
X0028383Y0094196D01*
X0028389Y0094279D01*
X0028399Y0094362D01*
X0028413Y0094445D01*
X0028430Y0094527D01*
X0028452Y0094608D01*
X0028477Y0094687D01*
X0028506Y0094766D01*
X0028539Y0094843D01*
X0028575Y0094918D01*
X0028615Y0094992D01*
X0028658Y0095064D01*
X0028705Y0095133D01*
X0028755Y0095200D01*
X0028808Y0095265D01*
X0028864Y0095327D01*
X0028922Y0095387D01*
X0028984Y0095444D01*
X0029048Y0095497D01*
X0029115Y0095548D01*
X0029184Y0095595D01*
X0029255Y0095640D01*
X0029328Y0095680D01*
X0029403Y0095717D01*
X0029480Y0095751D01*
X0029558Y0095781D01*
X0029637Y0095807D01*
X0029718Y0095830D01*
X0029800Y0095848D01*
X0029882Y0095863D01*
X0029965Y0095874D01*
X0030048Y0095881D01*
X0030132Y0095884D01*
X0030216Y0095883D01*
X0030299Y0095878D01*
X0030383Y0095869D01*
X0030465Y0095856D01*
X0030547Y0095840D01*
X0030628Y0095819D01*
X0030709Y0095795D01*
X0030787Y0095767D01*
X0030865Y0095735D01*
X0030941Y0095699D01*
X0031015Y0095660D01*
X0031087Y0095618D01*
X0031157Y0095572D01*
X0031225Y0095523D01*
X0031290Y0095471D01*
X0031353Y0095416D01*
X0031413Y0095358D01*
X0031471Y0095297D01*
X0031525Y0095233D01*
X0031577Y0095167D01*
X0031625Y0095099D01*
X0031670Y0095028D01*
X0031711Y0094955D01*
X0031750Y0094881D01*
X0031784Y0094805D01*
X0031815Y0094727D01*
X0031842Y0094648D01*
X0031866Y0094567D01*
X0031885Y0094486D01*
X0031901Y0094404D01*
X0031913Y0094321D01*
X0031921Y0094237D01*
X0031925Y0094154D01*
X0031925Y0094070D01*
X0031921Y0093987D01*
X0031913Y0093903D01*
X0031901Y0093820D01*
X0031885Y0093738D01*
X0031866Y0093657D01*
X0031842Y0093576D01*
X0031815Y0093497D01*
X0031784Y0093419D01*
X0031750Y0093343D01*
X0031711Y0093269D01*
X0031670Y0093196D01*
X0031625Y0093125D01*
X0031577Y0093057D01*
X0031525Y0092991D01*
X0031471Y0092927D01*
X0031413Y0092866D01*
X0031353Y0092808D01*
X0031290Y0092753D01*
X0031225Y0092701D01*
X0031157Y0092652D01*
X0031087Y0092606D01*
X0031015Y0092564D01*
X0030941Y0092525D01*
X0030865Y0092489D01*
X0030787Y0092457D01*
X0030709Y0092429D01*
X0030628Y0092405D01*
X0030547Y0092384D01*
X0030465Y0092368D01*
X0030383Y0092355D01*
X0030299Y0092346D01*
X0030216Y0092341D01*
X0030132Y0092340D01*
X0030048Y0092343D01*
X0029965Y0092350D01*
X0029882Y0092361D01*
X0029800Y0092376D01*
X0029718Y0092394D01*
X0029637Y0092417D01*
X0029558Y0092443D01*
X0029480Y0092473D01*
X0029403Y0092507D01*
X0029328Y0092544D01*
X0029255Y0092584D01*
X0029184Y0092629D01*
X0029115Y0092676D01*
X0029048Y0092727D01*
X0028984Y0092780D01*
X0028922Y0092837D01*
X0028864Y0092897D01*
X0028808Y0092959D01*
X0028755Y0093024D01*
X0028705Y0093091D01*
X0028658Y0093160D01*
X0028615Y0093232D01*
X0028575Y0093306D01*
X0028539Y0093381D01*
X0028506Y0093458D01*
X0028477Y0093537D01*
X0028452Y0093616D01*
X0028430Y0093697D01*
X0028413Y0093779D01*
X0028399Y0093862D01*
X0028389Y0093945D01*
X0028383Y0094028D01*
X0028381Y0094112D01*
X0028381Y0111435D02*
X0028383Y0111519D01*
X0028389Y0111602D01*
X0028399Y0111685D01*
X0028413Y0111768D01*
X0028430Y0111850D01*
X0028452Y0111931D01*
X0028477Y0112010D01*
X0028506Y0112089D01*
X0028539Y0112166D01*
X0028575Y0112241D01*
X0028615Y0112315D01*
X0028658Y0112387D01*
X0028705Y0112456D01*
X0028755Y0112523D01*
X0028808Y0112588D01*
X0028864Y0112650D01*
X0028922Y0112710D01*
X0028984Y0112767D01*
X0029048Y0112820D01*
X0029115Y0112871D01*
X0029184Y0112918D01*
X0029255Y0112963D01*
X0029328Y0113003D01*
X0029403Y0113040D01*
X0029480Y0113074D01*
X0029558Y0113104D01*
X0029637Y0113130D01*
X0029718Y0113153D01*
X0029800Y0113171D01*
X0029882Y0113186D01*
X0029965Y0113197D01*
X0030048Y0113204D01*
X0030132Y0113207D01*
X0030216Y0113206D01*
X0030299Y0113201D01*
X0030383Y0113192D01*
X0030465Y0113179D01*
X0030547Y0113163D01*
X0030628Y0113142D01*
X0030709Y0113118D01*
X0030787Y0113090D01*
X0030865Y0113058D01*
X0030941Y0113022D01*
X0031015Y0112983D01*
X0031087Y0112941D01*
X0031157Y0112895D01*
X0031225Y0112846D01*
X0031290Y0112794D01*
X0031353Y0112739D01*
X0031413Y0112681D01*
X0031471Y0112620D01*
X0031525Y0112556D01*
X0031577Y0112490D01*
X0031625Y0112422D01*
X0031670Y0112351D01*
X0031711Y0112278D01*
X0031750Y0112204D01*
X0031784Y0112128D01*
X0031815Y0112050D01*
X0031842Y0111971D01*
X0031866Y0111890D01*
X0031885Y0111809D01*
X0031901Y0111727D01*
X0031913Y0111644D01*
X0031921Y0111560D01*
X0031925Y0111477D01*
X0031925Y0111393D01*
X0031921Y0111310D01*
X0031913Y0111226D01*
X0031901Y0111143D01*
X0031885Y0111061D01*
X0031866Y0110980D01*
X0031842Y0110899D01*
X0031815Y0110820D01*
X0031784Y0110742D01*
X0031750Y0110666D01*
X0031711Y0110592D01*
X0031670Y0110519D01*
X0031625Y0110448D01*
X0031577Y0110380D01*
X0031525Y0110314D01*
X0031471Y0110250D01*
X0031413Y0110189D01*
X0031353Y0110131D01*
X0031290Y0110076D01*
X0031225Y0110024D01*
X0031157Y0109975D01*
X0031087Y0109929D01*
X0031015Y0109887D01*
X0030941Y0109848D01*
X0030865Y0109812D01*
X0030787Y0109780D01*
X0030709Y0109752D01*
X0030628Y0109728D01*
X0030547Y0109707D01*
X0030465Y0109691D01*
X0030383Y0109678D01*
X0030299Y0109669D01*
X0030216Y0109664D01*
X0030132Y0109663D01*
X0030048Y0109666D01*
X0029965Y0109673D01*
X0029882Y0109684D01*
X0029800Y0109699D01*
X0029718Y0109717D01*
X0029637Y0109740D01*
X0029558Y0109766D01*
X0029480Y0109796D01*
X0029403Y0109830D01*
X0029328Y0109867D01*
X0029255Y0109907D01*
X0029184Y0109952D01*
X0029115Y0109999D01*
X0029048Y0110050D01*
X0028984Y0110103D01*
X0028922Y0110160D01*
X0028864Y0110220D01*
X0028808Y0110282D01*
X0028755Y0110347D01*
X0028705Y0110414D01*
X0028658Y0110483D01*
X0028615Y0110555D01*
X0028575Y0110629D01*
X0028539Y0110704D01*
X0028506Y0110781D01*
X0028477Y0110860D01*
X0028452Y0110939D01*
X0028430Y0111020D01*
X0028413Y0111102D01*
X0028399Y0111185D01*
X0028389Y0111268D01*
X0028383Y0111351D01*
X0028381Y0111435D01*
D11*
X0117161Y0164585D03*
X0128972Y0164585D03*
X0153381Y0130333D03*
X0165192Y0130333D03*
X0246688Y0170884D03*
X0258499Y0170884D03*
X0267161Y0151593D03*
X0278972Y0151593D03*
X0330940Y0146081D03*
X0342751Y0146081D03*
X0350625Y0183482D03*
X0362436Y0183482D03*
X0367948Y0084270D03*
X0356137Y0084270D03*
D12*
X0338027Y0085451D03*
X0338027Y0097262D03*
X0251413Y0059073D03*
X0251413Y0047262D03*
X0355743Y0194900D03*
X0355743Y0206711D03*
D13*
X0307712Y0129959D03*
X0307712Y0124959D03*
X0307712Y0119959D03*
X0307712Y0114959D03*
X0287239Y0114959D03*
X0287239Y0119959D03*
X0287239Y0124959D03*
X0287239Y0129959D03*
D14*
X0327397Y0093018D03*
X0327397Y0081821D03*
X0345901Y0056404D03*
X0345901Y0045207D03*
X0282121Y0055049D03*
X0282121Y0066246D03*
X0263224Y0067033D03*
X0263224Y0055837D03*
X0326216Y0193632D03*
X0341176Y0197963D03*
X0326216Y0204829D03*
X0341176Y0209159D03*
D15*
X0303074Y0180726D03*
X0291877Y0180726D03*
X0289909Y0164191D03*
X0301106Y0164191D03*
X0306617Y0144900D03*
X0295420Y0144900D03*
X0295594Y0137813D03*
X0284397Y0137813D03*
X0284791Y0104742D03*
X0295987Y0104742D03*
D16*
X0369326Y0149624D03*
X0376019Y0149624D03*
X0323263Y0182695D03*
X0316570Y0182695D03*
X0187436Y0123640D03*
X0180743Y0123640D03*
X0112633Y0084663D03*
X0105940Y0084663D03*
X0097279Y0065766D03*
X0090586Y0065766D03*
X0129562Y0065766D03*
X0136255Y0065766D03*
X0109483Y0131907D03*
X0102791Y0131907D03*
X0064602Y0149230D03*
X0057909Y0149230D03*
D17*
X0097476Y0107695D03*
X0097476Y0101002D03*
X0340783Y0182498D03*
X0340783Y0189191D03*
D18*
X0240271Y0053561D03*
X0230271Y0053561D03*
X0222948Y0053561D03*
X0212948Y0053561D03*
X0205231Y0053955D03*
X0195231Y0053955D03*
D19*
X0278420Y0037813D03*
X0288420Y0037813D03*
X0298420Y0037813D03*
X0319365Y0037813D03*
X0329365Y0037813D03*
X0339365Y0037813D03*
D20*
X0030153Y0094112D03*
X0030153Y0111435D03*
D21*
X0025428Y0037813D03*
X0025428Y0195293D03*
X0379759Y0195293D03*
X0379759Y0037813D03*
D22*
X0337909Y0064341D02*
X0337909Y0070341D01*
X0327909Y0070341D02*
X0327909Y0064341D01*
X0385814Y0088404D02*
X0391814Y0088404D01*
X0391814Y0098404D02*
X0385814Y0098404D01*
X0385814Y0108404D02*
X0391814Y0108404D01*
X0391814Y0118404D02*
X0385814Y0118404D01*
X0385814Y0128404D02*
X0391814Y0128404D01*
X0391814Y0138404D02*
X0385814Y0138404D01*
X0296145Y0191474D02*
X0290145Y0191474D01*
X0290145Y0201474D02*
X0296145Y0201474D01*
X0230192Y0172703D02*
X0230192Y0166703D01*
X0220192Y0166703D02*
X0220192Y0172703D01*
X0210192Y0172703D02*
X0210192Y0166703D01*
X0200192Y0166703D02*
X0200192Y0172703D01*
X0145751Y0182931D02*
X0139751Y0182931D01*
X0139751Y0192931D02*
X0145751Y0192931D01*
X0145751Y0202931D02*
X0139751Y0202931D01*
X0106294Y0158923D02*
X0106294Y0152923D01*
X0096294Y0152923D02*
X0096294Y0158923D01*
X0086294Y0158923D02*
X0086294Y0152923D01*
X0070468Y0138844D02*
X0070468Y0132844D01*
X0050468Y0132844D02*
X0050468Y0138844D01*
X0059247Y0045144D02*
X0059247Y0039144D01*
X0069247Y0039144D02*
X0069247Y0045144D01*
X0079247Y0045144D02*
X0079247Y0039144D01*
X0089247Y0039144D02*
X0089247Y0045144D01*
X0125389Y0044750D02*
X0125389Y0038750D01*
X0135389Y0038750D02*
X0135389Y0044750D01*
X0145389Y0044750D02*
X0145389Y0038750D01*
X0155389Y0038750D02*
X0155389Y0044750D01*
X0193106Y0041600D02*
X0193106Y0035600D01*
X0203106Y0035600D02*
X0203106Y0041600D01*
X0213106Y0041600D02*
X0213106Y0035600D01*
X0223106Y0035600D02*
X0223106Y0041600D01*
X0226759Y0096041D02*
X0232759Y0096041D01*
X0232759Y0106041D02*
X0226759Y0106041D01*
X0226759Y0116041D02*
X0232759Y0116041D01*
X0232759Y0126041D02*
X0226759Y0126041D01*
D23*
X0281334Y0094506D03*
X0315586Y0101986D03*
X0336846Y0081120D03*
X0323066Y0132695D03*
X0292751Y0156711D03*
D24*
X0240335Y0183207D03*
X0229535Y0183207D03*
X0218735Y0183207D03*
X0207935Y0183207D03*
X0197135Y0183207D03*
X0202535Y0193207D03*
X0213335Y0193207D03*
X0224135Y0193207D03*
X0234935Y0193207D03*
X0362948Y0138547D03*
X0372948Y0133147D03*
X0362948Y0127747D03*
X0372948Y0122347D03*
X0362948Y0116947D03*
X0372948Y0111547D03*
X0362948Y0106147D03*
X0372948Y0100747D03*
X0362948Y0095347D03*
X0031216Y0136356D03*
X0021216Y0136356D03*
X0021216Y0146356D03*
X0031216Y0146356D03*
D25*
X0169435Y0188207D03*
X0268035Y0188207D03*
X0367948Y0166247D03*
X0367948Y0067647D03*
D26*
X0383452Y0176396D03*
X0389452Y0176396D03*
X0068980Y0118522D03*
X0062980Y0118522D03*
X0031578Y0177183D03*
X0025578Y0177183D03*
X0023310Y0056317D03*
X0017310Y0056317D03*
X0039357Y0052774D03*
X0045357Y0052774D03*
D27*
X0042357Y0052774D03*
X0020310Y0056317D03*
X0065980Y0118522D03*
X0028578Y0177183D03*
X0386452Y0176396D03*
D28*
X0153745Y0052450D03*
X0143945Y0052450D03*
X0136045Y0052450D03*
X0126245Y0052450D03*
X0087604Y0052844D03*
X0077804Y0052844D03*
X0069904Y0052844D03*
X0060104Y0052844D03*
D29*
X0048004Y0042144D03*
X0099704Y0042144D03*
X0114145Y0041750D03*
X0165845Y0041750D03*
D30*
X0147653Y0099644D03*
X0142653Y0099644D03*
X0137653Y0099644D03*
X0132653Y0099644D03*
X0127653Y0099644D03*
X0122653Y0099644D03*
X0117653Y0099644D03*
X0112653Y0099644D03*
X0112653Y0120864D03*
X0117653Y0120864D03*
X0122653Y0120864D03*
X0127653Y0120864D03*
X0132653Y0120864D03*
X0137653Y0120864D03*
X0142653Y0120864D03*
X0147653Y0120864D03*
D31*
X0162932Y0148443D03*
X0124932Y0148443D03*
D32*
X0119917Y0088207D03*
X0127397Y0084663D03*
D33*
X0145901Y0088994D03*
X0153381Y0081514D03*
X0145901Y0074033D03*
X0162436Y0094900D03*
D34*
X0175822Y0077970D03*
X0187633Y0077970D03*
D35*
X0176609Y0047900D03*
X0176609Y0041900D03*
X0386058Y0056467D03*
X0386058Y0062467D03*
D36*
X0386058Y0059467D03*
X0176609Y0044900D03*
D37*
X0310074Y0195490D03*
X0310074Y0210844D03*
D38*
X0258106Y0143719D03*
X0258106Y0122459D03*
X0340783Y0130333D03*
X0340783Y0109073D03*
D39*
X0310074Y0086238D03*
X0288814Y0086238D03*
X0245901Y0076002D03*
X0224641Y0076002D03*
X0295507Y0057892D03*
X0316767Y0057892D03*
X0324641Y0164585D03*
X0345901Y0164585D03*
M02*
