%
M48
M72
T01C0.02362
T02C0.02400
T03C0.03200
T04C0.03543
T05C0.03600
T06C0.04000
T07C0.09100
T08C0.11811
T09C0.13000
%
T01
X52594Y53561
X67948Y61041
X67948Y73246
X84483Y84663
X102200Y92537
X105350Y102774
X106531Y111041
X98657Y114191
X106137Y122065
X88420Y129545
X73854Y125215
X77003Y113010
X79759Y107892
X56531Y123246
X32121Y127577
X15192Y129545
X18735Y102774
X48263Y73246
X109287Y69309
X114405Y68915
X161649Y53561
X186058Y31907
X175428Y26002
X209287Y61435
X208499Y74821
X203775Y79152
X198263Y78364
X166373Y79152
X163617Y86632
X153381Y101593
X163224Y111435
X169523Y115766
X152987Y119309
X135665Y126396
X128578Y135451
X147082Y155136
X146294Y174427
X159287Y176396
X178972Y168915
X185271Y178758
X192751Y163797
X175035Y139388
X171098Y134270
X177397Y132695
X184090Y131120
X210074Y131907
X215586Y127183
X219917Y135844
X238420Y142144
X244326Y141356
X242357Y136238
X243932Y127183
X254956Y133089
X265586Y122459
X279759Y115766
X271491Y105923
X256924Y110648
X253775Y99624
X258499Y88600
X275035Y86238
X273460Y74427
X293145Y92931
X306137Y92931
X313617Y93719
X308106Y105530
X303381Y109467
X321885Y118128
X323460Y113797
X325035Y103561
X347869Y97656
X345901Y87026
X347869Y81120
X345901Y68522
X366373Y50411
X359680Y38600
X333696Y44112
X311255Y33876
X324641Y28364
X297082Y48443
X285271Y44506
X268735Y42537
X271885Y29545
X258106Y29152
X231728Y26396
X240783Y68128
X333696Y126789
X315192Y135451
X309287Y136238
X317161Y151986
X317161Y157498
X297869Y153561
X283696Y159073
X282121Y174821
X308106Y170096
X311255Y176396
X350625Y173246
X354956Y138207
X380153Y122852
X378578Y79939
X251019Y155530
X236058Y155136
X250231Y187813
X115980Y189781
X71491Y184663
X72672Y173246
X44326Y180333
X42357Y194900
X15192Y179152
X44720Y153167
T02
X278420Y37813
X288420Y37813
X298420Y37813
X319365Y37813
X329365Y37813
X339365Y37813
T03
X240271Y53561
X230271Y53561
X222948Y53561
X212948Y53561
X205231Y53955
X195231Y53955
T04
X30153Y94112
X30153Y111435
T05
X60104Y52844
X69904Y52844
X77804Y52844
X87604Y52844
X126245Y52450
X136045Y52450
X143945Y52450
X153745Y52450
T06
X59247Y42144
X69247Y42144
X79247Y42144
X89247Y42144
X125389Y41750
X135389Y41750
X145389Y41750
X155389Y41750
X193106Y38600
X203106Y38600
X213106Y38600
X223106Y38600
X229759Y96041
X229759Y106041
X229759Y116041
X229759Y126041
X230192Y169703
X220192Y169703
X210192Y169703
X200192Y169703
X197135Y183207
X207935Y183207
X218735Y183207
X229535Y183207
X240335Y183207
X234935Y193207
X224135Y193207
X213335Y193207
X202535Y193207
X142751Y192931
X142751Y182931
X142751Y202931
X106294Y155923
X96294Y155923
X86294Y155923
X70468Y135844
X50468Y135844
X31216Y136356
X21216Y136356
X21216Y146356
X31216Y146356
X293145Y191474
X293145Y201474
X362948Y138547
X372948Y133147
X362948Y127747
X372948Y122347
X362948Y116947
X372948Y111547
X362948Y106147
X372948Y100747
X362948Y95347
X388814Y98404
X388814Y108404
X388814Y118404
X388814Y128404
X388814Y138404
X388814Y88404
X337909Y67341
X327909Y67341
T07
X165845Y41750
X114145Y41750
X99704Y42144
X48004Y42144
T08
X25428Y37813
X25428Y195293
X379759Y195293
X379759Y37813
T09
X367948Y67647
X367948Y166247
X268035Y188207
X169435Y188207
M30
